<svg width="1441" height="318" viewBox="0 0 1441 318" fill="none" xmlns="http://www.w3.org/2000/svg">
<g clip-path="url(#clip0_5453_35602)">
<path d="M179.476 1.88312C180.62 1.17209 181.742 0.349961 183.07 0C184.981 0.211087 186.497 1.55538 188.047 2.58304C203.518 13.0819 219.283 23.1418 234.809 33.5518C236.247 34.4961 237.675 35.4627 239.036 36.5126C238.108 36.5126 237.181 36.557 236.258 36.6014C236.57 38.7512 237.036 40.8732 237.614 42.9729C238.825 47.3169 238.642 51.8719 239.291 56.3103C238.68 56.7881 238.075 57.2713 237.469 57.7491C238.741 59.0989 240.014 60.4543 241.275 61.8208C239.919 62.7096 238.569 63.604 237.219 64.4928C237.175 65.0427 237.142 65.5871 237.108 66.137C231.926 63.9761 226.804 61.6653 221.532 59.7155C217.827 58.3323 214.311 56.4992 210.645 55.0383C206.567 53.3996 202.468 51.8275 198.496 49.9499C195.924 48.7334 193.291 47.6669 190.63 46.6781C188.592 45.9282 186.592 45.0116 184.442 44.6117C182.609 44.2839 180.77 44.8061 179.037 45.3727C173.66 47.228 168.494 49.6222 163.239 51.7997C157.245 54.0717 151.374 56.6547 145.369 58.8878C139.853 60.5765 134.631 63.0318 129.243 65.0593C129.993 64.2483 130.693 63.3984 131.404 62.5541C130.243 61.482 129.093 60.3988 127.965 59.2878C127.926 57.8435 127.776 56.3992 127.754 54.9494C127.698 52.833 128.809 50.9276 129.137 48.8723C129.437 47.3113 129.315 45.6726 129.787 44.145C130.47 42.9285 131.565 42.0175 132.437 40.9454C133.953 39.2012 134.825 37.0292 135.748 34.935C133.226 34.4017 130.609 34.3961 128.098 35.0072C129.937 33.424 132.026 32.1742 134.081 30.8965C139.453 27.3469 144.935 23.964 150.39 20.5477C153.723 18.0757 157.412 16.1537 160.8 13.7596C163.772 11.6542 167.244 10.3544 170.088 8.04909C173.016 5.69936 176.371 3.97733 179.476 1.88312Z" fill="#44BA14"/>
<path d="M105.433 48.9834C108.3 47.1614 111.016 45.0394 114.227 43.834C110.555 46.6892 107.127 50.0222 102.795 51.8664C99.595 53.3218 96.8842 55.616 93.7957 57.2769C90.7293 58.9212 87.9352 60.9932 85.1077 63.0152C82.608 64.3595 80.1361 65.776 77.8086 67.4091C74.5256 69.7311 70.9927 71.6642 67.7486 74.0417C64.4101 76.497 60.5605 78.1468 57.2553 80.6576C54.4279 82.7185 51.5282 84.6905 48.4008 86.2737C44.5845 88.2734 41.0738 90.7787 37.5798 93.2784C33.8635 95.9615 29.7084 97.9446 25.8866 100.461C20.4428 104.127 14.8323 107.532 9.26628 111.01C8.39416 111.46 7.49426 111.86 6.60547 112.287C9.07186 110.038 12.0771 108.538 14.799 106.649C23.7591 100.983 32.7414 95.3504 41.6515 89.6066C46.6843 86.0292 52.067 82.9962 57.2775 79.7022C60.4939 77.7635 63.5491 75.5804 66.7098 73.564C74.9367 68.5201 82.9747 63.1762 91.1293 58.0213C95.9676 55.1272 100.689 52.0386 105.433 48.9834Z" fill="#68C91C"/>
<path d="M76.0638 127.275C78.5524 127.286 81.2521 126.93 83.4908 128.275C85.9905 129.613 87.457 132.147 88.8735 134.491C90.4844 137.146 91.6843 140.029 92.5397 143.012C93.5674 146.567 94.945 150.017 95.7449 153.639C96.7893 158.082 97.3003 162.649 98.6613 167.015C99.7501 170.487 100.583 174.053 102.066 177.391C102.827 179.175 103.711 180.941 104.077 182.863C104.161 183.452 104.255 184.046 104.361 184.635C103.266 183.596 102.083 182.152 100.4 182.369C98.128 182.519 95.9172 183.085 93.6841 183.485C93.6674 184.307 93.6507 185.141 93.6674 185.974C93.3119 185.157 92.923 184.368 92.5509 183.568C91.6621 181.635 90.901 179.647 89.9234 177.752C88.6791 175.153 87.4014 172.559 86.4071 169.848C85.135 166.365 84.6517 162.671 83.7519 159.093C83.1908 156.871 82.6964 154.638 82.102 152.428C83.1241 154.622 84.0574 156.855 84.7462 159.177C87.3514 157.649 89.8734 155.977 92.1509 153.988C93.0119 154.366 93.8785 154.755 94.7395 155.144C93.7007 151.661 92.9342 148.106 92.2342 144.54C91.7732 142.206 90.8844 139.979 89.5845 137.99C88.368 136.102 87.3681 134.085 86.2238 132.152C85.2184 130.43 83.6296 128.975 81.6632 128.475C79.9578 128.069 78.1914 128.158 76.4582 128.13C76.2638 128.708 76.0749 129.291 75.8916 129.88C75.2472 131.674 75.2639 133.613 75.6194 135.468C75.2806 134.335 74.8973 133.219 74.6084 132.069C74.514 131.435 74.4251 130.797 74.3418 130.163C74.8306 129.152 75.4639 128.225 76.0638 127.275Z" fill="#44BA14"/>
<path d="M177.869 136.812C179.724 136.079 181.779 135.995 183.74 136.218C186.018 136.451 187.706 138.145 189.351 139.567C191.273 141.356 193.539 143.111 194.267 145.761C194.945 148.344 194.978 151.066 194.683 153.71C194.4 156.221 193.061 158.565 191.117 160.159C189.151 161.731 186.468 162.004 184.485 163.537C183.557 164.637 183.574 166.198 183.479 167.564C183.418 171.364 183.89 175.163 183.69 178.968C183.646 179.218 183.562 179.724 183.518 179.974C183.013 176.608 183.318 173.197 183.174 169.808C183.063 165.914 182.035 162.093 182.14 158.182C182.202 154.149 182.079 150.122 181.668 146.111C181.496 146.111 181.152 146.105 180.985 146.105C180.752 151.621 179.891 157.104 179.98 162.637C180.024 166.17 179.13 169.619 178.974 173.136C178.785 177.191 178.991 181.257 178.774 185.312C178.546 188.312 177.991 191.278 177.68 194.272C174.725 194.028 171.653 193.311 169.558 191.062C171.947 191.923 174.402 192.589 176.847 193.278C177.224 189.939 177.48 186.595 177.908 183.262C178.53 178.924 178.58 174.536 178.474 170.164C178.446 168.103 178.757 165.675 177.347 163.987C175.519 163.126 173.403 163.198 171.558 162.381C170.769 161.581 170.414 160.487 170.003 159.476C169.264 157.404 168.486 155.343 167.992 153.199C167.481 151.027 167.942 148.755 168.747 146.716C169.742 144.195 171.997 142.55 173.741 140.589C175.047 139.267 176.147 137.623 177.869 136.812Z" fill="#44BA14"/>
<path d="M157.194 147.256C158.327 144.467 159.282 141.54 161.149 139.129C160.943 140.745 160.632 142.384 159.766 143.795C157.994 146.728 157.155 150.078 155.955 153.261L155.977 152.716C156.022 150.833 156.494 148.994 157.194 147.256Z" fill="#68C91C"/>
<path d="M67.1984 144.089C69.8037 143.072 72.5089 142.35 75.1142 141.328C75.7419 141.884 76.3696 142.434 77.0029 142.989C76.9917 142.261 76.9695 141.545 76.9362 140.828C78.8471 148.988 82.1467 156.765 83.8632 164.987C84.5909 168.625 86.1241 172.025 87.4128 175.491C86.8851 174.691 86.3185 173.924 85.7685 173.152C84.3909 170.58 83.3133 167.858 81.8301 165.348C78.8915 165.592 75.953 165.948 73.0033 165.964C70.0925 166.031 67.615 164.281 64.8709 163.576C63.971 158.948 62.7378 154.354 62.6934 149.605C63.8266 147.55 64.8098 144.967 67.1984 144.089Z" fill="#44BA14"/>
<path d="M43.9883 171.064C46.0103 174.553 47.3657 178.364 49.0988 181.997C50.5986 186.679 53.315 190.812 55.3259 195.278C57.6645 199.995 60.3975 204.572 64.0638 208.388C64.7582 206.472 65.6192 204.566 65.7803 202.516C65.8469 201.344 65.1915 200.306 64.6526 199.322C63.1361 196.773 61.4696 194.312 60.1142 191.673C60.1531 189.368 60.442 186.99 61.4474 184.896C62.6806 182.447 65.3026 181.286 67.2357 179.502C67.3968 178.236 66.9246 177.008 66.5524 175.825C67.2412 177.042 68.1578 178.186 68.4633 179.586C66.9857 180.963 65.147 181.885 63.6472 183.241C60.1753 186.313 60.6031 191.745 62.9917 195.351C65.6247 199.811 69.291 203.511 72.8628 207.216C75.9847 210.404 78.9843 213.732 82.3117 216.72C84.6504 218.809 87.0945 220.781 89.6331 222.625C92.9772 225.058 96.8323 226.78 99.8487 229.658C101.932 231.652 103.92 233.757 106.276 235.441C104.287 232.33 101.66 229.702 98.9377 227.236C96.2713 224.82 93.105 223.07 90.2331 220.931C87.9 219.209 85.5447 217.515 83.1061 215.943C81.0063 213.404 78.951 210.821 76.6179 208.499C77.4401 208.627 78.2678 208.766 79.0954 208.91C79.3232 205.866 79.7009 202.828 79.5787 199.772C79.5621 198.267 78.8788 196.906 78.2067 195.601C79.0954 194.728 80.0065 193.873 80.923 193.029C80.773 196.023 80.7508 199.084 81.8396 201.928C82.6673 200.206 83.4616 198.422 83.6227 196.5C83.8838 194.317 83.3783 192.151 82.8506 190.051C82.3617 190.884 81.8785 191.723 81.3952 192.562C81.3341 191.151 81.2674 189.751 81.2174 188.346C82.6506 189.046 84.3893 189.496 85.3559 190.862C86.1446 192.518 85.7058 194.417 85.6725 196.178C85.3892 199.306 85.9669 202.411 86.6446 205.449C87.3556 205.144 88.1555 204.944 88.7388 204.405C89.972 202.872 90.583 200.817 92.2773 199.678C93.6771 198.689 95.2047 197.684 95.6769 195.928C97.41 197.934 99.2376 199.889 101.448 201.378C103.193 202.528 104.643 204.055 105.731 205.838C106.226 205.761 106.715 205.677 107.215 205.605C108.764 207.033 110.242 208.566 111.975 209.782C113.242 210.704 114.825 210.938 116.319 211.277C116.758 211.382 117.202 211.499 117.647 211.615C119.485 212.154 121.346 212.743 122.963 213.793C124.185 214.598 124.885 215.932 125.662 217.126C126.073 216.865 126.485 216.598 126.901 216.343L127.24 216.598C128.479 217.481 129.823 218.209 131.184 218.892C134.461 220.576 138.317 220.92 141.344 223.131C139.444 222.87 137.533 222.759 135.628 222.631C135.5 224.675 136.156 226.625 137.078 228.425C138.544 231.285 137.561 234.657 136.072 237.296C134.661 239.735 133.262 242.184 131.956 244.684C130.379 247.506 127.89 249.656 126.023 252.272C123.929 255.222 120.935 257.505 117.513 258.666C114.475 259.688 111.247 259.866 108.076 260.121C108.492 261.21 108.903 262.304 109.303 263.404C109.025 263.282 108.459 263.037 108.181 262.915C106.109 261.988 104.481 260.36 102.682 259.027C97.81 255.322 92.7883 251.811 87.6778 248.445C84.2837 246.206 81.0841 243.473 79.101 239.868C75.6069 233.607 73.4516 226.653 69.4076 220.692C67.4301 217.92 66.2913 214.66 64.2749 211.921C61.3363 207.86 59.0144 203.411 56.6369 199.011C55.0926 196.156 53.1872 193.506 51.7707 190.579C49.821 186.64 48.5878 182.397 46.7213 178.425C45.6048 176.053 44.6271 173.609 43.9883 171.064Z" fill="#44BA14"/>
<path d="M104.467 185.045C105.483 187.867 106.728 190.605 108 193.327C107.972 191.872 107.944 190.417 107.811 188.967C109.022 193.294 110.483 197.721 109.966 202.282C109.233 200.771 108.561 199.221 108.161 197.582C107.944 196.616 107.716 195.66 107.444 194.71C106.261 191.55 105.045 188.383 104.467 185.045Z" fill="#44BA14"/>
<path d="M62.416 188.184C63.6381 190.894 65.0213 193.577 67.1044 195.749C68.8264 197.527 70.4651 200.216 73.3315 199.821C72.1983 200.454 71.0262 201.01 69.8652 201.588C67.7821 199.316 65.4879 197.149 64.0658 194.377C63.0604 192.461 62.766 190.289 62.416 188.184Z" fill="#68C91C"/>
<path d="M197.163 193.051C202.74 192.396 208.395 192.835 213.95 193.562C216.5 193.89 218.972 194.629 221.411 195.434L220.972 195.373C218.961 195.09 216.933 195.029 214.911 194.957C214.339 194.923 213.773 194.895 213.206 194.873C213.473 196.979 213.089 199.067 212.978 201.167C213.689 201.967 214.628 202.528 215.495 203.156C213.989 205.916 212.85 209.172 213.789 212.321C214.084 213.338 215.239 213.621 216.045 214.132C215.661 214.543 215.289 214.954 214.922 215.382C213.689 213.949 212.106 212.877 210.24 212.505C210.401 213.454 210.412 214.482 210.895 215.349C211.834 215.849 212.912 215.988 213.956 216.121C212.873 216.971 211.762 217.782 210.64 218.571C209.651 216.971 209.012 215.015 207.484 213.843C205.657 213.266 203.668 213.377 201.902 212.593C200.424 211.938 199.13 210.949 197.808 210.033C199.363 209.099 201.046 208.422 202.668 207.622C203.546 207.155 204.39 206.627 205.24 206.105C203.335 205.472 201.424 206.1 199.708 206.95C194.397 209.127 188.837 210.91 183.109 211.494C183.387 208.483 182.898 204.944 185.054 202.506C184.398 205.161 184.104 207.888 183.954 210.621C185.609 210.355 187.27 210.083 188.886 209.61C189.959 209.266 191.008 208.872 192.092 208.549C193.225 208.311 194.38 208.144 195.53 207.966C195.725 205.055 196.947 202.384 198.752 200.128C197.458 199.873 196.175 199.617 194.886 199.351C195.575 198.778 196.286 198.24 196.997 197.695C199.23 197.678 201.541 197.362 203.718 198.006C204.496 198.789 205.068 199.762 205.685 200.678C206.157 200.678 206.623 200.678 207.101 200.678C207.384 198.367 207.529 196.04 207.557 193.707C203.635 193.429 199.658 193.307 195.791 194.14C193.519 194.668 191.436 195.834 189.614 197.267C188.181 198.517 186.842 199.878 185.62 201.339C187.526 196.679 192.442 194.007 197.163 193.051ZM208.956 194.323C208.951 195.979 209.562 197.484 210.867 198.539C211.478 197.273 211.823 195.906 211.884 194.507C210.906 194.434 209.929 194.373 208.956 194.323Z" fill="#44BA14"/>
<path d="M148 202.066C150.238 201.099 151.477 198.311 154.116 198.2C157.887 197.95 161.681 198.3 165.453 197.961C165.459 198.266 165.47 198.878 165.476 199.183C164.27 199.261 163.07 199.339 161.87 199.427C162.981 200.838 164.187 202.183 165.187 203.683C166.075 204.938 166.159 206.521 166.398 207.988C163.626 207.277 160.87 206.516 158.054 205.982C158.104 206.327 158.199 207.01 158.249 207.354C160.77 208.249 163.281 209.193 165.753 210.232C162.676 211.693 160.065 213.954 158.237 216.831C157.543 215.748 156.843 214.67 156.132 213.598C155.516 214.537 154.904 215.487 154.293 216.431C153.094 214.065 151.272 212.087 148.972 210.754C148.7 212.465 148.439 214.181 148.311 215.909C147.328 215.065 146.4 214.154 145.544 213.187C145.989 212.57 146.472 211.97 146.822 211.293C147.416 208.126 146.2 204.966 144.417 202.388C144.206 201.688 143.995 200.988 143.789 200.294C144.278 200.027 144.767 199.761 145.256 199.489C146.128 200.333 146.544 202.216 148 202.066Z" fill="#44BA14"/>
<path d="M175.67 199.379C176.758 200.712 177.842 202.106 178.397 203.756C179.303 206.384 179.147 209.211 179.019 211.939C174.698 211.078 170.381 209.917 166.398 207.989C167.209 207.761 168.02 207.539 168.837 207.317C169.387 206.461 169.931 205.606 170.481 204.751C170.57 206.084 170.659 207.411 170.737 208.745C171.253 208.933 171.77 209.122 172.287 209.311C173.125 209.594 173.964 209.872 174.82 210.122C176.136 210.439 177.475 210.644 178.814 210.866C178.764 208.006 178.314 205.139 177.136 202.512C176.742 201.579 176.331 200.651 175.875 199.751L175.67 199.379Z" fill="#68C91C"/>
<path d="M251.445 22.2988L251.856 22.3211C258.561 22.9876 265.399 21.7989 272.009 23.3987C267.932 23.7431 263.838 23.9597 259.761 24.3097C260.872 25.1818 262.233 25.8818 262.944 27.1427C263.41 29.0203 263.077 30.9812 263.433 32.8754C264.038 35.1474 266.377 36.5472 266.86 38.8692C266.843 40.9467 265.727 42.8965 265.999 44.9963C266.432 47.5738 268.515 49.4458 269.31 51.8788C269.31 53.712 268.454 55.4007 268.099 57.1727C267.427 60.0335 268.238 62.9331 268.782 65.7384C267.565 67.1604 265.61 68.5881 266.054 70.7101C266.41 73.1709 266.91 75.6262 266.788 78.1314C266.393 78.1092 265.616 78.0592 265.221 78.037C263.671 77.9148 262.344 77.0205 260.999 76.3316C256.344 73.6431 251.206 72.0043 246.273 69.9324C243.224 68.6547 240.163 67.4049 237.108 66.1383C237.141 65.5884 237.174 65.044 237.219 64.4941C238.569 63.6053 239.919 62.711 241.274 61.8222C240.013 60.4557 238.741 59.1002 237.469 57.7504C238.074 57.2727 238.68 56.7894 239.291 56.3117C238.641 51.8733 238.824 47.3182 237.613 42.9743C237.036 40.8745 236.569 38.7525 236.258 36.6028C237.18 36.5583 238.108 36.5139 239.035 36.5139C243.474 38.4026 246.707 42.3632 251.278 43.9686C251.562 41.6744 251.628 39.3691 251.589 37.0638C251.506 32.1422 251.673 27.2149 251.445 22.2988Z" fill="#44BA14"/>
<path d="M128.097 35.0086C130.608 34.3975 133.224 34.4031 135.746 34.9363C134.824 37.0306 133.952 39.2025 132.435 40.9468C131.563 42.0189 130.469 42.9299 129.786 44.1464C129.314 45.674 129.436 47.3127 129.136 48.8737C128.808 50.929 127.697 52.8343 127.753 54.9508C127.775 56.4006 127.925 57.8449 127.964 59.2892C129.091 60.4001 130.241 61.4834 131.402 62.5555C130.691 63.3998 129.991 64.2497 129.241 65.0607C126.019 66.4828 122.714 67.716 119.498 69.1603C115.621 70.9045 111.399 71.8377 107.71 74.0097C105.75 75.0763 103.716 76.0095 101.622 76.7872C98.7003 77.8648 95.8951 79.2202 92.9343 80.1924C92.3344 78.9147 91.2901 77.6427 91.4789 76.1484C91.9511 73.3265 93.7231 70.8823 94.0731 68.0326C94.0675 65.9384 92.7677 64.1442 91.8789 62.3277C92.2622 61.8722 92.651 61.4167 93.0399 60.9612C90.3568 61.4722 87.6682 62.0444 85.1074 63.0165C87.9349 60.9945 90.729 58.9225 93.7953 57.2783C96.8839 55.6173 99.5947 53.3232 102.794 51.8678C107.127 50.0235 110.555 46.6906 114.226 43.8353C116.798 41.4578 120.07 40.0802 122.898 38.0582C124.564 36.9417 126.158 35.6307 128.097 35.0086Z" fill="#44BA14"/>
<path d="M6.60545 112.289C7.49424 111.862 8.39414 111.462 9.26626 111.012C10.2995 111.456 11.3438 111.889 12.4159 112.239C8.47191 113.545 4.88898 115.956 0.689453 116.4C2.38371 114.672 4.43347 113.334 6.60545 112.289Z" fill="#44BA14"/>
<path d="M193.146 128.508C193.579 124.831 191.357 121.798 189.841 118.676C190.78 119.753 191.674 120.87 192.446 122.081C196.673 128.797 200.323 135.863 203.517 143.123C205.295 146.95 206.539 151 207.55 155.088C208.511 159.016 208.466 163.082 208.461 167.098C208.466 168.454 208.183 169.792 207.733 171.075C207.433 166.754 207.478 162.404 206.761 158.121C205.495 159.227 204.084 160.31 203.428 161.91C202.723 163.565 202.362 165.337 201.939 167.076C199.562 168.62 197.079 169.987 194.59 171.342C192.129 172.647 190.274 174.836 187.791 176.097C186.791 176.658 185.725 177.136 184.858 177.897C184.419 179.263 184.425 180.713 184.391 182.135C184.452 185.968 184.919 189.801 184.641 193.64C184.63 193.851 184.608 194.278 184.591 194.489C184.086 189.329 184.036 184.141 183.691 178.969C183.891 175.164 183.419 171.364 183.48 167.565C183.575 166.198 183.558 164.637 184.486 163.537C186.469 162.004 189.152 161.732 191.118 160.16C193.063 158.566 194.401 156.222 194.685 153.711C194.979 151.067 194.946 148.345 194.268 145.762C193.54 143.112 191.274 141.357 189.352 139.568C187.708 138.146 186.019 136.452 183.741 136.218C181.781 135.996 179.725 136.079 177.87 136.813C176.148 137.624 175.048 139.268 173.743 140.59C171.998 142.551 169.743 144.195 168.749 146.717C167.943 148.756 167.482 151.028 167.993 153.2C168.488 155.344 169.265 157.405 170.004 159.477C170.415 160.488 170.771 161.582 171.559 162.382C173.404 163.199 175.52 163.126 177.348 163.987C178.759 165.676 178.448 168.104 178.475 170.164C177.803 172.575 177.326 175.036 177.17 177.536C174.792 176.064 172.398 174.603 169.843 173.464C167.754 172.503 165.51 171.731 163.777 170.164C161.822 168.392 160.405 166.132 159.011 163.921C158.005 162.26 156.917 160.599 156.411 158.699C155.945 156.927 155.872 155.077 155.956 153.261C157.156 150.078 157.994 146.728 159.766 143.795C160.633 142.384 160.944 140.746 161.15 139.129C161.383 137.124 162.577 135.435 163.566 133.73C165.582 130.458 167.054 126.858 169.426 123.803C169.576 124.897 169.432 126.242 170.404 127.008C171.998 127.147 173.587 126.853 175.159 126.63C178.137 126.147 181.153 125.925 184.164 126.019C187.33 126.081 190.135 127.73 193.146 128.508Z" fill="#44BA14"/>
<path d="M74.6083 132.07C74.8971 133.22 75.2804 134.337 75.6193 135.47C76.1248 137.236 76.5969 139.02 76.9358 140.83C76.9691 141.547 76.9913 142.264 77.0024 142.991C76.3692 142.436 75.7415 141.886 75.1138 141.33C72.5085 142.352 69.8033 143.075 67.198 144.091C64.8094 144.969 63.8261 147.552 62.6929 149.607C62.2597 147.352 61.5597 145.163 61.0042 142.936C60.6265 141.414 60.3265 139.875 59.9599 138.353C59.921 138.181 59.8377 137.836 59.7988 137.659C60.8543 137.942 61.9597 138.581 63.0762 138.192C65.476 137.375 67.7035 136.142 70.0755 135.248C71.8364 134.603 73.4695 133.587 74.6083 132.07Z" fill="#44BA14"/>
<path d="M76.7422 132.002C77.6421 134.129 78.0976 136.407 78.542 138.662C79.1308 142.795 80.9028 146.606 83.1192 150.1C84.9079 149.783 86.891 149.706 88.3687 148.517C89.824 147.367 90.9961 145.912 92.2349 144.539C92.9348 148.106 93.7014 151.661 94.7402 155.144C93.8791 154.755 93.0126 154.366 92.1516 153.988C89.874 155.977 87.3521 157.649 84.7468 159.177C84.058 156.855 83.1248 154.622 82.1027 152.427C80.7084 148.75 79.4474 145.017 78.4087 141.223C77.5643 138.201 77.2977 135.074 76.7422 132.002Z" fill="#44BA14"/>
<path d="M64.8711 163.576C67.6152 164.282 70.0927 166.031 73.0035 165.965C75.9532 165.948 78.8917 165.593 81.8303 165.348C83.3135 167.859 84.3911 170.581 85.7687 173.153C84.5467 172.447 83.2024 171.62 81.7303 171.886C79.3917 172.203 77.1142 173.003 74.7255 172.953C72.1925 172.914 69.6483 172.853 67.1375 173.247C65.7488 170.198 65.2933 166.865 64.8711 163.576Z" fill="#44BA14"/>
<path d="M101.25 168.287C102.822 169.637 104.333 171.142 106.194 172.098C107.527 172.448 108.91 171.987 110.255 171.892C110.91 171.72 110.988 172.737 111.343 173.103C113.099 176.742 115.143 180.291 116.232 184.213C114.487 185.713 115.076 188.152 114.643 190.157C114.215 192.201 113.415 194.151 112.86 196.167C114.01 196.789 115.165 197.412 116.326 198.023C114.687 198.889 113.243 200.084 112.204 201.628C113.976 202.078 115.759 202.483 117.543 202.894C116.215 204.966 114.737 206.938 113.171 208.833C111.949 207.833 110.777 206.766 109.621 205.694C109.749 204.555 109.877 203.422 109.966 202.283C110.482 197.723 109.021 193.295 107.81 188.968C107.072 186.174 106.055 183.458 104.933 180.797C103.372 176.742 101.533 172.676 101.25 168.287Z" fill="#44BA14"/>
<path d="M71.2812 181.805C74.3587 181.899 77.4306 182.41 80.308 183.532C84.3964 185.654 87.9294 188.648 91.3845 191.654C92.8788 193.015 94.3064 194.442 95.6785 195.931C95.2063 197.686 93.6787 198.692 92.2789 199.68C90.5846 200.819 89.9736 202.875 88.7404 204.408C88.1571 204.947 87.3572 205.147 86.6462 205.452C85.9685 202.413 85.3908 199.308 85.6741 196.181C85.7074 194.42 86.1462 192.52 85.3574 190.865C84.3909 189.498 82.6522 189.048 81.219 188.348C81.269 189.754 81.3357 191.154 81.3968 192.565C81.8801 191.726 82.3633 190.887 82.8522 190.054C83.3799 192.154 83.8854 194.32 83.6243 196.503C83.4632 198.425 82.6689 200.208 81.8412 201.93C80.7524 199.086 80.7746 196.025 80.9246 193.031C80.9024 191.787 80.919 190.426 80.1636 189.365C78.7971 187.404 76.9084 185.871 74.9697 184.504C73.7199 183.632 72.4922 182.732 71.2812 181.805Z" fill="#44BA14"/>
<path d="M92.5513 183.57C92.9235 184.37 93.3123 185.159 93.6678 185.976C94.0845 187.787 94.4178 189.614 94.8566 191.419C93.8401 191.081 92.8235 190.736 91.8125 190.397C91.8569 190.192 91.9458 189.781 91.9958 189.575C92.0125 188.198 91.9125 186.82 91.8236 185.448C92.0458 184.815 92.2958 184.192 92.5513 183.57Z" fill="#44BA14"/>
<path d="M118.043 189.148C119.871 192.259 120.643 195.82 121.848 199.186C123.87 204.919 125.692 210.724 127.242 216.601L126.903 216.345C124.914 212.868 124.431 208.824 123.004 205.13C121.937 203.097 120.459 201.219 120.048 198.908C119.426 195.648 118.66 192.415 118.043 189.148Z" fill="#44BA14"/>
<path d="M60.3387 198.14C60.2276 195.984 60.1442 193.829 60.1165 191.674C61.4719 194.312 63.1384 196.773 64.6549 199.323C65.1937 200.306 65.8492 201.345 65.7825 202.517C65.6214 204.567 64.7604 206.472 64.066 208.389C60.3998 204.572 57.6668 199.995 55.3281 195.279C56.9946 196.24 58.6666 197.184 60.3387 198.14Z" fill="#44BA14"/>
<path d="M146.3 194.607C151.438 193.379 156.766 193.302 162.021 193.385C161.593 194.157 161.171 194.935 160.749 195.713C162.298 196.496 163.837 197.307 165.454 197.962C161.682 198.301 157.888 197.951 154.116 198.201C151.477 198.312 150.239 201.101 148 202.067C146.545 202.217 146.128 200.334 145.256 199.49C147.011 198.384 148.478 196.912 149.905 195.429C148.705 195.129 147.511 194.835 146.3 194.607Z" fill="#44BA14"/>
<path d="M195.789 194.142C199.655 193.308 203.633 193.431 207.554 193.708C207.527 196.042 207.382 198.369 207.099 200.68C206.621 200.68 206.155 200.68 205.682 200.68C205.066 199.763 204.494 198.791 203.716 198.008C201.538 197.364 199.228 197.68 196.994 197.697C197.961 196.941 198.917 196.169 199.761 195.275C198.744 194.186 197.15 194.269 195.789 194.142Z" fill="#44BA14"/>
<path d="M208.953 194.324C209.925 194.374 210.903 194.435 211.881 194.508C211.82 195.907 211.475 197.274 210.864 198.54C209.559 197.485 208.948 195.98 208.953 194.324Z" fill="#44BA14"/>
<path d="M213.204 194.873C213.771 194.895 214.338 194.923 214.91 194.956C216.115 196.951 218.237 197.939 220.348 198.684C218.987 199.417 217.643 200.161 216.293 200.906C217.965 201.439 219.631 201.978 221.303 202.522C220.959 203.761 220.615 204.994 220.27 206.238C221.009 206.422 221.742 206.611 222.487 206.805C220.47 209.36 218.448 211.921 216.043 214.132C215.237 213.621 214.082 213.338 213.788 212.321C212.849 209.171 213.988 205.916 215.493 203.155C214.626 202.528 213.688 201.967 212.977 201.167C213.088 199.067 213.471 196.978 213.204 194.873Z" fill="#44BA14"/>
<path d="M73.3315 199.823C75.1813 198.701 76.6478 197.079 78.2087 195.602C78.8809 196.907 79.5641 198.268 79.5808 199.773C79.703 202.829 79.3253 205.867 79.0975 208.911C78.2698 208.767 77.4422 208.628 76.62 208.5C74.2703 206.289 72.015 203.99 69.8652 201.59C71.0262 201.012 72.1983 200.457 73.3315 199.823Z" fill="#44BA14"/>
<path d="M165.456 197.963C167.95 198.524 170.5 198.741 173.011 199.202C172.522 199.724 172.033 200.246 171.55 200.774C172.811 201.612 174.072 202.451 175.355 203.262C175.394 203.568 175.472 204.179 175.51 204.484C174.277 204.418 173.055 204.362 171.827 204.312C171.955 205.979 172.1 207.645 172.289 209.312C171.772 209.123 171.255 208.934 170.739 208.745C170.661 207.412 170.572 206.084 170.483 204.751C169.933 205.606 169.389 206.462 168.839 207.317C168.022 207.54 167.211 207.762 166.4 207.99C166.161 206.523 166.078 204.94 165.189 203.684C164.189 202.185 162.984 200.84 161.873 199.429C163.073 199.341 164.273 199.263 165.478 199.185C165.473 198.879 165.462 198.268 165.456 197.963Z" fill="#44BA14"/>
<path d="M192.24 203.49C192.568 201.829 193.668 200.468 194.885 199.352C196.173 199.618 197.456 199.874 198.751 200.129C196.945 202.385 195.723 205.056 195.529 207.967C194.379 208.145 193.224 208.312 192.09 208.551C192.04 206.862 191.902 205.156 192.24 203.49Z" fill="#44BA14"/>
<path d="M144.417 202.391C146.2 204.968 147.416 208.129 146.822 211.295C146.472 211.973 145.989 212.573 145.544 213.189C144.267 211.69 142.922 210.245 141.473 208.912C141.673 208.784 142.073 208.534 142.267 208.412C142.439 206.24 143.334 204.246 144.417 202.391Z" fill="#44BA14"/>
<path d="M158.239 216.834C160.067 213.956 162.678 211.695 165.755 210.234C168.188 211.39 170.716 212.345 173.11 213.59C172.443 213.634 171.788 213.684 171.132 213.751C170.749 215.462 170.61 217.3 169.693 218.833C168.688 220.111 167.016 218.95 165.761 218.783C165.283 217.65 164.794 216.528 164.3 215.412C161.555 217.972 158.211 219.728 154.712 221.028C152.545 219.367 150.079 218.033 148.312 215.912C148.44 214.184 148.701 212.467 148.974 210.757C151.273 212.09 153.095 214.067 154.295 216.434C154.906 215.489 155.517 214.539 156.134 213.601C156.845 214.673 157.545 215.75 158.239 216.834ZM166.733 216.406C166.699 217.578 167.955 218.028 168.671 218.728C169.627 216.689 169.221 214.484 168.477 212.462C167.705 213.662 166.588 214.873 166.733 216.406Z" fill="#44BA14"/>
<path d="M193.885 211.294C195.185 210.855 196.496 210.444 197.807 210.033C199.129 210.95 200.423 211.939 201.901 212.594C203.667 213.377 205.656 213.266 207.483 213.844C209.011 215.016 209.65 216.971 210.638 218.571C209.266 217.81 207.878 217.032 206.344 216.671C203.861 216.016 201.239 216.049 198.801 215.233C196.834 214.394 195.435 212.694 193.885 211.294Z" fill="#44BA14"/>
<path d="M210.238 212.504C212.105 212.876 213.688 213.948 214.921 215.381C214.677 215.565 214.193 215.931 213.955 216.12C212.91 215.987 211.833 215.848 210.894 215.348C210.41 214.481 210.399 213.454 210.238 212.504Z" fill="#44BA14"/>
<path d="M135.629 222.633C137.534 222.761 139.445 222.872 141.345 223.133C142.867 223.505 144.244 224.288 145.6 225.055C148.427 226.721 151.366 228.21 154.071 230.082C152.966 230.515 151.805 230.854 150.81 231.521C149.894 233.043 149.616 234.843 149.133 236.531C148.405 239.159 147.983 241.858 147.733 244.569C146.033 245.869 144.628 247.53 143.878 249.558C142.467 252.868 140.139 255.646 138.189 258.634C136.484 261.323 133.112 262.123 131.151 264.556C128.491 267.883 125.474 270.933 123.191 274.555C119.33 272.249 116.175 269.005 112.465 266.495C110.926 265.445 109.47 264.267 108.182 262.917C108.459 263.039 109.026 263.284 109.304 263.406C108.904 262.306 108.493 261.212 108.076 260.123C111.248 259.868 114.475 259.69 117.514 258.668C120.936 257.507 123.93 255.224 126.024 252.274C127.891 249.658 130.379 247.508 131.957 244.686C133.262 242.186 134.662 239.736 136.073 237.298C137.562 234.659 138.545 231.287 137.078 228.427C136.156 226.627 135.501 224.677 135.629 222.633Z" fill="#44BA14"/>
<path d="M251.857 22.3204C259.023 22.0204 266.195 22.1982 273.366 22.226C273.322 31.8027 273.355 41.3738 273.333 50.9505C273.355 53.3391 273.133 55.75 273.477 58.1275C273.683 59.4384 275.021 60.0495 275.971 60.7827C279.699 63.1325 283.265 65.7322 287.026 68.0319C290.448 70.1317 293.703 72.4814 297.08 74.6423C299.397 76.1977 301.896 77.5364 303.924 79.4862C303.646 79.4917 303.096 79.4918 302.824 79.4918C303.818 80.6361 304.879 81.7248 305.962 82.7969C304.824 83.8524 303.546 84.8189 302.702 86.141C302.013 87.8186 302.074 89.6795 301.891 91.4571C302.785 92.1792 303.679 92.9069 304.568 93.6457C304.318 93.6735 303.824 93.7235 303.579 93.7513C301.757 93.779 300.13 92.7847 298.497 92.107C294.553 90.1572 290.292 88.9796 286.365 87.0076C283.504 85.6022 280.66 84.1412 277.632 83.1302C273.383 81.7193 269.3 79.8695 265.223 78.0364C265.617 78.0586 266.395 78.1086 266.789 78.1308C266.911 75.6255 266.411 73.1702 266.056 70.7094C265.611 68.5874 267.567 67.1598 268.783 65.7377C268.239 62.9325 267.428 60.0328 268.1 57.172C268.456 55.4 269.311 53.7113 269.311 51.8782C268.517 49.4451 266.434 47.5731 266 44.9956C265.728 42.8959 266.845 40.9461 266.861 38.8685C266.378 36.5466 264.039 35.1467 263.434 32.8748C263.078 30.9805 263.412 29.0197 262.945 27.1421C262.234 25.8811 260.873 25.1812 259.762 24.3091C263.839 23.9591 267.933 23.7425 272.011 23.3981C265.4 21.7982 258.562 22.987 251.857 22.3204Z" fill="#24AD0D"/>
<path d="M85.1102 63.0163C87.6711 62.0441 90.3596 61.472 93.0427 60.9609C92.6538 61.4164 92.265 61.8719 91.8817 62.3274C92.7705 64.1439 94.0703 65.9382 94.0759 68.0324C93.7259 70.882 91.9539 73.3262 91.4817 76.1481C91.2929 77.6424 92.3372 78.9145 92.9371 80.1921C90.2541 81.4031 87.4655 82.353 84.6825 83.2973C80.7829 84.8083 77.0278 86.6747 73.106 88.1357C71.1063 88.8578 69.1565 89.9299 66.9789 89.9799C66.2901 90.0021 65.6013 90.0132 64.9125 90.0243C65.9124 88.4967 67.4622 86.9802 67.2178 84.9971C66.99 83.1029 66.1735 80.8476 64.157 80.2532C61.8906 79.5977 59.4853 80.081 57.2578 80.6587C60.563 78.1479 64.4126 76.4981 67.7511 74.0428C70.9952 71.6653 74.5281 69.7322 77.8111 67.4102C80.1386 65.7771 82.6105 64.3606 85.1102 63.0163Z" fill="#24AD0D"/>
<path d="M186.32 113.377C187.615 115.055 188.87 116.782 189.842 118.676C191.359 121.798 193.581 124.831 193.147 128.509C190.137 127.731 187.331 126.081 184.165 126.02C181.154 125.926 178.138 126.148 175.16 126.631C173.588 126.853 172 127.148 170.405 127.009C169.433 126.242 169.578 124.898 169.428 123.804C171.411 120.287 173.688 116.932 176.144 113.727C176.199 114.838 176.255 115.949 176.316 117.065C179.41 118.143 182.682 118.487 185.948 118.36C186.159 116.704 186.365 115.043 186.32 113.377Z" fill="#24AD0D"/>
<path d="M72.0728 124.27C73.1616 126.086 74.0226 128.058 74.3448 130.163C74.4281 130.797 74.517 131.435 74.6114 132.069C73.4726 133.585 71.8395 134.602 70.0786 135.246C67.7066 136.14 65.4791 137.374 63.0794 138.19C61.9628 138.579 60.8574 137.94 59.802 137.657C59.8408 137.835 59.9242 138.179 59.963 138.351C59.1187 136.285 58.5188 134.13 58.2188 131.919C58.1021 131.18 57.9799 130.452 57.8633 129.719C59.452 130.147 61.124 130.674 62.7738 130.213C65.7846 129.463 68.6232 128.169 71.5673 127.197C71.7506 126.225 71.9339 125.253 72.0728 124.27Z" fill="#24AD0D"/>
<path d="M89.5862 137.99C90.886 139.979 91.7748 142.206 92.2359 144.54C90.9971 145.912 89.825 147.367 88.3696 148.517C86.892 149.706 84.9089 149.783 83.1202 150.1C80.9038 146.606 79.1318 142.795 78.543 138.662C79.2873 140.334 80.2872 141.873 81.2927 143.395C84.4201 142.229 87.4364 140.618 89.5862 137.99Z" fill="#24AD0D"/>
<path d="M154.195 159.227C154.35 156.961 154.795 154.683 155.978 152.717L155.956 153.261C155.872 155.078 155.944 156.927 156.411 158.699C156.917 160.599 158.005 162.26 159.011 163.921C160.405 166.132 161.822 168.393 163.777 170.165C165.51 171.731 167.754 172.503 169.843 173.464C172.398 174.603 174.792 176.064 177.17 177.536C177.325 175.037 177.803 172.576 178.475 170.165C178.581 174.537 178.531 178.925 177.909 183.263C176.22 181.847 174.148 181.086 171.998 180.73C168.943 180.253 166.521 178.236 164.099 176.486C161.077 174.375 158.7 171.459 155.5 169.587C155.378 170.998 155.25 172.415 155.222 173.837C153.4 169.187 153.795 164.088 154.195 159.227Z" fill="#24AD0D"/>
<path d="M98.6738 157.365C99.8737 157.776 101.168 158.132 102.09 159.071C105.79 162.62 108.251 167.22 110.256 171.891C108.912 171.986 107.528 172.447 106.195 172.097C104.334 171.141 102.823 169.636 101.251 168.286C100.718 167.825 100.379 167.181 100.251 166.498C99.8348 164.62 99.5515 162.709 98.9349 160.881C98.8238 159.709 98.7405 158.537 98.6738 157.365Z" fill="#24AD0D"/>
<path d="M203.427 161.91C204.083 160.31 205.494 159.227 206.76 158.121C207.477 162.404 207.432 166.753 207.732 171.075C207.394 174.564 205.949 177.858 204.166 180.846C204.233 178.724 204.033 176.613 203.811 174.508C201.916 175.73 200.111 177.08 198.217 178.297C195.962 179.741 193.379 180.53 190.973 181.668C189.846 182.135 188.757 182.785 187.535 182.963C186.44 182.935 185.418 182.446 184.391 182.135C184.424 180.713 184.418 179.263 184.857 177.897C185.724 177.136 186.79 176.658 187.79 176.097C190.273 174.836 192.129 172.647 194.589 171.342C197.078 169.986 199.561 168.62 201.939 167.076C202.361 165.337 202.722 163.565 203.427 161.91Z" fill="#24AD0D"/>
<path d="M62.8556 168.654C63.811 169.449 64.4665 170.537 64.822 171.732C65.0053 172.309 65.1998 172.887 65.422 173.454C65.7664 174.259 66.1552 175.042 66.5552 175.826C66.9273 177.009 67.3995 178.237 67.2384 179.503C65.3053 181.286 62.6834 182.447 61.4502 184.897C60.4447 186.991 60.1559 189.369 60.117 191.674C60.1448 193.829 60.2281 195.985 60.3392 198.14C58.6672 197.184 56.9951 196.24 55.3286 195.279C53.3178 190.813 50.6014 186.68 49.1016 181.997C50.4292 184.191 51.9957 186.23 53.5899 188.241C54.9454 186.258 56.1563 184.169 57.7228 182.347C59.306 180.475 61.7612 179.747 63.5777 178.17C64.361 177.481 64.6054 176.365 64.3776 175.376C63.9221 173.12 63.2444 170.915 62.8556 168.654Z" fill="#24AD0D"/>
<path d="M81.7315 171.885C83.2035 171.619 84.5478 172.446 85.7699 173.152C86.3199 173.924 86.8864 174.69 87.4142 175.49C87.5364 175.79 87.7864 176.396 87.9141 176.696C87.9974 176.901 88.1641 177.318 88.2474 177.529C85.5088 177.868 82.7647 178.151 80.015 178.423C79.7984 179.312 79.5817 180.195 79.3651 181.09C76.5932 180.295 73.6268 180.501 70.8771 179.64C69.5273 178.501 68.8996 176.768 68.0386 175.274C67.7164 174.602 67.422 173.924 67.1387 173.246C69.6495 172.852 72.1937 172.913 74.7267 172.952C77.1153 173.002 79.3929 172.202 81.7315 171.885Z" fill="#24AD0D"/>
<path d="M93.6857 183.486C95.9188 183.086 98.1296 182.519 100.402 182.369C102.085 182.153 103.268 183.597 104.362 184.636L104.468 185.047C105.046 188.385 106.262 191.552 107.445 194.713C105.779 194.029 104.09 193.407 102.396 192.813C101.229 194.607 100.568 196.69 100.963 198.84C98.7184 196.557 96.4298 194.235 94.8578 191.418C94.4189 189.613 94.0856 187.786 93.669 185.975C93.6523 185.141 93.669 184.308 93.6857 183.486Z" fill="#24AD0D"/>
<path d="M116.232 184.214C116.132 184.325 116.332 184.097 116.232 184.214C117.107 186.075 117.523 187.325 118.043 189.147C118.66 192.413 119.427 195.646 120.049 198.907C120.46 201.218 121.937 203.095 123.004 205.128C120.771 206.867 118.677 208.917 117.649 211.616C117.205 211.5 116.76 211.383 116.321 211.278C115.233 210.505 114.199 209.672 113.172 208.833C114.738 206.939 116.216 204.967 117.543 202.895C115.76 202.484 113.977 202.079 112.205 201.629C113.244 200.084 114.688 198.89 116.327 198.024C115.166 197.412 114.01 196.79 112.861 196.168C113.416 194.152 114.216 192.202 114.644 190.158C115.077 188.152 114.488 185.714 116.232 184.214Z" fill="#24AD0D"/>
<path d="M160.75 195.712C161.172 194.935 161.594 194.157 162.022 193.385C165.016 193.701 167.933 194.49 170.804 195.373C172.793 196.14 174.526 197.579 175.671 199.379L175.876 199.751C174.921 199.556 173.965 199.373 173.01 199.201C170.499 198.74 167.949 198.523 165.455 197.962C163.839 197.307 162.3 196.496 160.75 195.712Z" fill="#24AD0D"/>
<path d="M189.614 197.268C191.436 195.835 193.52 194.668 195.791 194.141C197.152 194.268 198.747 194.185 199.763 195.274C198.919 196.168 197.963 196.94 196.997 197.696C196.286 198.24 195.575 198.779 194.886 199.351C193.67 200.468 192.57 201.829 192.242 203.49C191.903 205.156 192.042 206.861 192.092 208.55C191.009 208.872 189.959 209.267 188.887 209.611C189.303 207.322 189.481 205.001 189.937 202.723C190.231 201.018 191.414 199.696 192.431 198.373C191.486 198.007 190.548 197.635 189.614 197.268Z" fill="#24AD0D"/>
<path d="M139.847 196.022C141.991 195.516 144.141 195.033 146.301 194.605C147.512 194.833 148.707 195.128 149.907 195.428C148.479 196.911 147.012 198.383 145.257 199.488C144.768 199.76 144.279 200.027 143.791 200.294C143.996 200.988 144.207 201.688 144.418 202.388C143.335 204.243 142.441 206.237 142.269 208.409C142.074 208.532 141.674 208.782 141.474 208.909C140.452 207.765 139.48 206.582 138.641 205.299C137.369 203.021 135.253 200.971 135.053 198.266C136.319 196.95 138.13 196.444 139.847 196.022Z" fill="#24AD0D"/>
<path d="M214.91 194.955C216.932 195.027 218.96 195.088 220.971 195.372C222.243 195.577 223.47 196.016 224.676 196.477C223.181 196.449 221.693 196.522 220.204 196.56C222.759 197.733 224.753 199.76 226.02 202.254C224.992 203.882 223.837 205.432 222.487 206.804C221.743 206.609 221.009 206.42 220.271 206.237C220.615 204.993 220.959 203.76 221.304 202.521C219.632 201.977 217.965 201.438 216.293 200.904C217.643 200.16 218.987 199.416 220.348 198.682C218.238 197.938 216.116 196.949 214.91 194.955Z" fill="#24AD0D"/>
<path d="M108.162 197.584C108.562 199.223 109.234 200.773 109.967 202.283C109.879 203.422 109.751 204.555 109.623 205.694C108.095 204.272 106.457 202.978 104.74 201.8C105.718 201.406 106.734 201.061 107.612 200.467C107.94 199.534 108.057 198.551 108.162 197.584Z" fill="#24AD0D"/>
<path d="M177.137 202.51C178.314 205.137 178.764 208.004 178.814 210.864C177.476 210.642 176.137 210.437 174.82 210.12C175.615 208.342 175.826 206.393 175.509 204.482C175.47 204.176 175.392 203.565 175.354 203.26C175.948 203.01 176.542 202.76 177.137 202.51Z" fill="#24AD0D"/>
<path d="M185.109 215.542C187.942 213.932 191.059 212.909 193.886 211.293C195.436 212.693 196.836 214.393 198.802 215.231C201.241 216.048 203.863 216.015 206.346 216.67C207.879 217.031 209.268 217.809 210.64 218.57C208.023 221.153 204.552 222.686 200.896 222.969C201.408 222.197 201.93 221.436 202.457 220.681C200.13 219.825 197.913 218.426 195.408 218.203C193.475 218.537 191.975 219.97 190.409 221.042C189.337 220.242 188.326 219.375 187.381 218.437C189.287 218.142 191.159 217.659 193.014 217.137C192.914 216.415 192.809 215.698 192.714 214.981C190.17 215.059 187.631 215.226 185.109 215.542Z" fill="#24AD0D"/>
<path d="M166.733 216.403C166.589 214.87 167.706 213.659 168.478 212.459C169.222 214.481 169.628 216.686 168.672 218.725C167.956 218.025 166.7 217.575 166.733 216.403Z" fill="#24AD0D"/>
<path d="M154.711 221.026C158.211 219.726 161.555 217.971 164.299 215.41C164.793 216.527 165.282 217.649 165.76 218.782C163.577 218.177 161.41 219.365 160.005 220.976C160.294 221.676 160.682 222.332 161.055 222.998C158.883 222.532 156.744 221.909 154.711 221.026Z" fill="#24AD0D"/>
<path d="M150.812 231.519C151.807 230.852 152.968 230.513 154.073 230.08C159.873 233.874 165.689 237.835 170.266 243.101C171.899 245.012 173.888 246.85 174.576 249.35C174.643 249.717 174.771 250.444 174.832 250.806C173.888 249.889 173.01 248.9 171.949 248.123C171.099 247.434 169.788 247.9 169.233 248.739C168.138 250.344 167.694 252.272 166.955 254.055C165.822 257.049 163.422 259.377 162.439 262.443C161.756 264.193 161.495 266.176 160.3 267.681C157.984 269.903 154.612 270.698 152.479 273.153C150.507 275.497 149.246 278.364 147.107 280.58C145.452 282.458 143.263 283.713 141.069 284.857C141.808 286.474 142.48 288.118 143.13 289.773C141.436 288.485 139.897 287.013 138.331 285.574C136.375 283.78 134.098 282.396 131.937 280.874C128.998 278.791 126.037 276.753 123.193 274.553C125.476 270.931 128.493 267.881 131.154 264.554C133.114 262.121 136.486 261.321 138.192 258.632C140.141 255.644 142.469 252.866 143.88 249.556C144.63 247.528 146.035 245.867 147.735 244.567C147.985 241.857 148.407 239.157 149.135 236.529C149.618 234.841 149.896 233.041 150.812 231.519Z" fill="#24AD0D"/>
<path d="M161.184 307.966C162.167 306.882 163.45 306.155 164.766 305.555C162.55 309.438 158.956 312.209 155.562 314.998C154.44 315.937 153.14 316.62 151.846 317.281C151.918 314.77 152.035 312.265 152.14 309.76C152.39 311.365 152.634 312.982 153.107 314.543C156.445 313.276 158.773 310.46 161.184 307.966Z" fill="#24AD0D"/>
<path d="M153.122 60.06C161.205 59.96 169.287 60.0489 177.375 59.9434C177.581 65.826 177.408 71.7198 177.336 77.6025C174.414 77.8247 171.487 77.858 168.559 77.808C163.354 77.7302 158.144 77.958 152.95 77.6247C152.795 71.7754 152.528 65.8927 153.122 60.06Z" fill="#BCBDBC"/>
<path d="M185.169 60.3544C193.296 59.7212 201.451 60.0267 209.589 59.96C209.766 65.8538 209.755 71.7532 209.616 77.6469C206.672 77.8247 203.723 77.8469 200.778 77.8025C195.568 77.7303 190.357 77.9525 185.152 77.658C184.947 71.892 184.93 66.1149 185.169 60.3544Z" fill="#BCBDBC"/>
<path d="M152.619 83.7852C157.552 83.3241 162.507 83.5963 167.45 83.5352C170.739 83.4908 174.033 83.463 177.316 83.713C177.405 89.5845 177.444 95.4616 177.344 101.333C169.1 101.405 160.857 101.433 152.613 101.333C152.652 95.4839 152.641 89.6345 152.619 83.7852Z" fill="#BCBDBC"/>
<path d="M184.83 83.7581C188.285 83.4526 191.757 83.5026 195.223 83.547C200.017 83.6137 204.816 83.4415 209.605 83.7081C209.766 89.5963 209.788 95.4845 209.599 101.373C201.339 101.345 193.079 101.323 184.824 101.356C184.874 95.4901 184.863 89.6241 184.83 83.7581Z" fill="#BCBDBC"/>
<path d="M302.824 79.4919C303.096 79.4919 303.646 79.4919 303.924 79.4863C304.763 79.6196 305.479 80.1196 306.207 80.5418C309.923 82.9193 313.512 85.4857 317.228 87.8632C320.005 89.6907 322.638 91.7294 325.51 93.4181C330.798 96.6011 335.709 100.362 340.997 103.545C346.524 107.039 351.785 110.933 357.351 114.371C359.134 115.477 360.828 116.738 362.417 118.115C358.912 117.271 355.696 115.61 352.352 114.332C341.647 109.833 330.91 105.422 320.183 100.989C315.8 99.4452 311.623 97.3954 307.334 95.6179C306.096 95.0013 304.318 95.0735 303.579 93.7514C303.824 93.7236 304.318 93.6736 304.568 93.6458C303.679 92.907 302.785 92.1794 301.891 91.4572C302.074 89.6796 302.013 87.8187 302.702 86.1411C303.546 84.8191 304.824 83.8525 305.962 82.7971C304.879 81.725 303.818 80.6362 302.824 79.4919Z" fill="#06A107"/>
<path d="M57.2566 80.6577C59.4842 80.08 61.8894 79.5967 64.1558 80.2522C66.1723 80.8466 66.9889 83.1019 67.2166 84.9961C67.461 86.9792 65.9112 88.4957 64.9113 90.0233C65.6001 90.0122 66.2889 90.0011 66.9778 89.9789C66.8167 90.2178 66.4834 90.6955 66.3167 90.9344C63.2837 91.7343 60.4729 93.123 57.5899 94.3173C50.8296 96.717 44.3136 99.7334 37.57 102.166C30.643 105.149 23.4826 107.555 16.5779 110.593C15.2058 111.177 13.856 111.832 12.4172 112.238C11.3451 111.888 10.3008 111.454 9.26758 111.01C14.8336 107.532 20.4441 104.127 25.8879 100.461C29.7097 97.9447 33.8648 95.9616 37.5811 93.2785C41.0751 90.7788 44.5858 88.2735 48.4021 86.2738C51.5295 84.6906 54.4292 82.7186 57.2566 80.6577Z" fill="#06A107"/>
<path d="M181.181 106.994C183.37 108.688 184.875 111.055 186.319 113.377C186.364 115.043 186.158 116.704 185.947 118.36C182.681 118.487 179.409 118.143 176.315 117.065C176.254 115.949 176.198 114.838 176.143 113.727C177.798 111.46 179.476 109.222 181.181 106.994Z" fill="#06A107"/>
<path d="M54.6614 115.416C57.4333 115.16 60.2385 114.916 63.0104 115.321C67.5766 115.916 70.9095 120.049 72.0705 124.27C71.9316 125.253 71.7483 126.226 71.565 127.198C68.6209 128.17 65.7823 129.464 62.7716 130.214C61.1217 130.675 59.4497 130.147 57.861 129.72C57.9777 130.453 58.0999 131.181 58.2165 131.919C57.0111 128.948 55.9612 125.915 55.0224 122.848C54.267 120.437 54.3892 117.888 54.6614 115.416Z" fill="#06A107"/>
<path d="M76.4611 128.131C78.1943 128.159 79.9607 128.07 81.6661 128.475C83.6326 128.975 85.2213 130.431 86.2267 132.153C87.371 134.086 88.3709 136.102 89.5874 137.991C87.4377 140.618 84.4214 142.229 81.2939 143.396C80.2885 141.874 79.2886 140.335 78.5442 138.663C78.0998 136.408 77.6443 134.13 76.7444 132.003C76.4723 131.286 76.1889 130.581 75.8945 129.881C76.0778 129.292 76.2667 128.709 76.4611 128.131Z" fill="#06A107"/>
<path d="M27.043 140.408C31.8813 138.463 37.8029 138.163 42.3079 141.113C47.1296 144.14 51.1736 148.512 53.6011 153.684C56.0619 159.055 61.4613 162.738 62.8556 168.654C63.2445 170.915 63.9221 173.12 64.3777 175.376C64.6054 176.365 64.361 177.481 63.5777 178.17C61.7613 179.748 59.306 180.475 57.7228 182.347C56.1564 184.169 54.9454 186.258 53.59 188.241C51.9957 186.23 50.4292 184.191 49.1016 181.997C47.3685 178.364 46.0131 174.554 43.9911 171.065C42.2579 167.943 40.9914 164.588 39.0972 161.555C36.0531 156.056 31.7036 151.434 28.4872 146.046C27.4151 144.363 27.1541 142.357 27.043 140.408Z" fill="#06A107"/>
<path d="M155.502 169.588C158.702 171.46 161.08 174.376 164.101 176.487C166.523 178.237 168.945 180.253 172.001 180.731C174.15 181.087 176.222 181.848 177.911 183.264C177.483 186.597 177.228 189.941 176.85 193.28C174.406 192.591 171.951 191.924 169.562 191.063C164.135 188.491 159.663 183.964 156.991 178.604C156.202 177.098 155.369 175.554 155.225 173.837C155.252 172.415 155.38 170.999 155.502 169.588Z" fill="#06A107"/>
<path d="M198.219 178.296C200.113 177.08 201.918 175.73 203.813 174.508C204.035 176.613 204.235 178.724 204.168 180.846C200.352 186.768 194.386 191.15 187.803 193.556C186.781 193.928 185.687 193.711 184.643 193.639C184.92 189.801 184.454 185.968 184.393 182.135C185.42 182.446 186.442 182.935 187.537 182.962C188.759 182.785 189.848 182.135 190.975 181.668C193.38 180.529 195.964 179.741 198.219 178.296Z" fill="#06A107"/>
<path d="M80.0152 178.426C82.7649 178.153 85.509 177.87 88.2476 177.531C89.3086 180.225 90.7306 182.764 91.8249 185.447C91.9138 186.819 92.0138 188.197 91.9971 189.574C87.9087 186.575 83.8592 183.464 79.3652 181.092C79.5819 180.198 79.7985 179.314 80.0152 178.426Z" fill="#06A107"/>
<path d="M100.962 198.84C100.568 196.69 101.229 194.607 102.395 192.812C104.09 193.407 105.778 194.029 107.445 194.712C107.717 195.662 107.945 196.618 108.161 197.584C108.056 198.551 107.939 199.534 107.611 200.467C106.734 201.062 105.717 201.406 104.739 201.8C103.44 200.867 102.162 199.901 100.962 198.84Z" fill="#06A107"/>
<path d="M220.205 196.562C221.694 196.523 223.183 196.451 224.677 196.479C226.004 196.629 227.282 197.023 228.571 197.362C228.204 199.212 227.238 200.839 226.021 202.256C224.755 199.762 222.76 197.734 220.205 196.562Z" fill="#06A107"/>
<path d="M185.62 201.339C186.842 199.878 188.18 198.517 189.614 197.268C190.547 197.634 191.486 198.006 192.43 198.373C191.413 199.695 190.23 201.017 189.936 202.723C189.48 205 189.303 207.322 188.886 209.611C187.269 210.083 185.608 210.355 183.953 210.622C184.103 207.889 184.398 205.161 185.053 202.506C185.192 202.211 185.481 201.628 185.62 201.339Z" fill="#06A107"/>
<path d="M173.01 199.201C173.965 199.373 174.921 199.557 175.876 199.751C176.332 200.651 176.743 201.579 177.137 202.512C176.543 202.762 175.948 203.012 175.354 203.262C174.071 202.451 172.81 201.612 171.549 200.773C172.032 200.245 172.521 199.723 173.01 199.201Z" fill="#06A107"/>
<path d="M171.828 204.311C173.056 204.361 174.278 204.416 175.511 204.483C175.828 206.394 175.617 208.343 174.822 210.121C173.967 209.871 173.128 209.593 172.289 209.31C172.1 207.644 171.956 205.977 171.828 204.311Z" fill="#06A107"/>
<path d="M117.65 211.615C118.678 208.915 120.772 206.866 123.005 205.127C124.433 208.821 124.916 212.865 126.905 216.342C126.488 216.598 126.077 216.865 125.666 217.126C124.888 215.931 124.189 214.598 122.966 213.793C121.35 212.743 119.489 212.154 117.65 211.615Z" fill="#06A107"/>
<path d="M171.132 213.749C171.788 213.682 172.443 213.632 173.11 213.588C174.576 213.593 175.993 214.26 177.132 215.16C177.476 216.049 176.671 216.771 176.198 217.432C174.632 219.215 172.766 220.77 170.638 221.843C167.666 223.32 164.255 222.831 161.056 222.998C160.684 222.331 160.295 221.676 160.006 220.976C161.411 219.365 163.578 218.176 165.761 218.782C167.016 218.948 168.688 220.109 169.694 218.832C170.61 217.299 170.749 215.46 171.132 213.749Z" fill="#06A107"/>
<path d="M185.107 215.543C187.629 215.227 190.168 215.06 192.712 214.982C192.807 215.699 192.912 216.416 193.012 217.138C191.157 217.66 189.285 218.143 187.379 218.438C186.168 217.904 185.63 216.66 185.107 215.543Z" fill="#06A107"/>
<path d="M195.408 218.205C197.913 218.427 200.129 219.827 202.457 220.683C201.929 221.438 201.407 222.199 200.896 222.971C198.813 222.927 196.719 223.016 194.647 222.771C193.091 222.61 191.747 221.76 190.408 221.044C191.975 219.972 193.475 218.538 195.408 218.205Z" fill="#06A107"/>
<path d="M169.234 248.738C169.789 247.9 171.1 247.433 171.95 248.122C173.011 248.899 173.889 249.888 174.833 250.805C174.772 250.444 174.644 249.716 174.578 249.349C176.505 251.566 177.388 254.415 178.372 257.126C179.927 261.542 179.977 266.292 179.955 270.925C180.049 276.919 178.722 282.879 176.539 288.445C174.055 293.967 170.845 299.16 167.028 303.865C166.44 304.627 165.629 305.154 164.768 305.554C163.451 306.154 162.168 306.882 161.185 307.965C158.774 310.459 156.446 313.276 153.108 314.542C152.636 312.981 152.391 311.365 152.141 309.759C152.036 312.265 151.919 314.77 151.847 317.281C151.441 313.592 151.502 309.826 150.469 306.237C149.642 303.321 148.497 300.51 147.347 297.711C146.236 294.911 144.203 292.595 143.131 289.773C142.481 288.117 141.809 286.473 141.07 284.857C143.265 283.712 145.453 282.457 147.109 280.579C149.247 278.363 150.508 275.496 152.48 273.152C154.613 270.697 157.985 269.903 160.301 267.681C161.496 266.175 161.757 264.192 162.44 262.442C163.423 259.376 165.823 257.049 166.956 254.054C167.695 252.271 168.139 250.344 169.234 248.738Z" fill="#06A107"/>
<path d="M241.858 93.5996C244.175 97.0214 245.263 101.238 244.941 105.354C244.802 107.765 244.18 110.164 244.508 112.592C244.741 114.292 245.252 115.942 245.708 117.591C244.752 116.225 243.875 114.731 243.641 113.047C243.23 110.092 243.875 107.137 243.914 104.176C243.958 102.304 243.686 100.443 243.38 98.599C242.425 103.265 243.019 108.698 239.77 112.575C240.592 109.62 241.342 106.637 241.903 103.615C242.619 100.282 241.264 96.9437 241.858 93.5996Z" fill="#714674"/>
<path d="M118.333 98.3432C118.65 96.9044 119.572 95.7268 120.405 94.5547C120.761 99.3264 119.65 104.248 121.238 108.886C121.705 110.497 122.938 111.692 124.116 112.819C124.344 109.081 124.199 105.342 124.355 101.604C124.627 101.648 125.182 101.737 125.46 101.787C126.027 103.965 126.504 106.176 127.221 108.314C128.138 111.081 129.787 113.514 131.354 115.936C132.854 118.085 134.165 120.691 136.842 121.546C135.842 117.719 132.976 114.725 131.92 110.931C131.876 110.508 131.793 109.659 131.754 109.236C132.37 109.62 132.993 110.008 133.592 110.431C134.803 111.98 135.687 113.775 137.037 115.225C139.464 117.885 142.319 120.246 145.674 121.635C147.713 122.535 149.968 123.051 151.752 124.451C154.018 126.268 155.896 128.506 157.651 130.806C158.751 132.25 160.128 133.473 161.134 134.995C160.945 136.894 159.606 138.4 158.679 139.988C154.562 146.043 153.285 153.437 152.229 160.536C151.429 165.836 151.846 171.196 151.64 176.529C149.346 174.423 147.085 171.979 143.964 171.179C141.108 170.496 138.131 170.557 135.215 170.713C129.504 171.279 123.755 172.196 118.005 171.624C115.572 171.357 114.078 168.763 114.217 166.474C114.345 164.036 115.217 161.719 115.611 159.325C113.806 158.464 111.728 157.914 110.312 156.431C108.995 154.715 110.101 152.487 109.856 150.543C109.134 148.704 107.379 147.377 106.995 145.399C107.495 143.516 109.778 142.433 109.873 140.422C109.229 136.628 104.607 135.683 103.179 132.345C102.835 131.534 102.824 130.456 103.518 129.817C107.695 125.851 113.15 123.074 116.161 117.985C117.689 115.58 118.389 112.692 118.144 109.853C117.878 106.026 117.444 102.121 118.333 98.3432Z" fill="#714674"/>
<path d="M243.379 98.6016C243.684 100.446 243.957 102.307 243.912 104.179C243.873 107.139 243.229 110.095 243.64 113.05C243.873 114.733 244.751 116.227 245.706 117.594C247.706 120.216 249.784 122.843 252.456 124.821C254.522 126.471 256.844 127.832 258.677 129.759C259.71 130.659 259.455 132.287 258.722 133.298C257.366 135.12 255.194 136.064 253.633 137.681C252.7 138.614 252.267 140.036 252.567 141.33C253.322 142.813 254.583 143.963 255.372 145.43C255.078 147.224 253.45 148.49 252.411 149.912C252.583 151.812 252.994 153.745 252.644 155.645C251.556 158.095 247.812 157.55 246.745 159.917C246.962 162.317 248.328 164.544 248.095 166.994C247.823 168.655 247.001 170.382 245.506 171.26C244.201 171.821 242.734 171.76 241.346 171.793C237.196 171.716 233.019 171.516 228.975 170.527C225.864 169.794 222.637 170.205 219.543 170.805C216.126 171.377 213.76 174.104 211.021 175.965C210.905 170.155 211.144 164.316 210.288 158.545C209.838 153.851 208.116 149.429 206.711 144.969C205.722 141.769 203.406 139.247 202.028 136.236C201.206 134.953 202.517 133.775 203.211 132.798C205.605 130.015 207.766 126.965 210.766 124.793C213.082 123.038 215.982 122.382 218.448 120.899C221.187 119.283 223.798 117.338 225.725 114.783C226.697 113.539 227.481 112.15 228.547 110.984C229.297 110.378 230.091 109.828 230.886 109.278C229.736 113.911 226.259 117.527 225.264 122.199C226.359 121.482 227.431 120.727 228.336 119.777C230.569 117.099 233.036 114.528 234.38 111.256C236.019 108.145 236.468 104.629 237.641 101.357C238.457 105.323 238.135 109.378 237.952 113.394C238.563 113.139 239.168 112.867 239.768 112.578C243.018 108.7 242.423 103.268 243.379 98.6016Z" fill="#334A7D"/>
<path d="M291.828 120.919C293.284 118.158 295.967 115.897 299.105 115.392C301.877 114.903 304.704 115.164 307.488 115.398C307.704 117.608 307.899 119.858 307.482 122.063C306.843 125.824 304.943 129.19 303.877 132.823C303.355 134.579 302.938 136.362 302.433 138.123C302.394 136.823 302.377 135.456 301.799 134.268C301.127 133.112 299.827 132.557 298.683 132.001C295.522 130.624 292.306 129.351 288.979 128.457C289.884 125.93 290.801 123.402 291.828 120.919Z" fill="#0174BD"/>
<path d="M275.303 132.111C276.497 130.573 277.758 128.823 279.735 128.262C281.957 127.651 284.29 127.901 286.568 127.99C286.618 129.601 286.507 131.239 285.813 132.723C284.602 135.428 284.618 138.455 283.868 141.294C283.391 143.355 282.546 145.304 281.591 147.188C278.147 145.993 274.503 145.643 270.881 145.754C271.386 143.01 271.697 140.233 272.197 137.483C272.736 135.456 274.119 133.8 275.303 132.111Z" fill="#0174BD"/>
<path d="M320.66 140.816C324.237 138.627 328.715 138.638 332.697 139.505C333.875 139.788 335.725 140.416 335.292 141.993C334.547 146.454 331.386 149.915 328.776 153.414C326.498 156.231 324.726 159.391 322.815 162.447C319.049 168.74 316.949 175.828 313.722 182.378C312.766 180.817 311.622 179.322 309.978 178.445C306.978 176.756 304.29 174.595 301.479 172.623C300.234 172.879 298.99 173.112 297.74 173.323C299.251 169.168 301.362 165.285 303.523 161.447C304.795 159.275 306.789 157.619 307.961 155.386C309.106 153.214 309.978 150.859 311.583 148.954C314.188 145.832 317.121 142.882 320.66 140.816Z" fill="#0174BD"/>
<path d="M272.887 179.524C274.009 176.83 275.536 174.319 277.108 171.869C278.786 173.986 280.903 176.08 283.708 176.463C287.313 176.969 290.851 175.796 294.362 175.147C294.368 175.463 294.368 176.091 294.373 176.402C293.446 177.396 292.646 178.607 291.412 179.246C289.646 179.852 287.757 179.868 285.946 180.235C283.313 180.685 280.925 181.962 278.658 183.323C275.67 185.162 272.859 187.306 270.32 189.734C270.265 188.823 270.215 187.912 270.215 187.001C271.342 184.595 272.209 182.085 272.887 179.524Z" fill="#0174BD"/>
<path d="M253.994 196.659C255.111 193.037 255.949 189.31 257.605 185.877C258.671 187.171 259.599 188.971 261.471 189.143C263.937 189.588 266.632 189.727 268.615 191.465C268.376 191.71 267.909 192.187 267.67 192.426C265.698 194.304 263.865 196.315 262.099 198.392C259.716 201.197 256.194 202.608 253.516 205.075C253.189 204.614 252.861 204.153 252.533 203.697C253.066 201.359 253.566 199.014 253.994 196.659Z" fill="#0174BD"/>
<path d="M237.523 209.319C239.295 203.887 240.823 198.348 243.161 193.121C243.272 194.804 243.606 196.487 243.467 198.182C243.261 199.887 242.467 201.437 241.8 202.998C243.272 201.865 244.739 200.659 246.472 199.937C247.844 199.381 249.355 199.626 250.794 199.681C250.649 200.259 250.505 200.837 250.36 201.42C248.688 202.059 246.5 202.381 245.705 204.22C244.667 206.52 244.783 209.114 244.628 211.575C244.428 211.669 244.022 211.858 243.822 211.958C240.856 213.23 238.023 214.78 235.34 216.568C235.906 214.108 236.667 211.697 237.523 209.319Z" fill="#0174BD"/>
<path d="M246.923 204.92C248.245 204.409 249.667 204.303 251.061 204.104C250.867 205.459 250.7 206.825 250.339 208.148C249.423 208.959 248.356 209.586 247.306 210.203C246.24 208.631 245.701 206.575 246.923 204.92Z" fill="#0174BD"/>
<path d="M197.906 237.506C199.34 236.34 200.695 234.884 202.545 234.418C202.773 234.362 203.228 234.251 203.456 234.195C201.367 236.723 198.062 238.617 197.39 242.039C198.306 244.322 200.495 245.955 200.934 248.46C201.556 251.532 202.134 254.665 203.606 257.465C204.483 259.137 206.006 260.309 207.278 261.659C208.661 263.087 209.716 264.775 210.972 266.308C212.283 267.942 213.81 269.386 215.188 270.963C217.11 273.141 218.726 275.58 220.776 277.646C222.704 279.596 224.787 281.384 226.803 283.245C222.259 286.784 218.193 291.089 215.643 296.299C213.549 300.821 211.71 305.537 211.061 310.509C210.788 312.714 210.683 314.936 210.488 317.153C206.6 315.203 203.478 312.087 200.489 308.992C198.312 306.726 195.896 304.682 194.007 302.154C190.757 297.816 188.008 293.094 185.88 288.106C184.68 285.184 184.064 282.068 183.308 279.012C181.725 272.48 182.064 265.614 183.486 259.087C184.152 255.737 185.58 252.604 187.335 249.694C190.002 244.966 193.935 241.133 197.906 237.506Z" fill="#0174BD"/>
<path d="M287.737 130.047C288.764 126.869 289.881 123.664 291.831 120.92C290.803 123.403 289.886 125.93 288.981 128.458C288.342 130.341 288.114 132.324 288.042 134.302C288.842 133.891 289.642 133.48 290.447 133.074C294.247 135.457 298.43 137.163 302.185 139.629C301.485 143.195 300.674 146.75 300.496 150.389C300.352 153.333 299.269 156.11 298.841 159.01C298.324 162.437 298.058 165.915 297.141 169.27C296.747 170.559 296.23 171.803 295.608 172.992C295.73 172.036 295.808 171.075 295.897 170.12C290.87 171.542 285.565 171.32 280.493 170.242C280.104 169.431 279.726 168.62 279.343 167.815C278.76 168.559 278.171 169.303 277.621 170.081C278.415 165.693 279.51 161.365 280.654 157.055C280.682 158.66 280.726 160.36 281.521 161.799C282.098 162.876 283.376 163.226 284.481 163.498C286.681 163.954 288.981 164.148 291.208 163.726C292.886 163.398 294.036 161.999 294.997 160.688C296.102 159.11 297.113 157.432 297.769 155.61C298.83 152.75 297.613 149.383 295.264 147.534C293.308 145.995 291.108 144.689 288.709 144.001C287.042 143.467 285.726 144.973 284.543 145.895C284.731 143.834 285.12 141.801 285.731 139.829C286.726 136.635 286.698 133.23 287.737 130.047Z" fill="#01AED8"/>
<path d="M251.219 177.547C252.535 175.542 253.83 173.32 255.952 172.076C257.546 171.437 258.479 173.342 259.518 174.192C258.668 177.225 257.885 180.28 256.901 183.269C255.952 186.196 254.63 189.018 254.202 192.09C253.946 193.601 254.046 195.134 253.996 196.662C253.569 199.017 253.069 201.361 252.535 203.7C252.863 204.156 253.191 204.617 253.519 205.078C252.435 206.078 251.435 207.166 250.341 208.15C250.702 206.827 250.869 205.461 251.063 204.106C251.33 201.884 252.058 199.723 252.124 197.479C251.93 195.557 250.68 193.979 249.986 192.229C249.036 190.213 249.136 187.924 249.241 185.758C249.408 182.947 249.636 179.975 251.219 177.547Z" fill="#01AED8"/>
<path d="M259.684 180.812C260.317 178.49 260.939 176.168 261.589 173.852C262.444 175.379 263.228 177.135 264.855 178.001C266.922 179.24 269.41 178.74 271.666 178.501C270.916 180.467 270.377 182.512 269.871 184.556C267.883 184.473 265.866 184.478 263.922 183.995C262.117 183.578 260.933 182.045 259.684 180.812Z" fill="#01AED8"/>
<path d="M274.356 189.818C276.244 188.413 278.3 187.052 280.75 187.035C280.5 188.541 279.972 190.051 280.138 191.596C280.505 192.201 281.022 192.696 281.533 193.19C283.094 194.507 284.616 195.862 286.038 197.334C287.121 198.373 288.21 199.545 289.693 200C292.148 199.895 293.804 197.728 295.37 196.079C297.659 193.657 298.897 190.535 300.136 187.496C299.858 189.49 299.608 191.535 298.725 193.368C297.331 196.401 294.992 198.834 292.809 201.306C288.815 205.966 284.255 210.105 279.988 214.51C279.75 210.949 279.833 207.344 280.722 203.867C278.922 205 277.1 206.089 275.228 207.088C275.928 205.466 276.628 203.783 277.872 202.483C279.344 200.928 280.988 199.545 282.516 198.039C280.933 198.178 279.355 198.328 277.783 198.473C277.405 197.267 277.139 196.012 276.517 194.906C275.822 193.807 274.789 192.984 273.873 192.09C272.817 192.829 271.762 193.573 270.712 194.318C270.034 194.09 269.362 193.862 268.695 193.64L268.973 193.334C270.578 191.512 272.4 189.901 274.389 188.518C274.384 188.84 274.361 189.49 274.356 189.818Z" fill="#01AED8"/>
<path d="M285.348 211.998C289.998 206.748 295.258 202.026 299.319 196.271C300.474 198.538 301.846 200.693 303.485 202.637C301.052 207.47 297.758 211.786 295.186 216.536C293.497 218.947 292.142 221.563 290.514 224.007C289.953 224.618 289.364 225.213 288.776 225.801C288.631 224.829 288.492 223.857 288.359 222.885C287.315 222.169 286.27 221.458 285.215 220.758C286.67 220.441 288.192 220.274 289.542 219.608C290.386 218.741 290.786 217.386 290.475 216.208C289.187 214.375 287.109 213.32 285.348 211.998Z" fill="#01AED8"/>
<path d="M215.667 225.804C219.061 223.76 222.544 221.815 226.366 220.693C226.888 221.127 227.416 221.56 227.949 221.999C227.283 223.626 226.522 225.271 226.438 227.054C226.338 229.348 226.71 231.637 226.677 233.931C226.705 236.264 226.433 238.725 227.455 240.908C228.577 243.341 230.382 245.363 232.071 247.418C233.26 248.812 234.365 250.29 235.693 251.568C237.47 253.256 239.97 253.845 241.831 255.423C243.236 256.606 244.392 258.05 245.797 259.245C247.391 260.633 249.263 261.644 251.108 262.666C251.952 261.905 252.808 261.15 253.657 260.4C254.241 260.606 254.824 260.817 255.413 261.033C251.602 265.505 246.219 268.132 242.02 272.171C241.259 272.754 240.498 273.699 239.426 273.471C236.826 273.149 234.254 273.704 231.665 273.793C230.216 272.926 229.182 271.543 227.944 270.421C225.499 268.021 222.317 266.488 220.089 263.855C216.906 260.122 215.156 255.473 212.668 251.301C210.19 247.063 208.307 242.358 208.196 237.386C207.918 234.297 209.935 231.725 211.134 229.048C212.09 227.359 214.123 226.804 215.667 225.804Z" fill="#01AED8"/>
<path d="M288.978 128.459C292.305 129.353 295.522 130.625 298.682 132.003C299.827 132.559 301.126 133.114 301.799 134.269C302.376 135.458 302.393 136.825 302.432 138.125C302.371 138.497 302.243 139.252 302.182 139.63C298.427 137.164 294.244 135.458 290.444 133.075C289.639 133.481 288.839 133.892 288.039 134.303C288.111 132.325 288.339 130.342 288.978 128.459Z" fill="#018FC9"/>
<path d="M269.941 142.814C270.452 140.947 271.235 139.169 272.196 137.486C271.696 140.236 271.385 143.013 270.88 145.758C274.502 145.647 278.146 145.996 281.59 147.191C281.101 150.824 279.851 154.279 278.823 157.778L278.534 157.395C277.507 156.101 276.512 154.534 274.813 154.084C272.352 153.373 269.758 153.462 267.225 153.346C267.863 149.774 268.958 146.302 269.941 142.814Z" fill="#018FC9"/>
<path d="M259.938 159.55C261.065 158.367 262.537 157.628 264.009 156.979C263.404 162.911 261.821 168.699 259.515 174.193C258.477 173.343 257.543 171.438 255.949 172.077C253.827 173.321 252.533 175.543 251.216 177.548C249.633 179.976 249.405 182.948 249.239 185.759C249.133 187.925 249.033 190.214 249.983 192.23C250.678 193.98 251.927 195.558 252.122 197.48C252.055 199.724 251.328 201.885 251.061 204.107C249.667 204.307 248.245 204.412 246.922 204.923C245.7 206.578 246.239 208.634 247.306 210.206C246.428 210.689 245.528 211.139 244.628 211.578C244.784 209.117 244.667 206.523 245.706 204.223C246.5 202.385 248.689 202.062 250.361 201.424C250.505 200.84 250.65 200.263 250.794 199.685C249.355 199.629 247.845 199.385 246.472 199.94C244.739 200.662 243.273 201.868 241.801 203.001C242.467 201.44 243.262 199.89 243.467 198.185C243.606 196.491 243.273 194.808 243.162 193.124C243.028 191.119 243.789 189.203 244.467 187.353C246.311 182.731 248.467 178.237 250.9 173.893C253.622 168.949 255.777 163.511 259.938 159.55Z" fill="#018FC9"/>
<path d="M277.618 170.083C278.168 169.305 278.757 168.561 279.34 167.816C279.724 168.622 280.101 169.433 280.49 170.244C285.562 171.322 290.867 171.544 295.894 170.122C295.805 171.077 295.728 172.038 295.605 172.994C295.222 173.732 294.789 174.438 294.361 175.149C290.85 175.799 287.312 176.971 283.707 176.465C280.901 176.082 278.785 173.988 277.107 171.871C277.085 171.216 277.257 170.616 277.618 170.083Z" fill="#018FC9"/>
<path d="M297.739 173.327C298.989 173.116 300.233 172.882 301.477 172.627C304.288 174.599 306.977 176.76 309.976 178.449C311.621 179.326 312.765 180.82 313.72 182.381C312.643 185.126 311.832 187.986 310.432 190.597C308.271 194.702 305.599 198.513 303.483 202.64C301.844 200.696 300.472 198.541 299.317 196.274C301.855 192.708 302.166 187.448 299.539 183.853C298.317 182.115 296.3 181.248 294.806 179.809C294.456 179.16 294.478 178.393 294.4 177.687C295.578 176.288 296.789 174.893 297.739 173.327Z" fill="#018FC9"/>
<path d="M257.605 185.881C258.228 184.164 258.911 182.47 259.683 180.814C260.933 182.048 262.116 183.581 263.921 183.997C265.866 184.481 267.882 184.475 269.871 184.558C269.582 185.753 269.337 186.953 269.11 188.158C269.482 187.775 269.849 187.391 270.215 187.003C270.215 187.914 270.265 188.825 270.321 189.736C269.737 190.302 269.176 190.891 268.615 191.469C266.632 189.73 263.938 189.591 261.472 189.147C259.6 188.975 258.672 187.175 257.605 185.881Z" fill="#018FC9"/>
<path d="M274.385 188.519C278.151 185.953 281.751 182.842 286.256 181.67C287.617 181.737 288.978 181.914 290.333 182.087C289.539 182.786 288.75 183.486 287.917 184.136C286.111 185.469 284.206 186.73 282.778 188.491C281.667 189.791 281.717 191.591 281.529 193.191C281.017 192.696 280.501 192.202 280.134 191.597C279.968 190.052 280.495 188.541 280.745 187.036C278.296 187.053 276.24 188.414 274.352 189.819C274.357 189.491 274.379 188.841 274.385 188.519Z" fill="#018FC9"/>
<path d="M202.544 234.419C205.027 232.113 207.826 229.997 211.132 229.047C209.932 231.724 207.915 234.296 208.193 237.385C208.304 242.356 210.187 247.062 212.665 251.3C215.153 255.472 216.903 260.121 220.086 263.854C222.314 266.487 225.497 268.02 227.941 270.42C229.18 271.542 230.213 272.925 231.663 273.792C234.251 273.703 236.823 273.147 239.423 273.47C235.884 277.503 231.379 280.524 226.802 283.246C224.786 281.385 222.702 279.597 220.775 277.647C218.725 275.581 217.109 273.142 215.187 270.964C213.809 269.387 212.281 267.943 210.97 266.309C209.715 264.776 208.66 263.088 207.276 261.66C206.004 260.31 204.482 259.138 203.605 257.466C202.133 254.666 201.555 251.533 200.933 248.461C200.494 245.956 198.305 244.323 197.389 242.04C198.061 238.618 201.366 236.724 203.455 234.196C203.227 234.252 202.771 234.363 202.544 234.419Z" fill="#018FC9"/>
<path d="M284.539 145.894C285.722 144.972 287.039 143.467 288.705 144C291.105 144.689 293.305 145.994 295.26 147.533C297.61 149.383 298.826 152.749 297.765 155.61C297.11 157.432 296.099 159.109 294.993 160.687C294.032 161.998 292.882 163.398 291.205 163.726C288.977 164.148 286.677 163.953 284.478 163.498C283.372 163.226 282.095 162.876 281.517 161.798C280.723 160.359 280.678 158.66 280.65 157.054C281.672 153.266 282.611 149.344 284.539 145.894ZM287.055 150.405C285.105 151.155 284.183 153.388 283.939 155.332C284.967 156.782 286.872 157.193 288.55 157.31C289.955 157.393 291.766 157.21 292.41 155.727C292.91 154.243 292.366 152.577 291.555 151.31C290.605 149.822 288.533 149.999 287.055 150.405Z" fill="#01AED8"/>
<path d="M266.754 153.332L267.226 153.343C269.759 153.46 272.353 153.371 274.814 154.082C276.514 154.532 277.508 156.098 278.536 157.393C277.669 161.109 276.931 164.847 276.225 168.591C275.731 171.263 274.309 173.608 272.937 175.902C272.47 176.746 272.037 177.613 271.665 178.501C269.409 178.74 266.921 179.24 264.854 178.001C263.227 177.135 262.443 175.38 261.588 173.852C262.999 169.73 264.41 165.581 265.082 161.264C265.537 158.598 266.21 155.976 266.754 153.332ZM266.482 164.853C264.91 166.547 264.732 169.164 265.215 171.33C265.976 172.374 267.409 172.252 268.554 172.347C269.976 172.324 271.659 172.319 272.692 171.169C273.903 169.819 274.553 167.875 274.136 166.081C271.965 164.536 269.026 164.325 266.482 164.853Z" fill="#01AED8"/>
<path d="M270.708 194.317C271.758 193.573 272.814 192.829 273.869 192.09C274.786 192.984 275.819 193.806 276.513 194.906C277.135 196.012 277.402 197.267 277.78 198.472C279.352 198.328 280.929 198.178 282.513 198.039C280.985 199.545 279.341 200.928 277.869 202.483C276.624 203.783 275.924 205.466 275.224 207.088C277.096 206.088 278.918 205 280.718 203.866C279.829 207.344 279.746 210.949 279.985 214.51C277.224 217.37 274.241 220.026 270.742 221.959C270.586 221.253 270.408 220.553 270.231 219.859C269.57 219.937 268.914 220.014 268.259 220.098C268.986 216.337 269.453 212.515 269.525 208.682C269.514 207.249 269.542 205.722 268.814 204.444C268.197 203.327 267.359 202.361 266.575 201.372C267.503 207.027 268.203 213.071 265.964 218.531C264.77 215.354 264.576 211.96 264.298 208.621C263.215 211.154 262.776 213.887 262.67 216.632C262.048 214.793 261.404 212.965 260.709 211.16C259.187 213.621 258.015 216.276 257.054 219.009C255.982 219.037 254.91 219.07 253.838 219.103C253.305 218.359 252.766 217.62 252.238 216.882C251.872 217.398 251.51 217.92 251.155 218.448C250.488 217.881 249.822 217.315 249.161 216.754C248.033 218.648 246.833 220.52 245.306 222.125C244.083 223.536 242.528 224.87 242.15 226.786C241.767 228.897 241.978 231.069 242.311 233.174C242.578 234.574 242.895 236.124 244.034 237.101C245.783 238.574 247.922 239.473 249.927 240.534C249.777 241.69 249.633 242.845 249.488 244.006C249.65 244.178 249.961 244.528 250.122 244.706C251.855 243.906 253.694 242.64 255.693 243.306C259.576 244.44 263.848 243.851 267.414 242.006C270.075 240.623 271.408 237.846 273.219 235.602C273.98 234.602 274.824 233.552 274.93 232.246C275.291 229.125 275.43 225.98 275.697 222.853C274.502 222.914 273.308 222.959 272.125 223.092C276.702 219.615 281.49 216.309 285.346 211.999C287.106 213.321 289.184 214.376 290.473 216.209C290.784 217.387 290.384 218.742 289.539 219.609C288.19 220.276 286.668 220.442 285.212 220.759C286.268 221.459 287.312 222.17 288.356 222.886C288.49 223.858 288.628 224.831 288.773 225.803C289.362 225.214 289.951 224.62 290.512 224.008C289.473 228.158 287.262 231.863 285.568 235.757C284.123 239.068 282.374 242.345 279.624 244.762C274.974 248.745 269.664 251.844 264.726 255.433C258.732 260.21 252.46 264.626 246.439 269.376C245.061 270.448 243.55 271.342 242.017 272.17C246.217 268.131 251.599 265.504 255.41 261.032C254.821 260.815 254.238 260.604 253.655 260.399C252.805 261.149 251.949 261.904 251.105 262.665C249.261 261.643 247.389 260.632 245.794 259.243C244.389 258.049 243.234 256.605 241.828 255.422C239.967 253.844 237.468 253.255 235.69 251.567C234.362 250.289 233.257 248.811 232.068 247.417C230.379 245.362 228.574 243.34 227.452 240.907C226.43 238.724 226.702 236.263 226.674 233.93C226.708 231.635 226.336 229.347 226.435 227.053C226.519 225.269 227.28 223.625 227.946 221.998C227.413 221.559 226.885 221.125 226.363 220.692C229.535 219.753 232.574 218.398 235.34 216.57C238.023 214.782 240.856 213.232 243.822 211.96C244.1 212.171 244.656 212.604 244.933 212.821C247.8 211.149 250.644 209.405 253.127 207.183C256.193 204.411 260.043 202.683 263.054 199.839C265.103 197.934 266.831 195.723 268.692 193.64C269.358 193.862 270.031 194.09 270.708 194.317Z" fill="#01AED8"/>
<path d="M287.056 150.404C288.533 149.999 290.605 149.821 291.555 151.31C292.366 152.576 292.911 154.243 292.411 155.726C291.766 157.209 289.955 157.392 288.55 157.309C286.872 157.193 284.967 156.781 283.939 155.332C284.184 153.387 285.106 151.154 287.056 150.404Z" fill="#01AED8"/>
<path d="M266.48 164.852C269.024 164.324 271.963 164.535 274.135 166.08C274.551 167.874 273.902 169.818 272.691 171.168C271.657 172.318 269.974 172.323 268.552 172.346C267.408 172.251 265.975 172.373 265.214 171.329C264.73 169.163 264.908 166.546 266.48 164.852Z" fill="#01AED8"/>
<path d="M266.576 201.371C267.359 202.36 268.198 203.326 268.814 204.443C269.542 205.721 269.514 207.248 269.525 208.681C269.453 212.514 268.987 216.336 268.259 220.097C268.914 220.013 269.57 219.936 270.231 219.858C270.409 220.552 270.586 221.252 270.742 221.958C269.831 222.902 268.942 223.874 268.07 224.863C269.425 224.285 270.775 223.696 272.125 223.091C273.308 222.958 274.503 222.913 275.697 222.852C275.43 225.979 275.291 229.124 274.93 232.245C274.825 233.551 273.98 234.601 273.219 235.601C271.408 237.845 270.075 240.622 267.415 242.005C263.848 243.85 259.577 244.438 255.694 243.305C253.694 242.639 251.855 243.905 250.122 244.705C249.961 244.527 249.65 244.177 249.489 244.005C249.633 242.844 249.778 241.689 249.928 240.533C247.922 239.472 245.784 238.572 244.034 237.1C242.895 236.123 242.578 234.573 242.312 233.173C241.978 231.068 241.767 228.896 242.151 226.785C242.528 224.868 244.084 223.535 245.306 222.124C246.833 220.519 248.033 218.647 249.161 216.753C249.822 217.314 250.489 217.88 251.155 218.447C251.511 217.919 251.872 217.397 252.238 216.88C252.766 217.619 253.305 218.358 253.838 219.102C254.91 219.069 255.982 219.036 257.055 219.008C258.016 216.275 259.188 213.62 260.71 211.159C261.404 212.964 262.048 214.792 262.671 216.63C262.776 213.886 263.215 211.153 264.298 208.62C264.576 211.959 264.77 215.353 265.965 218.53C268.203 213.07 267.503 207.026 266.576 201.371Z" fill="#01AED8"/>
<path d="M431.378 73.3406C436.348 73.3406 440.618 74.2156 444.188 75.9656C447.828 77.7156 450.663 80.2006 452.693 83.4206C454.723 86.6406 455.738 90.5256 455.738 95.0756C455.738 99.5556 454.723 103.441 452.693 106.731C450.663 109.951 447.828 112.436 444.188 114.186C440.618 115.936 436.348 116.811 431.378 116.811H415.943V142.641H404.708V73.3406H431.378ZM429.593 107.151C434.563 107.151 438.203 106.136 440.513 104.106C442.893 102.006 444.083 98.9956 444.083 95.0756C444.083 91.0856 442.893 88.0756 440.513 86.0456C438.203 83.9456 434.563 82.8956 429.593 82.8956H415.943V107.151H429.593ZM519.288 142.641H507.423L500.808 124.476H471.723L465.108 142.641H453.558L479.703 73.3406H493.143L519.288 142.641ZM474.873 115.341H497.658L486.318 83.0006L474.873 115.341ZM551.335 72.2906C557.565 72.2906 562.955 73.4806 567.505 75.8606C572.055 78.1706 575.905 81.6006 579.055 86.1506L571.495 93.3956C568.835 89.3356 565.825 86.4306 562.465 84.6806C559.175 82.8606 555.255 81.9506 550.705 81.9506C547.345 81.9506 544.58 82.4056 542.41 83.3156C540.24 84.2256 538.63 85.4506 537.58 86.9906C536.6 88.4606 536.11 90.1406 536.11 92.0306C536.11 94.2006 536.845 96.0906 538.315 97.7006C539.855 99.3106 542.69 100.571 546.82 101.481L560.89 104.631C567.61 106.101 572.37 108.341 575.17 111.351C577.97 114.361 579.37 118.176 579.37 122.796C579.37 127.066 578.215 130.776 575.905 133.926C573.595 137.076 570.375 139.491 566.245 141.171C562.185 142.851 557.39 143.691 551.86 143.691C546.96 143.691 542.55 143.061 538.63 141.801C534.71 140.541 531.28 138.826 528.34 136.656C525.4 134.486 522.985 132.001 521.095 129.201L528.865 121.431C530.335 123.881 532.19 126.086 534.43 128.046C536.67 129.936 539.26 131.406 542.2 132.456C545.21 133.506 548.535 134.031 552.175 134.031C555.395 134.031 558.16 133.646 560.47 132.876C562.85 132.106 564.635 130.986 565.825 129.516C567.085 127.976 567.715 126.156 567.715 124.056C567.715 122.026 567.015 120.241 565.615 118.701C564.285 117.161 561.765 115.971 558.055 115.131L542.83 111.666C538.63 110.756 535.165 109.461 532.435 107.781C529.705 106.101 527.675 104.071 526.345 101.691C525.015 99.2406 524.35 96.5106 524.35 93.5006C524.35 89.5806 525.4 86.0456 527.5 82.8956C529.67 79.6756 532.785 77.1206 536.845 75.2306C540.905 73.2706 545.735 72.2906 551.335 72.2906ZM615.553 72.2906C621.783 72.2906 627.173 73.4806 631.723 75.8606C636.273 78.1706 640.123 81.6006 643.273 86.1506L635.713 93.3956C633.053 89.3356 630.043 86.4306 626.683 84.6806C623.393 82.8606 619.473 81.9506 614.923 81.9506C611.563 81.9506 608.798 82.4056 606.628 83.3156C604.458 84.2256 602.848 85.4506 601.798 86.9906C600.818 88.4606 600.328 90.1406 600.328 92.0306C600.328 94.2006 601.063 96.0906 602.533 97.7006C604.073 99.3106 606.908 100.571 611.038 101.481L625.108 104.631C631.828 106.101 636.588 108.341 639.388 111.351C642.188 114.361 643.588 118.176 643.588 122.796C643.588 127.066 642.433 130.776 640.123 133.926C637.813 137.076 634.593 139.491 630.463 141.171C626.403 142.851 621.608 143.691 616.078 143.691C611.178 143.691 606.768 143.061 602.848 141.801C598.928 140.541 595.498 138.826 592.558 136.656C589.618 134.486 587.203 132.001 585.313 129.201L593.083 121.431C594.553 123.881 596.408 126.086 598.648 128.046C600.888 129.936 603.478 131.406 606.418 132.456C609.428 133.506 612.753 134.031 616.393 134.031C619.613 134.031 622.378 133.646 624.688 132.876C627.068 132.106 628.853 130.986 630.043 129.516C631.303 127.976 631.933 126.156 631.933 124.056C631.933 122.026 631.233 120.241 629.833 118.701C628.503 117.161 625.983 115.971 622.273 115.131L607.048 111.666C602.848 110.756 599.383 109.461 596.653 107.781C593.923 106.101 591.893 104.071 590.563 101.691C589.233 99.2406 588.568 96.5106 588.568 93.5006C588.568 89.5806 589.618 86.0456 591.718 82.8956C593.888 79.6756 597.003 77.1206 601.063 75.2306C605.123 73.2706 609.953 72.2906 615.553 72.2906ZM667.381 73.3406V142.641H656.146V73.3406H667.381ZM713.553 72.2906C720.273 72.2906 726.083 73.7256 730.983 76.5956C735.883 79.4656 739.663 83.5606 742.323 88.8806C744.983 94.2006 746.313 100.571 746.313 107.991C746.313 115.411 744.983 121.781 742.323 127.101C739.663 132.421 735.883 136.516 730.983 139.386C726.083 142.256 720.273 143.691 713.553 143.691C706.903 143.691 701.128 142.256 696.228 139.386C691.328 136.516 687.548 132.421 684.888 127.101C682.228 121.781 680.898 115.411 680.898 107.991C680.898 100.571 682.228 94.2006 684.888 88.8806C687.548 83.5606 691.328 79.4656 696.228 76.5956C701.128 73.7256 706.903 72.2906 713.553 72.2906ZM713.553 82.0556C709.213 82.0556 705.468 83.0706 702.318 85.1006C699.238 87.1306 696.858 90.0706 695.178 93.9206C693.498 97.7706 692.658 102.461 692.658 107.991C692.658 113.451 693.498 118.141 695.178 122.061C696.858 125.911 699.238 128.851 702.318 130.881C705.468 132.911 709.213 133.926 713.553 133.926C717.963 133.926 721.708 132.911 724.788 130.881C727.938 128.851 730.353 125.911 732.033 122.061C733.713 118.141 734.553 113.451 734.553 107.991C734.553 102.461 733.713 97.7706 732.033 93.9206C730.353 90.0706 727.938 87.1306 724.788 85.1006C721.708 83.0706 717.963 82.0556 713.553 82.0556ZM816.675 73.3406V142.641H803.34L776.565 98.9606L769.845 86.6756H769.74L770.16 97.9106V142.641H759.87V73.3406H773.1L799.77 116.916L806.595 129.411H806.7L806.28 118.071V73.3406H816.675ZM891.575 142.641H879.71L873.095 124.476H844.01L837.395 142.641H825.845L851.99 73.3406H865.43L891.575 142.641ZM847.16 115.341H869.945L858.605 83.0006L847.16 115.341ZM943.041 73.3406V83.0006H919.31V142.641H908.075V83.0006H884.345V73.3406H943.041ZM953.345 142.641V73.3406H1003.54V83.0006H964.58V102.951H995.03V112.401H964.58V132.981H1005.01V142.641H953.345ZM1105.38 124.266C1103.98 128.466 1101.88 132.036 1099.08 134.976C1096.28 137.846 1092.99 140.016 1089.21 141.486C1085.43 142.956 1081.26 143.691 1076.71 143.691C1070.06 143.691 1064.29 142.256 1059.39 139.386C1054.49 136.516 1050.71 132.421 1048.05 127.101C1045.39 121.781 1044.06 115.411 1044.06 107.991C1044.06 100.571 1045.39 94.2006 1048.05 88.8806C1050.71 83.5606 1054.49 79.4656 1059.39 76.5956C1064.29 73.7256 1070.03 72.2906 1076.61 72.2906C1081.16 72.2906 1085.25 72.9206 1088.89 74.1806C1092.6 75.4406 1095.75 77.3306 1098.34 79.8506C1100.93 82.3706 1102.93 85.5206 1104.33 89.3006L1093.72 94.0256C1092.32 89.8956 1090.29 86.8856 1087.63 84.9956C1084.97 83.0356 1081.51 82.0556 1077.24 82.0556C1072.97 82.0556 1069.22 83.0706 1066 85.1006C1062.78 87.1306 1060.26 90.0706 1058.44 93.9206C1056.69 97.7706 1055.82 102.461 1055.82 107.991C1055.82 113.451 1056.66 118.141 1058.34 122.061C1060.02 125.911 1062.43 128.851 1065.58 130.881C1068.73 132.911 1072.51 133.926 1076.92 133.926C1081.19 133.926 1084.87 132.841 1087.95 130.671C1091.1 128.431 1093.34 125.106 1094.67 120.696L1105.38 124.266ZM1116.57 142.641V73.3406H1166.76V83.0006H1127.81V102.951H1158.26V112.401H1127.81V132.981H1168.23V142.641H1116.57ZM1236.98 73.3406V142.641H1223.64L1196.87 98.9606L1190.15 86.6756H1190.04L1190.46 97.9106V142.641H1180.17V73.3406H1193.4L1220.07 116.916L1226.9 129.411H1227L1226.58 118.071V73.3406H1236.98ZM1305.89 73.3406V83.0006H1282.16V142.641H1270.93V83.0006H1247.2V73.3406H1305.89ZM1316.2 142.641V73.3406H1366.39V83.0006H1327.43V102.951H1357.88V112.401H1327.43V132.981H1367.86V142.641H1316.2ZM1408.05 73.3406C1415.47 73.3406 1421.35 75.1956 1425.69 78.9056C1430.1 82.6156 1432.3 87.6206 1432.3 93.9206C1432.3 100.431 1430.1 105.471 1425.69 109.041C1421.35 112.541 1415.47 114.291 1408.05 114.291L1407 114.921H1390.93V142.641H1379.8V73.3406H1408.05ZM1407.21 105.576C1411.76 105.576 1415.12 104.666 1417.29 102.846C1419.53 100.956 1420.65 98.0856 1420.65 94.2356C1420.65 90.4556 1419.53 87.6206 1417.29 85.7306C1415.12 83.8406 1411.76 82.8956 1407.21 82.8956H1390.93V105.576H1407.21ZM1413.82 107.886L1436.4 142.641H1423.48L1404.16 112.296L1413.82 107.886ZM421.508 248.691C416.818 248.691 412.758 247.921 409.328 246.381C405.968 244.771 403.343 242.566 401.453 239.766C399.633 236.966 398.723 233.676 398.723 229.896C398.723 227.726 399.003 225.661 399.563 223.701C400.193 221.671 401.173 219.746 402.503 217.926C403.903 216.036 405.793 214.321 408.173 212.781C410.553 211.171 413.528 209.771 417.098 208.581L421.193 206.796C423.993 205.186 426.233 203.716 427.913 202.386C429.663 201.056 430.923 199.656 431.693 198.186C432.533 196.716 432.953 195.001 432.953 193.041C432.953 190.731 432.253 188.946 430.853 187.686C429.453 186.426 427.598 185.796 425.288 185.796C422.558 185.796 420.493 186.566 419.093 188.106C417.763 189.576 417.098 191.361 417.098 193.461C417.098 194.721 417.273 195.946 417.623 197.136C418.043 198.326 418.813 199.796 419.933 201.546C421.123 203.296 422.838 205.606 425.078 208.476C427.318 211.276 430.363 214.986 434.213 219.606C437.993 224.156 441.143 227.866 443.663 230.736C446.253 233.536 448.458 235.671 450.278 237.141C452.098 238.541 453.778 239.486 455.318 239.976C456.928 240.396 458.713 240.571 460.673 240.501L458.783 248.691C456.543 248.691 454.443 248.446 452.483 247.956C450.593 247.536 448.528 246.556 446.288 245.016C444.118 243.476 441.528 241.166 438.518 238.086C435.578 235.006 431.938 230.911 427.598 225.801C423.538 221.041 420.143 217.051 417.413 213.831C414.753 210.541 412.653 207.776 411.113 205.536C409.643 203.226 408.593 201.161 407.963 199.341C407.333 197.451 407.018 195.456 407.018 193.356C407.018 190.766 407.683 188.246 409.013 185.796C410.343 183.276 412.338 181.246 414.998 179.706C417.728 178.096 421.263 177.291 425.603 177.291C429.103 177.291 432.078 177.921 434.528 179.181C436.978 180.441 438.868 182.191 440.198 184.431C441.528 186.601 442.193 189.121 442.193 191.991C442.193 194.651 441.703 197.136 440.723 199.446C439.743 201.756 437.993 203.961 435.473 206.061C433.023 208.161 429.523 210.226 424.973 212.256L421.508 213.726C418.288 215.336 415.768 216.876 413.948 218.346C412.128 219.816 410.833 221.391 410.063 223.071C409.293 224.681 408.908 226.641 408.908 228.951C408.908 231.331 409.503 233.396 410.693 235.146C411.953 236.826 413.633 238.121 415.733 239.031C417.833 239.941 420.178 240.396 422.768 240.396C426.478 240.396 429.628 239.766 432.218 238.506C434.808 237.176 437.223 235.356 439.463 233.046L440.933 231.471C442.613 228.811 443.908 225.801 444.818 222.441C445.798 219.081 446.113 215.266 445.763 210.996L454.478 211.521C454.618 216.001 454.023 220.341 452.693 224.541C451.433 228.741 449.473 232.521 446.813 235.881L444.713 238.191C442.193 241.411 439.008 243.966 435.158 245.856C431.308 247.746 426.758 248.691 421.508 248.691ZM555.496 178.341V247.641H544.156V178.341H555.496ZM509.926 178.341V247.641H498.691V178.341H509.926ZM549.826 207.741V217.401H504.361V207.741H549.826ZM601.626 177.291C608.346 177.291 614.156 178.726 619.056 181.596C623.956 184.466 627.736 188.561 630.396 193.881C633.056 199.201 634.386 205.571 634.386 212.991C634.386 220.411 633.056 226.781 630.396 232.101C627.736 237.421 623.956 241.516 619.056 244.386C614.156 247.256 608.346 248.691 601.626 248.691C594.976 248.691 589.201 247.256 584.301 244.386C579.401 241.516 575.621 237.421 572.961 232.101C570.301 226.781 568.971 220.411 568.971 212.991C568.971 205.571 570.301 199.201 572.961 193.881C575.621 188.561 579.401 184.466 584.301 181.596C589.201 178.726 594.976 177.291 601.626 177.291ZM601.626 187.056C597.286 187.056 593.541 188.071 590.391 190.101C587.311 192.131 584.931 195.071 583.251 198.921C581.571 202.771 580.731 207.461 580.731 212.991C580.731 218.451 581.571 223.141 583.251 227.061C584.931 230.911 587.311 233.851 590.391 235.881C593.541 237.911 597.286 238.926 601.626 238.926C606.036 238.926 609.781 237.911 612.861 235.881C616.011 233.851 618.426 230.911 620.106 227.061C621.786 223.141 622.626 218.451 622.626 212.991C622.626 207.461 621.786 202.771 620.106 198.921C618.426 195.071 616.011 192.131 612.861 190.101C609.781 188.071 606.036 187.056 601.626 187.056ZM718.818 178.341V247.641H708.423V207.531L709.263 188.421H709.158L688.053 247.641H678.708L657.603 188.421H657.498L658.338 207.531V247.641H647.943V178.341H664.638L678.603 218.451L683.433 234.936H683.643L688.578 218.451L702.438 178.341H718.818ZM736.258 247.641V178.341H786.448V188.001H747.493V207.951H777.943V217.401H747.493V237.981H787.918V247.641H736.258ZM823.486 177.291C829.716 177.291 835.106 178.481 839.656 180.861C844.206 183.171 848.056 186.601 851.206 191.151L843.646 198.396C840.986 194.336 837.976 191.431 834.616 189.681C831.326 187.861 827.406 186.951 822.856 186.951C819.496 186.951 816.731 187.406 814.561 188.316C812.391 189.226 810.781 190.451 809.731 191.991C808.751 193.461 808.261 195.141 808.261 197.031C808.261 199.201 808.996 201.091 810.466 202.701C812.006 204.311 814.841 205.571 818.971 206.481L833.041 209.631C839.761 211.101 844.521 213.341 847.321 216.351C850.121 219.361 851.521 223.176 851.521 227.796C851.521 232.066 850.366 235.776 848.056 238.926C845.746 242.076 842.526 244.491 838.396 246.171C834.336 247.851 829.541 248.691 824.011 248.691C819.111 248.691 814.701 248.061 810.781 246.801C806.861 245.541 803.431 243.826 800.491 241.656C797.551 239.486 795.136 237.001 793.246 234.201L801.016 226.431C802.486 228.881 804.341 231.086 806.581 233.046C808.821 234.936 811.411 236.406 814.351 237.456C817.361 238.506 820.686 239.031 824.326 239.031C827.546 239.031 830.311 238.646 832.621 237.876C835.001 237.106 836.786 235.986 837.976 234.516C839.236 232.976 839.866 231.156 839.866 229.056C839.866 227.026 839.166 225.241 837.766 223.701C836.436 222.161 833.916 220.971 830.206 220.131L814.981 216.666C810.781 215.756 807.316 214.461 804.586 212.781C801.856 211.101 799.826 209.071 798.496 206.691C797.166 204.241 796.501 201.511 796.501 198.501C796.501 194.581 797.551 191.046 799.651 187.896C801.821 184.676 804.936 182.121 808.996 180.231C813.056 178.271 817.886 177.291 823.486 177.291ZM951.879 178.341V247.641H940.539V178.341H951.879ZM906.309 178.341V247.641H895.074V178.341H906.309ZM946.209 207.741V217.401H900.744V207.741H946.209ZM973.334 233.466C975.714 233.466 977.604 234.166 979.004 235.566C980.474 236.896 981.209 238.716 981.209 241.026C981.209 243.336 980.474 245.191 979.004 246.591C977.604 247.991 975.714 248.691 973.334 248.691C970.884 248.691 968.924 247.991 967.454 246.591C966.054 245.191 965.354 243.336 965.354 241.026C965.354 238.716 966.054 236.896 967.454 235.566C968.924 234.166 970.884 233.466 973.334 233.466ZM1048.95 229.266C1047.55 233.466 1045.45 237.036 1042.65 239.976C1039.85 242.846 1036.56 245.016 1032.78 246.486C1029 247.956 1024.84 248.691 1020.29 248.691C1013.64 248.691 1007.86 247.256 1002.96 244.386C998.064 241.516 994.284 237.421 991.624 232.101C988.964 226.781 987.634 220.411 987.634 212.991C987.634 205.571 988.964 199.201 991.624 193.881C994.284 188.561 998.064 184.466 1002.96 181.596C1007.86 178.726 1013.6 177.291 1020.18 177.291C1024.73 177.291 1028.83 177.921 1032.47 179.181C1036.18 180.441 1039.33 182.331 1041.92 184.851C1044.51 187.371 1046.5 190.521 1047.9 194.301L1037.3 199.026C1035.9 194.896 1033.87 191.886 1031.21 189.996C1028.55 188.036 1025.08 187.056 1020.81 187.056C1016.54 187.056 1012.8 188.071 1009.58 190.101C1006.36 192.131 1003.84 195.071 1002.02 198.921C1000.27 202.771 999.394 207.461 999.394 212.991C999.394 218.451 1000.23 223.141 1001.91 227.061C1003.59 230.911 1006.01 233.851 1009.16 235.881C1012.31 237.911 1016.09 238.926 1020.5 238.926C1024.77 238.926 1028.44 237.841 1031.52 235.671C1034.67 233.431 1036.91 230.106 1038.24 225.696L1048.95 229.266ZM1063.52 233.466C1065.9 233.466 1067.79 234.166 1069.19 235.566C1070.66 236.896 1071.4 238.716 1071.4 241.026C1071.4 243.336 1070.66 245.191 1069.19 246.591C1067.79 247.991 1065.9 248.691 1063.52 248.691C1061.07 248.691 1059.11 247.991 1057.64 246.591C1056.24 245.191 1055.54 243.336 1055.54 241.026C1055.54 238.716 1056.24 236.896 1057.64 235.566C1059.11 234.166 1061.07 233.466 1063.52 233.466ZM1108.82 177.291C1115.05 177.291 1120.44 178.481 1124.99 180.861C1129.54 183.171 1133.39 186.601 1136.54 191.151L1128.98 198.396C1126.32 194.336 1123.31 191.431 1119.95 189.681C1116.66 187.861 1112.74 186.951 1108.19 186.951C1104.83 186.951 1102.06 187.406 1099.89 188.316C1097.72 189.226 1096.11 190.451 1095.06 191.991C1094.08 193.461 1093.59 195.141 1093.59 197.031C1093.59 199.201 1094.33 201.091 1095.8 202.701C1097.34 204.311 1100.17 205.571 1104.3 206.481L1118.37 209.631C1125.09 211.101 1129.85 213.341 1132.65 216.351C1135.45 219.361 1136.85 223.176 1136.85 227.796C1136.85 232.066 1135.7 235.776 1133.39 238.926C1131.08 242.076 1127.86 244.491 1123.73 246.171C1119.67 247.851 1114.87 248.691 1109.34 248.691C1104.44 248.691 1100.03 248.061 1096.11 246.801C1092.19 245.541 1088.76 243.826 1085.82 241.656C1082.88 239.486 1080.47 237.001 1078.58 234.201L1086.35 226.431C1087.82 228.881 1089.67 231.086 1091.91 233.046C1094.15 234.936 1096.74 236.406 1099.68 237.456C1102.69 238.506 1106.02 239.031 1109.66 239.031C1112.88 239.031 1115.64 238.646 1117.95 237.876C1120.33 237.106 1122.12 235.986 1123.31 234.516C1124.57 232.976 1125.2 231.156 1125.2 229.056C1125.2 227.026 1124.5 225.241 1123.1 223.701C1121.77 222.161 1119.25 220.971 1115.54 220.131L1100.31 216.666C1096.11 215.756 1092.65 214.461 1089.92 212.781C1087.19 211.101 1085.16 209.071 1083.83 206.691C1082.5 204.241 1081.83 201.511 1081.83 198.501C1081.83 194.581 1082.88 191.046 1084.98 187.896C1087.15 184.676 1090.27 182.121 1094.33 180.231C1098.39 178.271 1103.22 177.291 1108.82 177.291Z" fill="black"/>
</g>
<defs>
<clipPath id="clip0_5453_35602">
<rect width="1439.73" height="317.281" fill="white" transform="translate(0.689453)"/>
</clipPath>
</defs>
</svg>
