<svg width="288" height="274" viewBox="0 0 288 274" fill="none" xmlns="http://www.w3.org/2000/svg">
<path d="M79.1434 0C86.2885 0.0838488 93.4337 0.150929 100.579 0.335396C100.975 11.5544 100.635 22.7733 101.012 33.9923C110.345 27.9049 119.281 21.3647 128.349 14.9419C133.571 11.3028 138.322 7.0433 144.147 4.12536C146.296 4.30983 147.993 5.63464 149.728 6.65759C189.639 35.468 229.625 64.2114 269.63 92.9212C275.513 97.2478 282.073 100.971 287.107 106.153C285.24 111.116 281.564 115.477 277.247 118.981C271.893 117.086 267.858 113.297 263.466 110.144C224.29 81.5178 184.624 53.4117 145.373 24.8696C129.668 34.1432 115.755 45.5802 100.899 55.8768C86.364 65.8549 72.1114 76.1683 57.7456 86.3475C43.9267 95.8392 30.1831 105.448 16.8731 115.51C14.5542 116.701 12.2165 119.937 9.29435 118.227C5.373 114.772 2.8279 110.345 0 106.203C21.8125 90.6741 43.8512 75.4136 65.5318 59.7507C70.5277 55.7259 78.9926 52.7074 78.4836 45.6473C79.1057 30.4371 77.5032 15.1766 79.1434 0Z" fill="white"/>
<path d="M143.356 123.895C146.957 142.09 144.675 160.704 147.937 178.95C148.804 193.674 149.596 208.414 150.218 223.155C160.719 216.799 171.446 210.544 183.361 206.469C174.689 214.954 165.281 222.886 157.476 232.06C154.686 235.296 152.386 239.103 152.405 243.312C152.16 253.29 153.216 263.251 153.102 273.246C146.693 273.229 140.283 273.246 133.873 273.28C133.288 263.855 134.533 254.447 134.533 245.023C134.797 239.203 130.479 234.474 126.822 230.047C119.96 221.813 111.721 214.636 103.859 207.173C115.699 211.231 126.351 217.419 137.097 223.306C138.002 208.414 139.133 193.523 139.962 178.631C142.017 160.436 141.433 142.106 143.356 123.895Z" fill="white"/>
<path d="M132.196 52.0028C135.608 47.8271 139.152 43.6011 143.79 40.4316C150.256 44.8589 154.725 51.0637 159.381 56.9163C170.749 71.4222 179.063 88.2422 180.854 105.968C181.91 118.998 181.458 132.481 175.99 144.773C170.108 158.038 160.211 169.81 147.938 178.95C144.676 160.704 146.957 142.09 143.356 123.895C141.433 142.107 142.018 160.436 139.963 178.631C123.259 166.322 109.629 149.1 107.612 129.446C106.462 116.784 106.669 103.821 110.289 91.462C114.38 77.1071 122.524 63.9428 132.196 52.0028Z" fill="url(#paint0_linear_5467_34934)"/>
<path d="M36.498 210.428C50.7695 210.495 65.55 209.287 79.237 213.681C95.865 219.064 111.588 228.975 119.242 243.565C123.805 251.295 125.143 260.049 125.614 268.669C114.246 271.453 102.237 272.912 90.5486 270.849C70.1312 268.015 52.4474 254.968 44.0768 238.349C39.3825 229.612 37.6292 219.97 36.498 210.428Z" fill="url(#paint1_linear_5467_34934)"/>
<path d="M219.954 210.914C229.72 209.891 239.561 210.276 249.364 210.478C247.837 221.177 245.594 232.06 239.749 241.636C230.983 255.957 215.618 267.478 197.463 270.882C185.887 273.264 173.973 271.62 162.472 269.775C160.436 254.934 167.148 239.892 179.119 229.578C190.129 219.885 204.382 212.54 219.954 210.914Z" fill="url(#paint2_linear_5467_34934)"/>
<path d="M36.989 117.791C51.0531 120.088 65.7393 122.151 77.9746 129.194C92.774 137.294 104.029 150.425 108.742 165.3C112.569 177.609 110.005 190.438 107.498 202.713C98.2224 202.847 88.6452 202.914 79.8787 199.862C61.422 194.278 47.1506 180.141 40.9858 163.891C34.9718 149.134 36.6873 133.152 36.989 117.791Z" fill="#4CAF50"/>
<path d="M209.716 129.412C222.159 122.536 236.713 118.83 251.381 118.83C251.626 132.732 251.494 146.852 247.968 160.453C242.237 176.669 229.53 191.527 211.658 198.369C201.892 202.964 190.618 202.981 179.872 202.679C177.931 194.059 176.234 185.255 177.309 176.451C179.194 157.417 191.75 139.708 209.716 129.412Z" fill="#4CAF50"/>
<defs>
<linearGradient id="paint0_linear_5467_34934" x1="143.923" y1="28.3951" x2="67.372" y2="101.568" gradientUnits="userSpaceOnUse">
<stop stop-color="#9C27B0"/>
<stop offset="1" stop-color="#2196F3"/>
</linearGradient>
<linearGradient id="paint1_linear_5467_34934" x1="28.3947" y1="205.381" x2="126.767" y2="266.741" gradientUnits="userSpaceOnUse">
<stop stop-color="#9C27B0"/>
<stop offset="1" stop-color="#2196F3"/>
</linearGradient>
<linearGradient id="paint2_linear_5467_34934" x1="259.837" y1="203.436" x2="162.593" y2="269.562" gradientUnits="userSpaceOnUse">
<stop stop-color="#9C27B0"/>
<stop offset="1" stop-color="#2196F3"/>
</linearGradient>
</defs>
</svg>
