<svg width="362" height="318" viewBox="0 0 362 318" fill="none" xmlns="http://www.w3.org/2000/svg">
<path d="M178.976 1.88312C180.12 1.17209 181.242 0.349961 182.57 0C184.481 0.211087 185.997 1.55538 187.547 2.58304C203.018 13.0819 218.783 23.1418 234.309 33.5518C235.747 34.4961 237.175 35.4627 238.536 36.5126C237.608 36.5126 236.681 36.557 235.758 36.6014C236.07 38.7512 236.536 40.8732 237.114 42.9729C238.325 47.3169 238.142 51.8719 238.791 56.3103C238.18 56.7881 237.575 57.2713 236.969 57.7491C238.241 59.0989 239.514 60.4543 240.775 61.8208C239.419 62.7096 238.069 63.604 236.719 64.4928C236.675 65.0427 236.642 65.5871 236.608 66.137C231.426 63.9761 226.304 61.6653 221.032 59.7155C217.327 58.3323 213.811 56.4992 210.145 55.0383C206.067 53.3996 201.968 51.8275 197.996 49.9499C195.424 48.7334 192.791 47.6669 190.13 46.6781C188.092 45.9282 186.092 45.0116 183.942 44.6117C182.109 44.2839 180.27 44.8061 178.537 45.3727C173.16 47.228 167.994 49.6222 162.739 51.7997C156.745 54.0717 150.874 56.6547 144.869 58.8878C139.353 60.5765 134.131 63.0318 128.743 65.0594C129.493 64.2483 130.193 63.3984 130.904 62.5541C129.743 61.482 128.593 60.3988 127.465 59.2878C127.426 57.8435 127.276 56.3992 127.254 54.9494C127.198 52.8329 128.309 50.9276 128.637 48.8723C128.937 47.3113 128.815 45.6726 129.287 44.145C129.97 42.9285 131.065 42.0175 131.937 40.9454C133.453 39.2012 134.325 37.0292 135.248 34.935C132.726 34.4017 130.109 34.3961 127.598 35.0072C129.437 33.424 131.526 32.1742 133.581 30.8965C138.953 27.3469 144.435 23.964 149.89 20.5477C153.223 18.0757 156.912 16.1537 160.3 13.7596C163.272 11.6542 166.744 10.3544 169.588 8.04909C172.516 5.69936 175.871 3.97733 178.976 1.88312Z" fill="#44BA14"/>
<path d="M104.933 48.9834C107.8 47.1614 110.516 45.0394 113.727 43.834C110.055 46.6892 106.627 50.0222 102.295 51.8664C99.095 53.3218 96.3842 55.616 93.2957 57.2769C90.2293 58.9212 87.4352 60.9932 84.6078 63.0152C82.108 64.3595 79.6361 65.776 77.3086 67.4091C74.0256 69.7311 70.4927 71.6642 67.2486 74.0417C63.9101 76.497 60.0605 78.1468 56.7553 80.6576C53.9279 82.7185 51.0282 84.6905 47.9008 86.2737C44.0845 88.2734 40.5738 90.7787 37.0798 93.2784C33.3635 95.9615 29.2084 97.9446 25.3866 100.461C19.9428 104.127 14.3323 107.532 8.76628 111.01C7.89416 111.46 6.99426 111.86 6.10547 112.287C8.57186 110.038 11.5771 108.538 14.299 106.649C23.2591 100.983 32.2414 95.3504 41.1515 89.6066C46.1843 86.0292 51.567 82.9962 56.7775 79.7022C59.9939 77.7635 63.0491 75.5804 66.2098 73.564C74.4367 68.5201 82.4747 63.1762 90.6293 58.0213C95.4676 55.1272 100.189 52.0386 104.933 48.9834Z" fill="#68C91C"/>
<path d="M75.5638 127.275C78.0524 127.286 80.7521 126.93 82.9908 128.275C85.4905 129.613 86.957 132.147 88.3735 134.491C89.9844 137.146 91.1843 140.029 92.0397 143.012C93.0674 146.567 94.445 150.017 95.2449 153.639C96.2893 158.082 96.8003 162.649 98.1613 167.015C99.2501 170.487 100.083 174.053 101.566 177.391C102.327 179.175 103.211 180.941 103.577 182.863C103.661 183.452 103.755 184.046 103.861 184.635C102.766 183.596 101.583 182.152 99.9 182.369C97.628 182.519 95.4172 183.085 93.1841 183.485C93.1674 184.307 93.1507 185.141 93.1674 185.974C92.8119 185.157 92.423 184.368 92.0509 183.568C91.1621 181.635 90.401 179.647 89.4234 177.752C88.1791 175.153 86.9014 172.559 85.9071 169.848C84.635 166.365 84.1517 162.671 83.2519 159.093C82.6908 156.871 82.1964 154.638 81.602 152.428C82.6241 154.622 83.5574 156.855 84.2462 159.177C86.8514 157.649 89.3734 155.977 91.6509 153.988C92.5119 154.366 93.3785 154.755 94.2395 155.144C93.2007 151.661 92.4342 148.106 91.7342 144.54C91.2732 142.206 90.3844 139.979 89.0845 137.99C87.868 136.102 86.8681 134.085 85.7238 132.152C84.7184 130.43 83.1296 128.975 81.1632 128.475C79.4578 128.069 77.6914 128.158 75.9582 128.13C75.7638 128.708 75.5749 129.291 75.3916 129.88C74.7472 131.674 74.7639 133.613 75.1194 135.468C74.7806 134.335 74.3973 133.219 74.1084 132.069C74.014 131.435 73.9251 130.797 73.8418 130.163C74.3306 129.152 74.9639 128.225 75.5638 127.275Z" fill="#44BA14"/>
<path d="M177.369 136.812C179.224 136.079 181.279 135.995 183.24 136.218C185.518 136.451 187.206 138.145 188.851 139.567C190.773 141.356 193.039 143.111 193.767 145.761C194.445 148.344 194.478 151.066 194.183 153.71C193.9 156.221 192.561 158.565 190.617 160.159C188.651 161.731 185.968 162.004 183.985 163.537C183.057 164.637 183.074 166.198 182.979 167.564C182.918 171.364 183.39 175.163 183.19 178.968C183.146 179.218 183.062 179.724 183.018 179.974C182.513 176.608 182.818 173.197 182.674 169.808C182.563 165.914 181.535 162.093 181.64 158.182C181.702 154.149 181.579 150.122 181.168 146.111C180.996 146.111 180.652 146.105 180.485 146.105C180.252 151.621 179.391 157.104 179.48 162.637C179.524 166.17 178.63 169.619 178.474 173.136C178.285 177.191 178.491 181.257 178.274 185.312C178.046 188.312 177.491 191.278 177.18 194.272C174.225 194.028 171.153 193.311 169.058 191.062C171.447 191.923 173.902 192.589 176.347 193.278C176.724 189.939 176.98 186.595 177.408 183.262C178.03 178.924 178.08 174.536 177.974 170.164C177.946 168.103 178.257 165.675 176.847 163.987C175.019 163.126 172.903 163.198 171.058 162.381C170.269 161.581 169.914 160.487 169.503 159.476C168.764 157.404 167.986 155.343 167.492 153.199C166.981 151.027 167.442 148.755 168.247 146.716C169.242 144.195 171.497 142.55 173.241 140.589C174.547 139.267 175.647 137.623 177.369 136.812Z" fill="#44BA14"/>
<path d="M156.694 147.256C157.827 144.467 158.782 141.54 160.649 139.129C160.443 140.745 160.132 142.384 159.266 143.795C157.494 146.728 156.655 150.078 155.455 153.261L155.477 152.716C155.522 150.833 155.994 148.994 156.694 147.256Z" fill="#68C91C"/>
<path d="M66.6984 144.089C69.3037 143.072 72.0089 142.35 74.6142 141.328C75.2419 141.884 75.8696 142.434 76.5029 142.989C76.4917 142.261 76.4695 141.545 76.4362 140.828C78.3471 148.988 81.6467 156.765 83.3632 164.987C84.0909 168.625 85.6241 172.025 86.9128 175.491C86.3851 174.691 85.8185 173.924 85.2685 173.152C83.8909 170.58 82.8133 167.858 81.3301 165.348C78.3915 165.592 75.453 165.948 72.5033 165.964C69.5925 166.031 67.115 164.281 64.3709 163.576C63.471 158.948 62.2378 154.354 62.1934 149.605C63.3266 147.55 64.3098 144.967 66.6984 144.089Z" fill="#44BA14"/>
<path d="M43.4883 171.064C45.5103 174.553 46.8657 178.364 48.5988 181.997C50.0986 186.679 52.815 190.812 54.8259 195.278C57.1645 199.995 59.8975 204.572 63.5638 208.388C64.2582 206.472 65.1192 204.566 65.2803 202.516C65.3469 201.344 64.6914 200.306 64.1526 199.322C62.6361 196.773 60.9696 194.312 59.6142 191.673C59.6531 189.368 59.942 186.99 60.9474 184.896C62.1806 182.447 64.8026 181.286 66.7357 179.502C66.8968 178.236 66.4246 177.008 66.0524 175.825C66.7412 177.042 67.6578 178.186 67.9633 179.586C66.4857 180.963 64.647 181.885 63.1472 183.241C59.6753 186.313 60.1031 191.745 62.4917 195.351C65.1247 199.811 68.791 203.511 72.3628 207.216C75.4847 210.404 78.4843 213.732 81.8118 216.72C84.1504 218.809 86.5945 220.781 89.1331 222.625C92.4772 225.058 96.3323 226.78 99.3487 229.658C101.432 231.652 103.42 233.757 105.776 235.441C103.787 232.33 101.16 229.702 98.4377 227.236C95.7713 224.82 92.605 223.07 89.7331 220.931C87.4 219.209 85.0447 217.515 82.6061 215.943C80.5063 213.404 78.451 210.821 76.1179 208.499C76.9401 208.627 77.7678 208.766 78.5954 208.91C78.8232 205.866 79.2009 202.828 79.0787 199.772C79.0621 198.267 78.3788 196.906 77.7067 195.601C78.5954 194.728 79.5065 193.873 80.423 193.029C80.273 196.023 80.2508 199.084 81.3396 201.928C82.1673 200.206 82.9616 198.422 83.1227 196.5C83.3838 194.317 82.8783 192.151 82.3506 190.051C81.8617 190.884 81.3785 191.723 80.8952 192.562C80.8341 191.151 80.7674 189.751 80.7174 188.346C82.1506 189.046 83.8893 189.496 84.8558 190.862C85.6446 192.518 85.2058 194.417 85.1725 196.178C84.8892 199.306 85.4669 202.411 86.1446 205.449C86.8556 205.144 87.6555 204.944 88.2388 204.405C89.472 202.872 90.083 200.817 91.7773 199.678C93.1771 198.689 94.7047 197.684 95.1769 195.928C96.9101 197.934 98.7376 199.889 100.948 201.378C102.693 202.528 104.143 204.055 105.231 205.838C105.726 205.761 106.215 205.677 106.715 205.605C108.264 207.033 109.742 208.566 111.475 209.782C112.742 210.704 114.325 210.938 115.819 211.277C116.258 211.382 116.702 211.499 117.147 211.615C118.985 212.154 120.846 212.743 122.463 213.793C123.685 214.598 124.385 215.932 125.162 217.126C125.573 216.865 125.985 216.598 126.401 216.343L126.74 216.598C127.979 217.481 129.323 218.209 130.684 218.892C133.961 220.576 137.817 220.92 140.844 223.131C138.944 222.87 137.033 222.759 135.128 222.631C135 224.675 135.656 226.625 136.578 228.425C138.044 231.285 137.061 234.657 135.572 237.296C134.161 239.735 132.762 242.184 131.456 244.684C129.879 247.506 127.39 249.656 125.523 252.272C123.429 255.222 120.435 257.505 117.013 258.666C113.975 259.688 110.747 259.866 107.576 260.121C107.992 261.21 108.403 262.304 108.803 263.404C108.525 263.282 107.959 263.037 107.681 262.915C105.609 261.988 103.981 260.36 102.182 259.027C97.31 255.322 92.2883 251.811 87.1778 248.445C83.7837 246.206 80.5841 243.473 78.601 239.868C75.1069 233.607 72.9516 226.653 68.9076 220.692C66.9301 217.92 65.7913 214.66 63.7749 211.921C60.8363 207.86 58.5144 203.411 56.1369 199.011C54.5926 196.156 52.6872 193.506 51.2707 190.579C49.321 186.64 48.0878 182.397 46.2213 178.425C45.1048 176.053 44.1271 173.609 43.4883 171.064Z" fill="#44BA14"/>
<path d="M103.967 185.045C104.983 187.867 106.228 190.605 107.5 193.327C107.472 191.872 107.444 190.417 107.311 188.967C108.522 193.294 109.983 197.721 109.466 202.282C108.733 200.771 108.061 199.221 107.661 197.582C107.444 196.616 107.216 195.66 106.944 194.71C105.761 191.55 104.545 188.383 103.967 185.045Z" fill="#44BA14"/>
<path d="M61.916 188.184C63.1381 190.894 64.5213 193.577 66.6044 195.749C68.3264 197.527 69.9651 200.216 72.8315 199.821C71.6983 200.454 70.5262 201.01 69.3652 201.588C67.2821 199.316 64.9879 197.149 63.5658 194.377C62.5604 192.461 62.266 190.289 61.916 188.184Z" fill="#68C91C"/>
<path d="M196.663 193.051C202.24 192.396 207.895 192.835 213.45 193.562C216 193.89 218.472 194.629 220.911 195.434L220.472 195.373C218.461 195.09 216.433 195.029 214.411 194.957C213.839 194.923 213.273 194.895 212.706 194.873C212.973 196.979 212.589 199.067 212.478 201.167C213.189 201.967 214.128 202.528 214.995 203.156C213.489 205.916 212.35 209.172 213.289 212.321C213.584 213.338 214.739 213.621 215.545 214.132C215.161 214.543 214.789 214.954 214.422 215.382C213.189 213.949 211.606 212.877 209.74 212.505C209.901 213.454 209.912 214.482 210.395 215.349C211.334 215.849 212.412 215.988 213.456 216.121C212.373 216.971 211.262 217.782 210.14 218.571C209.151 216.971 208.512 215.015 206.984 213.843C205.157 213.266 203.168 213.377 201.402 212.593C199.924 211.938 198.63 210.949 197.308 210.033C198.863 209.099 200.546 208.422 202.168 207.622C203.046 207.155 203.89 206.627 204.74 206.105C202.835 205.472 200.924 206.1 199.208 206.95C193.897 209.127 188.337 210.91 182.609 211.494C182.887 208.483 182.398 204.944 184.554 202.506C183.898 205.161 183.604 207.888 183.454 210.621C185.109 210.355 186.77 210.083 188.386 209.61C189.459 209.266 190.508 208.872 191.592 208.549C192.725 208.311 193.88 208.144 195.03 207.966C195.225 205.055 196.447 202.384 198.252 200.128C196.958 199.873 195.675 199.617 194.386 199.351C195.075 198.778 195.786 198.24 196.497 197.695C198.73 197.678 201.041 197.362 203.218 198.006C203.996 198.789 204.568 199.762 205.185 200.678C205.657 200.678 206.123 200.678 206.601 200.678C206.884 198.367 207.029 196.04 207.057 193.707C203.135 193.429 199.158 193.307 195.291 194.14C193.019 194.668 190.936 195.834 189.114 197.267C187.681 198.517 186.342 199.878 185.12 201.339C187.026 196.679 191.942 194.007 196.663 193.051ZM208.456 194.323C208.451 195.979 209.062 197.484 210.367 198.539C210.978 197.273 211.323 195.906 211.384 194.507C210.406 194.434 209.429 194.373 208.456 194.323Z" fill="#44BA14"/>
<path d="M147.5 202.066C149.738 201.099 150.977 198.311 153.616 198.2C157.387 197.95 161.181 198.3 164.953 197.961C164.959 198.266 164.97 198.878 164.976 199.183C163.77 199.261 162.57 199.339 161.37 199.427C162.481 200.838 163.687 202.183 164.687 203.683C165.575 204.938 165.659 206.521 165.898 207.988C163.126 207.277 160.37 206.516 157.554 205.982C157.604 206.327 157.699 207.01 157.749 207.354C160.27 208.249 162.781 209.193 165.253 210.232C162.176 211.693 159.565 213.954 157.737 216.831C157.043 215.748 156.343 214.67 155.632 213.598C155.016 214.537 154.404 215.487 153.793 216.431C152.594 214.065 150.772 212.087 148.472 210.754C148.2 212.465 147.939 214.181 147.811 215.909C146.828 215.065 145.9 214.154 145.044 213.187C145.489 212.57 145.972 211.97 146.322 211.293C146.916 208.126 145.7 204.966 143.917 202.388C143.706 201.688 143.495 200.988 143.289 200.294C143.778 200.027 144.267 199.761 144.756 199.489C145.628 200.333 146.044 202.216 147.5 202.066Z" fill="#44BA14"/>
<path d="M175.17 199.379C176.258 200.712 177.342 202.106 177.897 203.756C178.803 206.384 178.647 209.211 178.519 211.939C174.198 211.078 169.881 209.917 165.898 207.989C166.709 207.761 167.52 207.539 168.337 207.317C168.887 206.461 169.431 205.606 169.981 204.751C170.07 206.084 170.159 207.411 170.237 208.745C170.753 208.933 171.27 209.122 171.787 209.311C172.625 209.594 173.464 209.872 174.32 210.122C175.636 210.439 176.975 210.644 178.314 210.866C178.264 208.006 177.814 205.139 176.636 202.512C176.242 201.579 175.831 200.651 175.375 199.751L175.17 199.379Z" fill="#68C91C"/>
<path d="M250.945 22.2988L251.356 22.3211C258.061 22.9876 264.899 21.7989 271.509 23.3987C267.432 23.7431 263.338 23.9597 259.261 24.3097C260.372 25.1818 261.733 25.8818 262.444 27.1427C262.91 29.0203 262.577 30.9812 262.933 32.8754C263.538 35.1474 265.877 36.5472 266.36 38.8692C266.343 40.9467 265.227 42.8965 265.499 44.9963C265.932 47.5738 268.015 49.4458 268.81 51.8788C268.81 53.712 267.954 55.4007 267.599 57.1727C266.927 60.0335 267.738 62.9331 268.282 65.7384C267.065 67.1604 265.11 68.5881 265.554 70.7101C265.91 73.1709 266.41 75.6262 266.288 78.1314C265.893 78.1092 265.116 78.0592 264.721 78.037C263.171 77.9148 261.844 77.0205 260.499 76.3316C255.844 73.6431 250.706 72.0043 245.773 69.9324C242.724 68.6547 239.663 67.4049 236.608 66.1383C236.641 65.5884 236.674 65.044 236.719 64.4941C238.069 63.6053 239.419 62.711 240.774 61.8222C239.513 60.4557 238.241 59.1002 236.969 57.7504C237.574 57.2727 238.18 56.7894 238.791 56.3117C238.141 51.8733 238.324 47.3182 237.113 42.9743C236.536 40.8745 236.069 38.7525 235.758 36.6028C236.68 36.5583 237.608 36.5139 238.535 36.5139C242.974 38.4026 246.207 42.3632 250.778 43.9686C251.062 41.6744 251.128 39.3691 251.089 37.0638C251.006 32.1422 251.173 27.2149 250.945 22.2988Z" fill="#44BA14"/>
<path d="M127.597 35.0086C130.108 34.3975 132.724 34.4031 135.246 34.9363C134.324 37.0306 133.452 39.2025 131.935 40.9468C131.063 42.0189 129.969 42.9299 129.286 44.1464C128.814 45.674 128.936 47.3127 128.636 48.8737C128.308 50.929 127.197 52.8343 127.253 54.9508C127.275 56.4006 127.425 57.8449 127.464 59.2892C128.591 60.4001 129.741 61.4834 130.902 62.5555C130.191 63.3998 129.491 64.2497 128.741 65.0607C125.519 66.4828 122.214 67.716 118.998 69.1603C115.121 70.9045 110.899 71.8377 107.21 74.0097C105.25 75.0763 103.216 76.0095 101.122 76.7872C98.2003 77.8648 95.3951 79.2202 92.4343 80.1924C91.8344 78.9147 90.7901 77.6427 90.9789 76.1484C91.4511 73.3265 93.2231 70.8823 93.5731 68.0326C93.5675 65.9384 92.2677 64.1442 91.3789 62.3277C91.7622 61.8722 92.151 61.4167 92.5399 60.9612C89.8568 61.4722 87.1682 62.0444 84.6074 63.0165C87.4349 60.9945 90.229 58.9225 93.2953 57.2783C96.3839 55.6173 99.0947 53.3232 102.294 51.8678C106.627 50.0235 110.055 46.6906 113.726 43.8353C116.298 41.4578 119.57 40.0802 122.398 38.0582C124.064 36.9417 125.658 35.6307 127.597 35.0086Z" fill="#44BA14"/>
<path d="M6.10545 112.289C6.99424 111.862 7.89414 111.462 8.76626 111.012C9.79948 111.456 10.8438 111.889 11.9159 112.239C7.97191 113.545 4.38898 115.956 0.189453 116.4C1.88371 114.672 3.93347 113.334 6.10545 112.289Z" fill="#44BA14"/>
<path d="M192.646 128.508C193.079 124.831 190.857 121.798 189.341 118.676C190.28 119.753 191.174 120.87 191.946 122.081C196.173 128.797 199.823 135.863 203.017 143.123C204.795 146.95 206.039 151 207.05 155.088C208.011 159.016 207.966 163.082 207.961 167.098C207.966 168.454 207.683 169.792 207.233 171.075C206.933 166.754 206.978 162.404 206.261 158.121C204.995 159.227 203.584 160.31 202.928 161.91C202.223 163.565 201.862 165.337 201.439 167.076C199.062 168.62 196.579 169.987 194.09 171.342C191.629 172.647 189.774 174.836 187.291 176.097C186.291 176.658 185.225 177.136 184.358 177.897C183.919 179.263 183.925 180.713 183.891 182.135C183.952 185.968 184.419 189.801 184.141 193.64C184.13 193.851 184.108 194.278 184.091 194.489C183.586 189.329 183.536 184.141 183.191 178.969C183.391 175.164 182.919 171.364 182.98 167.565C183.075 166.198 183.058 164.637 183.986 163.537C185.969 162.004 188.652 161.732 190.618 160.16C192.563 158.566 193.901 156.222 194.185 153.711C194.479 151.067 194.446 148.345 193.768 145.762C193.04 143.112 190.774 141.357 188.852 139.568C187.208 138.146 185.519 136.452 183.241 136.218C181.281 135.996 179.225 136.079 177.37 136.813C175.648 137.624 174.548 139.268 173.243 140.59C171.498 142.551 169.243 144.195 168.249 146.717C167.443 148.756 166.982 151.028 167.493 153.2C167.988 155.344 168.765 157.405 169.504 159.477C169.915 160.488 170.271 161.582 171.059 162.382C172.904 163.199 175.02 163.126 176.848 163.987C178.259 165.676 177.948 168.104 177.975 170.164C177.303 172.575 176.826 175.036 176.67 177.536C174.292 176.064 171.898 174.603 169.343 173.464C167.254 172.503 165.01 171.731 163.277 170.164C161.322 168.392 159.905 166.132 158.511 163.921C157.505 162.26 156.417 160.599 155.911 158.699C155.445 156.927 155.372 155.077 155.456 153.261C156.656 150.078 157.494 146.728 159.266 143.795C160.133 142.384 160.444 140.746 160.65 139.129C160.883 137.124 162.077 135.435 163.066 133.73C165.082 130.458 166.554 126.858 168.926 123.803C169.076 124.897 168.932 126.242 169.904 127.008C171.498 127.147 173.087 126.853 174.659 126.63C177.637 126.147 180.653 125.925 183.664 126.019C186.83 126.081 189.635 127.73 192.646 128.508Z" fill="#44BA14"/>
<path d="M74.1083 132.07C74.3971 133.22 74.7804 134.337 75.1193 135.47C75.6248 137.236 76.0969 139.02 76.4358 140.83C76.4691 141.547 76.4913 142.264 76.5024 142.991C75.8692 142.436 75.2415 141.886 74.6138 141.33C72.0085 142.352 69.3033 143.075 66.698 144.091C64.3094 144.969 63.3261 147.552 62.1929 149.607C61.7597 147.352 61.0597 145.163 60.5042 142.936C60.1265 141.414 59.8265 139.875 59.4599 138.353C59.421 138.181 59.3377 137.836 59.2988 137.659C60.3543 137.942 61.4597 138.581 62.5762 138.192C64.976 137.375 67.2035 136.142 69.5755 135.248C71.3364 134.603 72.9695 133.587 74.1083 132.07Z" fill="#44BA14"/>
<path d="M76.2422 132.002C77.1421 134.129 77.5976 136.407 78.042 138.662C78.6308 142.795 80.4028 146.606 82.6192 150.1C84.4079 149.783 86.391 149.706 87.8687 148.517C89.324 147.367 90.4961 145.912 91.7349 144.539C92.4348 148.106 93.2014 151.661 94.2402 155.144C93.3791 154.755 92.5126 154.366 91.6516 153.988C89.374 155.977 86.8521 157.649 84.2468 159.177C83.558 156.855 82.6248 154.622 81.6027 152.427C80.2084 148.75 78.9474 145.017 77.9087 141.223C77.0643 138.201 76.7977 135.074 76.2422 132.002Z" fill="#44BA14"/>
<path d="M64.3711 163.576C67.1152 164.282 69.5927 166.031 72.5035 165.965C75.4532 165.948 78.3917 165.593 81.3303 165.348C82.8135 167.859 83.8911 170.581 85.2687 173.153C84.0467 172.447 82.7024 171.62 81.2303 171.886C78.8917 172.203 76.6142 173.003 74.2255 172.953C71.6925 172.914 69.1483 172.853 66.6375 173.247C65.2488 170.198 64.7933 166.865 64.3711 163.576Z" fill="#44BA14"/>
<path d="M100.75 168.287C102.322 169.637 103.833 171.142 105.694 172.098C107.027 172.448 108.41 171.987 109.755 171.892C110.41 171.72 110.488 172.737 110.843 173.103C112.599 176.742 114.643 180.291 115.732 184.213C113.987 185.713 114.576 188.152 114.143 190.157C113.715 192.201 112.915 194.151 112.36 196.167C113.51 196.789 114.665 197.412 115.826 198.023C114.187 198.889 112.743 200.084 111.704 201.628C113.476 202.078 115.259 202.483 117.043 202.894C115.715 204.966 114.237 206.938 112.671 208.833C111.449 207.833 110.277 206.766 109.121 205.694C109.249 204.555 109.377 203.422 109.466 202.283C109.982 197.723 108.521 193.295 107.31 188.968C106.572 186.174 105.555 183.458 104.433 180.797C102.872 176.742 101.033 172.676 100.75 168.287Z" fill="#44BA14"/>
<path d="M70.7812 181.805C73.8587 181.899 76.9306 182.41 79.808 183.532C83.8964 185.654 87.4294 188.648 90.8845 191.654C92.3788 193.015 93.8064 194.442 95.1785 195.931C94.7063 197.686 93.1787 198.692 91.7789 199.68C90.0846 200.819 89.4736 202.875 88.2404 204.408C87.6571 204.947 86.8572 205.147 86.1462 205.452C85.4685 202.413 84.8908 199.308 85.1741 196.181C85.2074 194.42 85.6462 192.52 84.8574 190.865C83.8909 189.498 82.1522 189.048 80.719 188.348C80.769 189.754 80.8357 191.154 80.8968 192.565C81.3801 191.726 81.8633 190.887 82.3522 190.054C82.8799 192.154 83.3854 194.32 83.1243 196.503C82.9632 198.425 82.1689 200.208 81.3412 201.93C80.2524 199.086 80.2746 196.025 80.4246 193.031C80.4024 191.787 80.419 190.426 79.6636 189.365C78.2971 187.404 76.4084 185.871 74.4697 184.504C73.2199 183.632 71.9922 182.732 70.7812 181.805Z" fill="#44BA14"/>
<path d="M92.0513 183.57C92.4235 184.37 92.8123 185.159 93.1678 185.976C93.5845 187.787 93.9178 189.614 94.3566 191.419C93.3401 191.081 92.3235 190.736 91.3125 190.397C91.3569 190.192 91.4458 189.781 91.4958 189.575C91.5125 188.198 91.4125 186.82 91.3236 185.448C91.5458 184.815 91.7958 184.192 92.0513 183.57Z" fill="#44BA14"/>
<path d="M117.543 189.148C119.371 192.259 120.143 195.82 121.348 199.186C123.37 204.919 125.192 210.724 126.742 216.601L126.403 216.345C124.414 212.868 123.931 208.824 122.504 205.13C121.437 203.097 119.959 201.219 119.548 198.908C118.926 195.648 118.16 192.415 117.543 189.148Z" fill="#44BA14"/>
<path d="M59.8387 198.14C59.7276 195.984 59.6442 193.829 59.6165 191.674C60.9719 194.312 62.6384 196.773 64.1548 199.323C64.6937 200.306 65.3492 201.345 65.2825 202.517C65.1214 204.567 64.2604 206.472 63.566 208.389C59.8998 204.572 57.1668 199.995 54.8281 195.279C56.4946 196.24 58.1666 197.184 59.8387 198.14Z" fill="#44BA14"/>
<path d="M145.8 194.607C150.938 193.379 156.266 193.302 161.521 193.385C161.093 194.157 160.671 194.935 160.249 195.713C161.798 196.496 163.337 197.307 164.954 197.962C161.182 198.301 157.388 197.951 153.616 198.201C150.977 198.312 149.739 201.101 147.5 202.067C146.045 202.217 145.628 200.334 144.756 199.49C146.511 198.384 147.978 196.912 149.405 195.429C148.205 195.129 147.011 194.835 145.8 194.607Z" fill="#44BA14"/>
<path d="M195.289 194.142C199.155 193.308 203.133 193.431 207.054 193.708C207.027 196.042 206.882 198.369 206.599 200.68C206.121 200.68 205.655 200.68 205.182 200.68C204.566 199.763 203.994 198.791 203.216 198.008C201.038 197.364 198.728 197.68 196.494 197.697C197.461 196.941 198.417 196.169 199.261 195.275C198.244 194.186 196.65 194.269 195.289 194.142Z" fill="#44BA14"/>
<path d="M208.453 194.324C209.425 194.374 210.403 194.435 211.381 194.508C211.32 195.907 210.975 197.274 210.364 198.54C209.059 197.485 208.448 195.98 208.453 194.324Z" fill="#44BA14"/>
<path d="M212.704 194.873C213.271 194.895 213.838 194.923 214.41 194.956C215.615 196.951 217.737 197.939 219.848 198.684C218.487 199.417 217.143 200.161 215.793 200.906C217.465 201.439 219.131 201.978 220.803 202.522C220.459 203.761 220.115 204.994 219.77 206.238C220.509 206.422 221.242 206.611 221.987 206.805C219.97 209.36 217.948 211.921 215.543 214.132C214.737 213.621 213.582 213.338 213.288 212.321C212.349 209.171 213.488 205.916 214.993 203.155C214.126 202.528 213.188 201.967 212.477 201.167C212.588 199.067 212.971 196.978 212.704 194.873Z" fill="#44BA14"/>
<path d="M72.8315 199.823C74.6813 198.701 76.1478 197.079 77.7087 195.602C78.3809 196.907 79.0641 198.268 79.0808 199.773C79.203 202.829 78.8253 205.867 78.5975 208.911C77.7698 208.767 76.9422 208.628 76.12 208.5C73.7703 206.289 71.515 203.99 69.3652 201.59C70.5262 201.012 71.6983 200.457 72.8315 199.823Z" fill="#44BA14"/>
<path d="M164.956 197.963C167.45 198.524 170 198.741 172.511 199.202C172.022 199.724 171.533 200.246 171.05 200.774C172.311 201.612 173.572 202.451 174.855 203.262C174.894 203.568 174.972 204.179 175.01 204.484C173.777 204.418 172.555 204.362 171.327 204.312C171.455 205.979 171.6 207.645 171.789 209.312C171.272 209.123 170.755 208.934 170.239 208.745C170.161 207.412 170.072 206.084 169.983 204.751C169.433 205.606 168.889 206.462 168.339 207.317C167.522 207.54 166.711 207.762 165.9 207.99C165.661 206.523 165.578 204.94 164.689 203.684C163.689 202.185 162.484 200.84 161.373 199.429C162.573 199.341 163.773 199.263 164.978 199.185C164.973 198.879 164.962 198.268 164.956 197.963Z" fill="#44BA14"/>
<path d="M191.74 203.49C192.068 201.829 193.168 200.468 194.385 199.352C195.673 199.618 196.956 199.874 198.251 200.129C196.445 202.385 195.223 205.056 195.029 207.967C193.879 208.145 192.724 208.312 191.59 208.551C191.54 206.862 191.402 205.156 191.74 203.49Z" fill="#44BA14"/>
<path d="M143.917 202.391C145.7 204.968 146.916 208.129 146.322 211.295C145.972 211.973 145.489 212.573 145.044 213.189C143.767 211.69 142.422 210.245 140.973 208.912C141.173 208.784 141.573 208.534 141.767 208.412C141.939 206.24 142.834 204.246 143.917 202.391Z" fill="#44BA14"/>
<path d="M157.739 216.834C159.567 213.956 162.178 211.695 165.255 210.234C167.688 211.39 170.216 212.345 172.61 213.59C171.943 213.634 171.288 213.684 170.632 213.751C170.249 215.462 170.11 217.3 169.193 218.833C168.188 220.111 166.516 218.95 165.261 218.783C164.783 217.65 164.294 216.528 163.8 215.412C161.055 217.972 157.711 219.728 154.212 221.028C152.045 219.367 149.579 218.033 147.812 215.912C147.94 214.184 148.201 212.467 148.474 210.757C150.773 212.09 152.595 214.067 153.795 216.434C154.406 215.489 155.017 214.539 155.634 213.601C156.345 214.673 157.045 215.75 157.739 216.834ZM166.233 216.406C166.199 217.578 167.455 218.028 168.171 218.728C169.127 216.689 168.721 214.484 167.977 212.462C167.205 213.662 166.088 214.873 166.233 216.406Z" fill="#44BA14"/>
<path d="M193.385 211.294C194.685 210.855 195.996 210.444 197.307 210.033C198.629 210.95 199.923 211.939 201.401 212.594C203.167 213.377 205.156 213.266 206.983 213.844C208.511 215.016 209.15 216.971 210.138 218.571C208.766 217.81 207.378 217.032 205.844 216.671C203.361 216.016 200.739 216.049 198.301 215.233C196.334 214.394 194.935 212.694 193.385 211.294Z" fill="#44BA14"/>
<path d="M209.738 212.504C211.605 212.876 213.188 213.948 214.421 215.381C214.177 215.565 213.693 215.931 213.455 216.12C212.41 215.987 211.333 215.848 210.394 215.348C209.91 214.481 209.899 213.454 209.738 212.504Z" fill="#44BA14"/>
<path d="M135.129 222.633C137.034 222.761 138.945 222.872 140.845 223.133C142.367 223.505 143.744 224.288 145.1 225.055C147.927 226.721 150.866 228.21 153.571 230.082C152.466 230.515 151.305 230.854 150.31 231.521C149.394 233.043 149.116 234.843 148.633 236.531C147.905 239.159 147.483 241.858 147.233 244.569C145.533 245.869 144.128 247.53 143.378 249.558C141.967 252.868 139.639 255.646 137.689 258.634C135.984 261.323 132.612 262.123 130.651 264.556C127.991 267.883 124.974 270.933 122.691 274.555C118.83 272.249 115.675 269.005 111.965 266.495C110.426 265.445 108.97 264.267 107.682 262.917C107.959 263.039 108.526 263.284 108.804 263.406C108.404 262.306 107.993 261.212 107.576 260.123C110.748 259.868 113.975 259.69 117.014 258.668C120.436 257.507 123.43 255.224 125.524 252.274C127.391 249.658 129.879 247.508 131.457 244.686C132.762 242.186 134.162 239.736 135.573 237.298C137.062 234.659 138.045 231.287 136.578 228.427C135.656 226.627 135.001 224.677 135.129 222.633Z" fill="#44BA14"/>
<path d="M251.357 22.3204C258.523 22.0204 265.695 22.1982 272.866 22.226C272.822 31.8027 272.855 41.3738 272.833 50.9505C272.855 53.3391 272.633 55.75 272.977 58.1275C273.183 59.4385 274.521 60.0495 275.471 60.7827C279.199 63.1325 282.765 65.7322 286.526 68.0319C289.948 70.1317 293.203 72.4814 296.58 74.6423C298.897 76.1977 301.396 77.5364 303.424 79.4862C303.146 79.4917 302.596 79.4918 302.324 79.4918C303.318 80.6361 304.379 81.7248 305.462 82.7969C304.324 83.8524 303.046 84.8189 302.202 86.141C301.513 87.8186 301.574 89.6795 301.391 91.4571C302.285 92.1792 303.179 92.9069 304.068 93.6457C303.818 93.6735 303.324 93.7235 303.079 93.7513C301.257 93.779 299.63 92.7847 297.997 92.107C294.053 90.1572 289.792 88.9796 285.865 87.0076C283.004 85.6022 280.16 84.1412 277.132 83.1302C272.883 81.7193 268.8 79.8695 264.723 78.0364C265.117 78.0586 265.895 78.1086 266.289 78.1308C266.411 75.6255 265.911 73.1702 265.556 70.7094C265.111 68.5874 267.067 67.1598 268.283 65.7377C267.739 62.9325 266.928 60.0328 267.6 57.172C267.956 55.4 268.811 53.7113 268.811 51.8782C268.017 49.4451 265.934 47.5731 265.5 44.9956C265.228 42.8959 266.345 40.9461 266.361 38.8685C265.878 36.5466 263.539 35.1467 262.934 32.8748C262.578 30.9805 262.912 29.0197 262.445 27.1421C261.734 25.8811 260.373 25.1812 259.262 24.3091C263.339 23.9591 267.433 23.7425 271.511 23.3981C264.9 21.7982 258.062 22.987 251.357 22.3204Z" fill="#24AD0D"/>
<path d="M84.6102 63.0163C87.1711 62.0441 89.8596 61.472 92.5427 60.9609C92.1538 61.4164 91.765 61.8719 91.3817 62.3274C92.2705 64.1439 93.5703 65.9382 93.5759 68.0324C93.2259 70.882 91.4539 73.3262 90.9817 76.1481C90.7929 77.6424 91.8372 78.9145 92.4371 80.1921C89.7541 81.4031 86.9655 82.353 84.1825 83.2973C80.2829 84.8082 76.5278 86.6747 72.606 88.1357C70.6063 88.8578 68.6565 89.9299 66.4789 89.9799C65.7901 90.0021 65.1013 90.0132 64.4125 90.0243C65.4124 88.4967 66.9622 86.9802 66.7178 84.9971C66.49 83.1029 65.6735 80.8476 63.657 80.2532C61.3906 79.5977 58.9853 80.081 56.7578 80.6587C60.063 78.1479 63.9126 76.4981 67.2511 74.0428C70.4952 71.6653 74.0281 69.7322 77.3111 67.4102C79.6386 65.7771 82.1105 64.3606 84.6102 63.0163Z" fill="#24AD0D"/>
<path d="M185.82 113.377C187.115 115.055 188.37 116.782 189.342 118.676C190.859 121.798 193.081 124.831 192.647 128.509C189.637 127.731 186.831 126.081 183.665 126.02C180.654 125.926 177.638 126.148 174.66 126.631C173.088 126.853 171.5 127.148 169.905 127.009C168.933 126.242 169.078 124.898 168.928 123.804C170.911 120.287 173.188 116.932 175.644 113.727C175.699 114.838 175.755 115.949 175.816 117.065C178.91 118.143 182.182 118.487 185.448 118.36C185.659 116.704 185.865 115.043 185.82 113.377Z" fill="#24AD0D"/>
<path d="M71.5728 124.27C72.6616 126.086 73.5226 128.058 73.8448 130.163C73.9281 130.797 74.017 131.435 74.1114 132.069C72.9726 133.585 71.3395 134.602 69.5786 135.246C67.2066 136.14 64.9791 137.374 62.5794 138.19C61.4628 138.579 60.3574 137.94 59.302 137.657C59.3408 137.835 59.4242 138.179 59.463 138.351C58.6187 136.285 58.0188 134.13 57.7188 131.919C57.6021 131.18 57.4799 130.452 57.3633 129.719C58.952 130.147 60.624 130.674 62.2738 130.213C65.2846 129.463 68.1232 128.169 71.0673 127.197C71.2506 126.225 71.4339 125.253 71.5728 124.27Z" fill="#24AD0D"/>
<path d="M89.0862 137.99C90.386 139.979 91.2748 142.206 91.7359 144.54C90.4971 145.912 89.325 147.367 87.8696 148.517C86.392 149.706 84.4089 149.783 82.6202 150.1C80.4038 146.606 78.6318 142.795 78.043 138.662C78.7873 140.334 79.7872 141.873 80.7927 143.395C83.9201 142.229 86.9364 140.618 89.0862 137.99Z" fill="#24AD0D"/>
<path d="M153.695 159.227C153.85 156.961 154.295 154.683 155.478 152.717L155.456 153.261C155.372 155.078 155.444 156.927 155.911 158.699C156.417 160.599 157.505 162.26 158.511 163.921C159.905 166.132 161.322 168.393 163.277 170.165C165.01 171.731 167.254 172.503 169.343 173.464C171.898 174.603 174.292 176.064 176.67 177.536C176.825 175.037 177.303 172.576 177.975 170.165C178.081 174.537 178.031 178.925 177.409 183.263C175.72 181.847 173.648 181.086 171.498 180.73C168.443 180.253 166.021 178.236 163.599 176.486C160.577 174.375 158.2 171.459 155 169.587C154.878 170.998 154.75 172.415 154.722 173.837C152.9 169.187 153.295 164.088 153.695 159.227Z" fill="#24AD0D"/>
<path d="M98.1738 157.365C99.3737 157.776 100.668 158.132 101.59 159.071C105.29 162.62 107.751 167.22 109.756 171.891C108.412 171.986 107.028 172.447 105.695 172.097C103.834 171.141 102.323 169.636 100.751 168.286C100.218 167.825 99.8792 167.181 99.7514 166.498C99.3348 164.62 99.0515 162.709 98.4349 160.881C98.3238 159.709 98.2405 158.537 98.1738 157.365Z" fill="#24AD0D"/>
<path d="M202.927 161.91C203.583 160.31 204.994 159.227 206.26 158.121C206.977 162.404 206.932 166.753 207.232 171.075C206.894 174.564 205.449 177.858 203.666 180.846C203.733 178.724 203.533 176.613 203.311 174.508C201.416 175.73 199.611 177.08 197.717 178.297C195.462 179.741 192.879 180.53 190.473 181.668C189.346 182.135 188.257 182.785 187.035 182.963C185.94 182.935 184.918 182.446 183.891 182.135C183.924 180.713 183.918 179.263 184.357 177.897C185.224 177.136 186.29 176.658 187.29 176.097C189.773 174.836 191.629 172.647 194.089 171.342C196.578 169.986 199.061 168.62 201.439 167.076C201.861 165.337 202.222 163.565 202.927 161.91Z" fill="#24AD0D"/>
<path d="M62.3556 168.654C63.311 169.449 63.9665 170.537 64.322 171.732C64.5053 172.309 64.6998 172.887 64.922 173.454C65.2664 174.259 65.6552 175.042 66.0552 175.826C66.4273 177.009 66.8995 178.237 66.7384 179.503C64.8053 181.286 62.1834 182.447 60.9502 184.897C59.9447 186.991 59.6559 189.369 59.617 191.674C59.6448 193.829 59.7281 195.985 59.8392 198.14C58.1672 197.184 56.4951 196.24 54.8286 195.279C52.8178 190.813 50.1014 186.68 48.6016 181.997C49.9292 184.191 51.4957 186.23 53.0899 188.241C54.4454 186.258 55.6563 184.169 57.2228 182.347C58.806 180.475 61.2612 179.747 63.0777 178.17C63.861 177.481 64.1054 176.365 63.8776 175.376C63.4221 173.12 62.7444 170.915 62.3556 168.654Z" fill="#24AD0D"/>
<path d="M81.2315 171.885C82.7035 171.619 84.0478 172.446 85.2699 173.152C85.8199 173.924 86.3865 174.69 86.9142 175.49C87.0364 175.79 87.2864 176.396 87.4141 176.696C87.4974 176.901 87.6641 177.318 87.7474 177.529C85.0088 177.868 82.2647 178.151 79.515 178.423C79.2984 179.312 79.0817 180.195 78.8651 181.09C76.0932 180.295 73.1268 180.501 70.3771 179.64C69.0273 178.501 68.3996 176.768 67.5386 175.274C67.2164 174.602 66.922 173.924 66.6387 173.246C69.1495 172.852 71.6937 172.913 74.2267 172.952C76.6153 173.002 78.8929 172.202 81.2315 171.885Z" fill="#24AD0D"/>
<path d="M93.1857 183.486C95.4188 183.086 97.6296 182.519 99.9016 182.369C101.585 182.153 102.768 183.597 103.862 184.636L103.968 185.047C104.546 188.385 105.762 191.552 106.945 194.713C105.279 194.029 103.59 193.407 101.896 192.813C100.729 194.607 100.068 196.69 100.463 198.84C98.2184 196.557 95.9298 194.235 94.3578 191.418C93.9189 189.613 93.5856 187.786 93.169 185.975C93.1523 185.141 93.169 184.308 93.1857 183.486Z" fill="#24AD0D"/>
<path d="M115.732 184.214C115.632 184.325 115.832 184.097 115.732 184.214C116.607 186.075 117.023 187.325 117.543 189.147C118.16 192.413 118.927 195.646 119.549 198.907C119.96 201.218 121.437 203.095 122.504 205.128C120.271 206.867 118.177 208.917 117.149 211.616C116.705 211.5 116.26 211.383 115.821 211.278C114.733 210.505 113.699 209.672 112.672 208.833C114.238 206.939 115.716 204.967 117.043 202.895C115.26 202.484 113.477 202.079 111.705 201.629C112.744 200.084 114.188 198.89 115.827 198.024C114.666 197.412 113.51 196.79 112.361 196.168C112.916 194.152 113.716 192.202 114.144 190.158C114.577 188.152 113.988 185.714 115.732 184.214Z" fill="#24AD0D"/>
<path d="M160.25 195.712C160.672 194.935 161.094 194.157 161.522 193.385C164.516 193.701 167.433 194.49 170.304 195.373C172.293 196.14 174.026 197.579 175.171 199.379L175.376 199.751C174.421 199.556 173.465 199.373 172.51 199.201C169.999 198.74 167.449 198.523 164.955 197.962C163.339 197.307 161.8 196.496 160.25 195.712Z" fill="#24AD0D"/>
<path d="M189.114 197.268C190.936 195.835 193.02 194.668 195.291 194.141C196.652 194.268 198.247 194.185 199.263 195.274C198.419 196.168 197.463 196.94 196.497 197.696C195.786 198.24 195.075 198.779 194.386 199.351C193.17 200.468 192.07 201.829 191.742 203.49C191.403 205.156 191.542 206.861 191.592 208.55C190.509 208.872 189.459 209.267 188.387 209.611C188.803 207.322 188.981 205.001 189.437 202.723C189.731 201.018 190.914 199.696 191.931 198.373C190.986 198.007 190.048 197.635 189.114 197.268Z" fill="#24AD0D"/>
<path d="M139.347 196.022C141.491 195.516 143.641 195.033 145.801 194.605C147.012 194.833 148.207 195.128 149.407 195.428C147.979 196.911 146.512 198.383 144.757 199.488C144.268 199.76 143.779 200.027 143.291 200.294C143.496 200.988 143.707 201.688 143.918 202.388C142.835 204.243 141.941 206.237 141.769 208.409C141.574 208.532 141.174 208.782 140.974 208.909C139.952 207.765 138.98 206.582 138.141 205.299C136.869 203.021 134.753 200.971 134.553 198.266C135.819 196.95 137.63 196.444 139.347 196.022Z" fill="#24AD0D"/>
<path d="M214.41 194.955C216.432 195.027 218.46 195.088 220.471 195.372C221.743 195.577 222.97 196.016 224.176 196.477C222.681 196.449 221.193 196.522 219.704 196.56C222.259 197.733 224.253 199.76 225.52 202.254C224.492 203.882 223.337 205.432 221.987 206.804C221.243 206.609 220.509 206.42 219.771 206.237C220.115 204.993 220.459 203.76 220.804 202.521C219.132 201.977 217.465 201.438 215.793 200.904C217.143 200.16 218.487 199.416 219.848 198.682C217.738 197.938 215.616 196.949 214.41 194.955Z" fill="#24AD0D"/>
<path d="M107.662 197.584C108.062 199.223 108.734 200.773 109.467 202.283C109.379 203.422 109.251 204.555 109.123 205.694C107.595 204.272 105.957 202.978 104.24 201.8C105.218 201.406 106.234 201.061 107.112 200.467C107.44 199.534 107.557 198.551 107.662 197.584Z" fill="#24AD0D"/>
<path d="M176.637 202.51C177.814 205.137 178.264 208.004 178.314 210.864C176.976 210.642 175.637 210.437 174.32 210.12C175.115 208.342 175.326 206.393 175.009 204.482C174.97 204.176 174.892 203.565 174.854 203.26C175.448 203.01 176.042 202.76 176.637 202.51Z" fill="#24AD0D"/>
<path d="M184.609 215.542C187.442 213.932 190.559 212.909 193.386 211.293C194.936 212.693 196.336 214.393 198.302 215.231C200.741 216.048 203.363 216.015 205.846 216.67C207.379 217.031 208.768 217.809 210.14 218.57C207.523 221.153 204.052 222.686 200.396 222.969C200.908 222.197 201.43 221.436 201.957 220.681C199.63 219.825 197.413 218.426 194.908 218.203C192.975 218.537 191.475 219.97 189.909 221.042C188.837 220.242 187.826 219.375 186.881 218.437C188.787 218.142 190.659 217.659 192.514 217.137C192.414 216.415 192.309 215.698 192.214 214.981C189.67 215.059 187.131 215.226 184.609 215.542Z" fill="#24AD0D"/>
<path d="M166.233 216.403C166.089 214.87 167.206 213.659 167.978 212.459C168.722 214.481 169.128 216.686 168.172 218.725C167.456 218.025 166.2 217.575 166.233 216.403Z" fill="#24AD0D"/>
<path d="M154.211 221.026C157.711 219.726 161.055 217.971 163.799 215.41C164.293 216.527 164.782 217.649 165.26 218.782C163.077 218.177 160.91 219.365 159.505 220.976C159.794 221.676 160.182 222.332 160.555 222.998C158.383 222.532 156.244 221.909 154.211 221.026Z" fill="#24AD0D"/>
<path d="M150.312 231.519C151.307 230.852 152.468 230.513 153.573 230.08C159.373 233.874 165.189 237.835 169.766 243.101C171.399 245.012 173.388 246.85 174.076 249.35C174.143 249.717 174.271 250.444 174.332 250.806C173.388 249.889 172.51 248.9 171.449 248.123C170.599 247.434 169.288 247.9 168.733 248.739C167.638 250.344 167.194 252.272 166.455 254.055C165.322 257.049 162.922 259.377 161.939 262.443C161.256 264.193 160.995 266.176 159.8 267.681C157.484 269.903 154.112 270.698 151.979 273.153C150.007 275.497 148.746 278.364 146.607 280.58C144.952 282.458 142.763 283.713 140.569 284.857C141.308 286.474 141.98 288.118 142.63 289.773C140.936 288.485 139.397 287.013 137.831 285.574C135.875 283.78 133.598 282.396 131.437 280.874C128.498 278.791 125.537 276.753 122.693 274.553C124.976 270.931 127.993 267.881 130.654 264.554C132.614 262.121 135.986 261.321 137.692 258.632C139.641 255.644 141.969 252.866 143.38 249.556C144.13 247.528 145.535 245.867 147.235 244.567C147.485 241.857 147.907 239.157 148.635 236.529C149.118 234.841 149.396 233.041 150.312 231.519Z" fill="#24AD0D"/>
<path d="M160.684 307.966C161.667 306.882 162.95 306.155 164.266 305.555C162.05 309.438 158.456 312.209 155.062 314.998C153.94 315.937 152.64 316.62 151.346 317.281C151.418 314.77 151.535 312.265 151.64 309.76C151.89 311.365 152.134 312.982 152.607 314.543C155.945 313.276 158.273 310.46 160.684 307.966Z" fill="#24AD0D"/>
<path d="M152.622 60.06C160.705 59.96 168.787 60.0489 176.875 59.9434C177.081 65.826 176.908 71.7198 176.836 77.6025C173.914 77.8247 170.987 77.858 168.059 77.808C162.854 77.7302 157.644 77.958 152.45 77.6247C152.295 71.7754 152.028 65.8927 152.622 60.06Z" fill="#BCBDBC"/>
<path d="M184.669 60.3544C192.796 59.7212 200.951 60.0267 209.089 59.96C209.266 65.8538 209.255 71.7532 209.116 77.6469C206.172 77.8247 203.223 77.8469 200.278 77.8025C195.068 77.7303 189.857 77.9525 184.652 77.658C184.447 71.892 184.43 66.1149 184.669 60.3544Z" fill="#BCBDBC"/>
<path d="M152.119 83.7852C157.052 83.3241 162.007 83.5963 166.95 83.5352C170.239 83.4908 173.533 83.463 176.816 83.713C176.905 89.5845 176.944 95.4616 176.844 101.333C168.6 101.405 160.357 101.433 152.113 101.333C152.152 95.4839 152.141 89.6345 152.119 83.7852Z" fill="#BCBDBC"/>
<path d="M184.33 83.7581C187.785 83.4526 191.257 83.5026 194.723 83.547C199.517 83.6137 204.316 83.4415 209.105 83.7081C209.266 89.5963 209.288 95.4845 209.099 101.373C200.839 101.345 192.579 101.323 184.324 101.356C184.374 95.4901 184.363 89.6241 184.33 83.7581Z" fill="#BCBDBC"/>
<path d="M302.324 79.4919C302.596 79.4919 303.146 79.4919 303.424 79.4863C304.263 79.6196 304.979 80.1196 305.707 80.5418C309.423 82.9193 313.012 85.4857 316.728 87.8632C319.505 89.6907 322.138 91.7294 325.01 93.4181C330.298 96.6011 335.209 100.362 340.497 103.545C346.024 107.039 351.285 110.933 356.851 114.371C358.634 115.477 360.328 116.738 361.917 118.115C358.412 117.271 355.196 115.61 351.852 114.332C341.147 109.833 330.41 105.422 319.683 100.989C315.3 99.4452 311.123 97.3954 306.834 95.6179C305.596 95.0013 303.818 95.0735 303.079 93.7514C303.324 93.7236 303.818 93.6736 304.068 93.6458C303.179 92.907 302.285 92.1794 301.391 91.4572C301.574 89.6796 301.513 87.8187 302.202 86.1411C303.046 84.8191 304.324 83.8525 305.462 82.7971C304.379 81.725 303.318 80.6362 302.324 79.4919Z" fill="#06A107"/>
<path d="M56.7566 80.6577C58.9842 80.08 61.3894 79.5967 63.6558 80.2522C65.6723 80.8466 66.4889 83.1019 66.7166 84.9961C66.961 86.9792 65.4112 88.4957 64.4113 90.0233C65.1001 90.0122 65.7889 90.0011 66.4778 89.9789C66.3167 90.2178 65.9834 90.6955 65.8167 90.9344C62.7837 91.7343 59.9729 93.123 57.0899 94.3173C50.3296 96.717 43.8136 99.7334 37.07 102.166C30.143 105.149 22.9826 107.555 16.0779 110.593C14.7058 111.177 13.356 111.832 11.9172 112.238C10.8451 111.888 9.8008 111.454 8.76758 111.01C14.3336 107.532 19.9441 104.127 25.3879 100.461C29.2097 97.9447 33.3648 95.9616 37.0811 93.2785C40.5751 90.7788 44.0858 88.2735 47.9021 86.2738C51.0295 84.6906 53.9292 82.7186 56.7566 80.6577Z" fill="#06A107"/>
<path d="M180.681 106.994C182.87 108.688 184.375 111.055 185.819 113.377C185.864 115.043 185.658 116.704 185.447 118.36C182.181 118.487 178.909 118.143 175.815 117.065C175.754 115.949 175.698 114.838 175.643 113.727C177.298 111.46 178.976 109.222 180.681 106.994Z" fill="#06A107"/>
<path d="M54.1614 115.416C56.9333 115.16 59.7385 114.916 62.5104 115.321C67.0766 115.916 70.4095 120.049 71.5705 124.27C71.4316 125.253 71.2483 126.226 71.065 127.198C68.1209 128.17 65.2823 129.464 62.2716 130.214C60.6217 130.675 58.9497 130.147 57.361 129.72C57.4777 130.453 57.5999 131.181 57.7165 131.919C56.5111 128.948 55.4612 125.915 54.5224 122.848C53.767 120.437 53.8892 117.888 54.1614 115.416Z" fill="#06A107"/>
<path d="M75.9611 128.131C77.6943 128.159 79.4607 128.07 81.1661 128.475C83.1326 128.975 84.7213 130.431 85.7267 132.153C86.871 134.086 87.8709 136.102 89.0874 137.991C86.9377 140.618 83.9214 142.229 80.7939 143.396C79.7885 141.874 78.7886 140.335 78.0442 138.663C77.5998 136.408 77.1443 134.13 76.2444 132.003C75.9723 131.286 75.6889 130.581 75.3945 129.881C75.5778 129.292 75.7667 128.709 75.9611 128.131Z" fill="#06A107"/>
<path d="M26.543 140.408C31.3813 138.463 37.3029 138.163 41.8079 141.113C46.6296 144.14 50.6736 148.512 53.1011 153.684C55.5619 159.055 60.9613 162.738 62.3556 168.654C62.7445 170.915 63.4221 173.12 63.8777 175.376C64.1054 176.365 63.861 177.481 63.0777 178.17C61.2613 179.748 58.806 180.475 57.2228 182.347C55.6564 184.169 54.4454 186.258 53.09 188.241C51.4957 186.23 49.9292 184.191 48.6016 181.997C46.8685 178.364 45.5131 174.554 43.4911 171.065C41.7579 167.943 40.4914 164.588 38.5972 161.555C35.5531 156.056 31.2036 151.434 27.9872 146.046C26.9151 144.363 26.6541 142.357 26.543 140.408Z" fill="#06A107"/>
<path d="M155.002 169.588C158.202 171.46 160.58 174.376 163.601 176.487C166.023 178.237 168.445 180.253 171.501 180.731C173.65 181.087 175.722 181.848 177.411 183.264C176.983 186.597 176.728 189.941 176.35 193.28C173.906 192.591 171.451 191.924 169.062 191.063C163.635 188.491 159.163 183.964 156.491 178.604C155.702 177.098 154.869 175.554 154.725 173.837C154.752 172.415 154.88 170.999 155.002 169.588Z" fill="#06A107"/>
<path d="M197.719 178.296C199.613 177.08 201.418 175.73 203.313 174.508C203.535 176.613 203.735 178.724 203.668 180.846C199.852 186.768 193.886 191.15 187.303 193.556C186.281 193.928 185.187 193.711 184.143 193.639C184.42 189.801 183.954 185.968 183.893 182.135C184.92 182.446 185.942 182.935 187.037 182.962C188.259 182.785 189.348 182.135 190.475 181.668C192.88 180.529 195.464 179.741 197.719 178.296Z" fill="#06A107"/>
<path d="M79.5152 178.426C82.2649 178.153 85.009 177.87 87.7476 177.531C88.8086 180.225 90.2306 182.764 91.3249 185.447C91.4138 186.819 91.5138 188.197 91.4971 189.574C87.4087 186.575 83.3592 183.464 78.8652 181.092C79.0819 180.198 79.2985 179.314 79.5152 178.426Z" fill="#06A107"/>
<path d="M100.462 198.84C100.068 196.69 100.729 194.607 101.895 192.812C103.59 193.407 105.278 194.029 106.945 194.712C107.217 195.662 107.445 196.618 107.661 197.584C107.556 198.551 107.439 199.534 107.111 200.467C106.234 201.062 105.217 201.406 104.239 201.8C102.94 200.867 101.662 199.901 100.462 198.84Z" fill="#06A107"/>
<path d="M219.705 196.562C221.194 196.523 222.683 196.451 224.177 196.479C225.504 196.629 226.782 197.023 228.071 197.362C227.704 199.212 226.738 200.839 225.521 202.256C224.255 199.762 222.26 197.734 219.705 196.562Z" fill="#06A107"/>
<path d="M185.12 201.339C186.342 199.878 187.68 198.517 189.114 197.268C190.047 197.634 190.986 198.006 191.93 198.373C190.913 199.695 189.73 201.017 189.436 202.723C188.98 205 188.803 207.322 188.386 209.611C186.769 210.083 185.108 210.355 183.453 210.622C183.603 207.889 183.898 205.161 184.553 202.506C184.692 202.211 184.981 201.628 185.12 201.339Z" fill="#06A107"/>
<path d="M172.51 199.201C173.465 199.373 174.421 199.557 175.376 199.751C175.832 200.651 176.243 201.579 176.637 202.512C176.043 202.762 175.448 203.012 174.854 203.262C173.571 202.451 172.31 201.612 171.049 200.773C171.532 200.245 172.021 199.723 172.51 199.201Z" fill="#06A107"/>
<path d="M171.328 204.311C172.556 204.361 173.778 204.416 175.011 204.483C175.328 206.394 175.117 208.343 174.322 210.121C173.467 209.871 172.628 209.593 171.789 209.31C171.6 207.644 171.456 205.977 171.328 204.311Z" fill="#06A107"/>
<path d="M117.15 211.615C118.178 208.915 120.272 206.866 122.505 205.127C123.933 208.821 124.416 212.865 126.405 216.342C125.988 216.598 125.577 216.865 125.166 217.126C124.388 215.931 123.689 214.598 122.466 213.793C120.85 212.743 118.989 212.154 117.15 211.615Z" fill="#06A107"/>
<path d="M170.632 213.749C171.288 213.682 171.943 213.632 172.61 213.588C174.076 213.593 175.493 214.26 176.632 215.16C176.976 216.049 176.171 216.771 175.698 217.432C174.132 219.215 172.266 220.77 170.138 221.843C167.166 223.32 163.755 222.831 160.556 222.998C160.184 222.331 159.795 221.676 159.506 220.976C160.911 219.365 163.078 218.176 165.261 218.782C166.516 218.948 168.188 220.109 169.194 218.832C170.11 217.299 170.249 215.46 170.632 213.749Z" fill="#06A107"/>
<path d="M184.607 215.543C187.129 215.227 189.668 215.06 192.212 214.982C192.307 215.699 192.412 216.416 192.512 217.138C190.657 217.66 188.785 218.143 186.879 218.438C185.668 217.904 185.13 216.66 184.607 215.543Z" fill="#06A107"/>
<path d="M194.908 218.205C197.413 218.427 199.629 219.827 201.957 220.683C201.429 221.438 200.907 222.199 200.396 222.971C198.313 222.927 196.219 223.016 194.147 222.771C192.591 222.61 191.247 221.76 189.908 221.044C191.475 219.972 192.975 218.538 194.908 218.205Z" fill="#06A107"/>
<path d="M168.734 248.738C169.289 247.9 170.6 247.433 171.45 248.122C172.511 248.899 173.389 249.888 174.333 250.805C174.272 250.444 174.144 249.716 174.078 249.349C176.005 251.566 176.888 254.415 177.872 257.126C179.427 261.542 179.477 266.292 179.455 270.925C179.549 276.919 178.222 282.879 176.039 288.445C173.555 293.967 170.345 299.16 166.528 303.865C165.94 304.627 165.129 305.154 164.268 305.554C162.951 306.154 161.668 306.882 160.685 307.965C158.274 310.459 155.946 313.276 152.608 314.542C152.136 312.981 151.891 311.365 151.641 309.759C151.536 312.265 151.419 314.77 151.347 317.281C150.941 313.592 151.002 309.826 149.969 306.237C149.142 303.321 147.997 300.51 146.847 297.711C145.736 294.911 143.703 292.595 142.631 289.773C141.981 288.117 141.309 286.473 140.57 284.857C142.765 283.712 144.953 282.457 146.609 280.579C148.747 278.363 150.008 275.496 151.98 273.152C154.113 270.697 157.485 269.903 159.801 267.681C160.996 266.175 161.257 264.192 161.94 262.442C162.923 259.376 165.323 257.049 166.456 254.054C167.195 252.271 167.639 250.344 168.734 248.738Z" fill="#06A107"/>
<path d="M241.358 93.5996C243.675 97.0214 244.763 101.238 244.441 105.354C244.302 107.765 243.68 110.164 244.008 112.592C244.241 114.292 244.752 115.942 245.208 117.591C244.252 116.225 243.375 114.731 243.141 113.047C242.73 110.092 243.375 107.137 243.414 104.176C243.458 102.304 243.186 100.443 242.88 98.599C241.925 103.265 242.519 108.698 239.27 112.575C240.092 109.62 240.842 106.637 241.403 103.615C242.119 100.282 240.764 96.9437 241.358 93.5996Z" fill="#714674"/>
<path d="M117.833 98.3432C118.15 96.9044 119.072 95.7268 119.905 94.5547C120.261 99.3264 119.15 104.248 120.738 108.886C121.205 110.497 122.438 111.692 123.616 112.819C123.844 109.081 123.699 105.342 123.855 101.604C124.127 101.648 124.682 101.737 124.96 101.787C125.527 103.965 126.004 106.176 126.721 108.314C127.638 111.081 129.287 113.514 130.854 115.936C132.354 118.085 133.665 120.691 136.342 121.546C135.342 117.719 132.476 114.725 131.42 110.931C131.376 110.508 131.293 109.659 131.254 109.236C131.87 109.62 132.493 110.008 133.092 110.431C134.303 111.98 135.187 113.775 136.537 115.225C138.964 117.885 141.819 120.246 145.174 121.635C147.213 122.535 149.468 123.051 151.252 124.451C153.518 126.268 155.396 128.506 157.151 130.806C158.251 132.25 159.628 133.473 160.634 134.995C160.445 136.894 159.106 138.4 158.179 139.988C154.062 146.043 152.785 153.437 151.729 160.536C150.929 165.836 151.346 171.196 151.14 176.529C148.846 174.423 146.585 171.979 143.464 171.179C140.608 170.496 137.631 170.557 134.715 170.713C129.004 171.279 123.255 172.196 117.505 171.624C115.072 171.357 113.578 168.763 113.717 166.474C113.845 164.036 114.717 161.719 115.111 159.325C113.306 158.464 111.228 157.914 109.812 156.431C108.495 154.715 109.601 152.487 109.356 150.543C108.634 148.704 106.879 147.377 106.495 145.399C106.995 143.516 109.278 142.433 109.373 140.422C108.729 136.628 104.107 135.683 102.679 132.345C102.335 131.534 102.324 130.456 103.018 129.817C107.195 125.851 112.65 123.074 115.661 117.985C117.189 115.58 117.889 112.692 117.644 109.853C117.378 106.026 116.944 102.121 117.833 98.3432Z" fill="#714674"/>
<path d="M242.879 98.6016C243.184 100.446 243.457 102.307 243.412 104.179C243.373 107.139 242.729 110.095 243.14 113.05C243.373 114.733 244.251 116.227 245.206 117.594C247.206 120.216 249.284 122.843 251.956 124.821C254.022 126.471 256.344 127.832 258.177 129.759C259.21 130.659 258.955 132.287 258.222 133.298C256.866 135.12 254.694 136.064 253.133 137.681C252.2 138.614 251.767 140.036 252.067 141.33C252.822 142.813 254.083 143.963 254.872 145.43C254.578 147.224 252.95 148.49 251.911 149.912C252.083 151.812 252.494 153.745 252.144 155.645C251.056 158.095 247.312 157.55 246.245 159.917C246.462 162.317 247.828 164.544 247.595 166.994C247.323 168.655 246.501 170.382 245.006 171.26C243.701 171.821 242.234 171.76 240.846 171.793C236.696 171.716 232.519 171.516 228.475 170.527C225.364 169.794 222.137 170.205 219.043 170.805C215.626 171.377 213.26 174.104 210.521 175.965C210.405 170.155 210.644 164.316 209.788 158.545C209.338 153.851 207.616 149.429 206.211 144.969C205.222 141.769 202.906 139.247 201.528 136.236C200.706 134.953 202.017 133.775 202.711 132.798C205.105 130.015 207.266 126.965 210.266 124.793C212.582 123.038 215.482 122.382 217.948 120.899C220.687 119.283 223.298 117.338 225.225 114.783C226.197 113.539 226.981 112.15 228.047 110.984C228.797 110.378 229.591 109.828 230.386 109.278C229.236 113.911 225.759 117.527 224.764 122.199C225.859 121.482 226.931 120.727 227.836 119.777C230.069 117.099 232.536 114.528 233.88 111.256C235.519 108.145 235.968 104.629 237.141 101.357C237.957 105.323 237.635 109.378 237.452 113.394C238.063 113.139 238.668 112.867 239.268 112.578C242.518 108.7 241.923 103.268 242.879 98.6016Z" fill="#334A7D"/>
<path d="M291.328 120.919C292.784 118.158 295.467 115.897 298.605 115.392C301.377 114.903 304.204 115.164 306.988 115.398C307.204 117.608 307.399 119.858 306.982 122.063C306.343 125.824 304.443 129.19 303.377 132.823C302.855 134.579 302.438 136.362 301.933 138.123C301.894 136.823 301.877 135.456 301.299 134.268C300.627 133.112 299.327 132.557 298.183 132.001C295.022 130.624 291.806 129.351 288.479 128.457C289.384 125.93 290.301 123.402 291.328 120.919Z" fill="#0174BD"/>
<path d="M274.803 132.111C275.997 130.573 277.258 128.823 279.235 128.262C281.457 127.651 283.79 127.901 286.068 127.99C286.118 129.601 286.007 131.239 285.313 132.723C284.102 135.428 284.118 138.455 283.368 141.294C282.891 143.355 282.046 145.304 281.091 147.188C277.647 145.993 274.003 145.643 270.381 145.754C270.886 143.01 271.197 140.233 271.697 137.483C272.236 135.456 273.619 133.8 274.803 132.111Z" fill="#0174BD"/>
<path d="M320.16 140.816C323.737 138.627 328.215 138.638 332.197 139.505C333.375 139.788 335.225 140.416 334.792 141.993C334.047 146.454 330.886 149.915 328.276 153.414C325.998 156.231 324.226 159.391 322.315 162.447C318.549 168.74 316.449 175.828 313.222 182.378C312.266 180.817 311.122 179.322 309.478 178.445C306.478 176.756 303.79 174.595 300.979 172.623C299.734 172.879 298.49 173.112 297.24 173.323C298.751 169.168 300.862 165.285 303.023 161.447C304.295 159.275 306.289 157.619 307.461 155.386C308.606 153.214 309.478 150.859 311.083 148.954C313.688 145.832 316.621 142.882 320.16 140.816Z" fill="#0174BD"/>
<path d="M272.387 179.524C273.509 176.83 275.036 174.319 276.608 171.869C278.286 173.986 280.403 176.08 283.208 176.463C286.813 176.969 290.351 175.796 293.862 175.147C293.868 175.463 293.868 176.091 293.873 176.402C292.946 177.396 292.146 178.607 290.912 179.246C289.146 179.852 287.257 179.868 285.446 180.235C282.813 180.685 280.425 181.962 278.158 183.323C275.17 185.162 272.359 187.306 269.82 189.734C269.765 188.823 269.715 187.912 269.715 187.001C270.842 184.595 271.709 182.085 272.387 179.524Z" fill="#0174BD"/>
<path d="M253.494 196.659C254.611 193.037 255.449 189.31 257.105 185.877C258.171 187.171 259.099 188.971 260.971 189.143C263.437 189.588 266.132 189.727 268.115 191.465C267.876 191.71 267.409 192.187 267.17 192.426C265.198 194.304 263.365 196.315 261.599 198.392C259.216 201.197 255.694 202.608 253.016 205.075C252.689 204.614 252.361 204.153 252.033 203.697C252.566 201.359 253.066 199.014 253.494 196.659Z" fill="#0174BD"/>
<path d="M237.023 209.319C238.795 203.887 240.323 198.348 242.661 193.121C242.772 194.804 243.106 196.487 242.967 198.182C242.761 199.887 241.967 201.437 241.3 202.998C242.772 201.865 244.239 200.659 245.972 199.937C247.344 199.381 248.855 199.626 250.294 199.681C250.149 200.259 250.005 200.837 249.86 201.42C248.188 202.059 246 202.381 245.205 204.22C244.167 206.52 244.283 209.114 244.128 211.575C243.928 211.669 243.522 211.858 243.322 211.958C240.356 213.23 237.523 214.78 234.84 216.568C235.406 214.108 236.167 211.697 237.023 209.319Z" fill="#0174BD"/>
<path d="M246.423 204.92C247.745 204.409 249.167 204.303 250.561 204.104C250.367 205.459 250.2 206.825 249.839 208.148C248.923 208.959 247.856 209.586 246.806 210.203C245.74 208.631 245.201 206.575 246.423 204.92Z" fill="#0174BD"/>
<path d="M197.406 237.506C198.84 236.34 200.195 234.884 202.045 234.418C202.273 234.362 202.728 234.251 202.956 234.195C200.867 236.723 197.562 238.617 196.89 242.039C197.806 244.322 199.995 245.955 200.434 248.46C201.056 251.532 201.634 254.665 203.106 257.465C203.983 259.137 205.506 260.309 206.778 261.659C208.161 263.087 209.216 264.775 210.472 266.308C211.783 267.942 213.31 269.386 214.688 270.963C216.61 273.141 218.226 275.58 220.276 277.646C222.204 279.596 224.287 281.384 226.303 283.245C221.759 286.784 217.693 291.089 215.143 296.299C213.049 300.821 211.21 305.537 210.561 310.509C210.288 312.714 210.183 314.936 209.988 317.153C206.1 315.203 202.978 312.087 199.989 308.992C197.812 306.726 195.396 304.682 193.507 302.154C190.257 297.816 187.508 293.094 185.38 288.106C184.18 285.184 183.564 282.068 182.808 279.012C181.225 272.48 181.564 265.614 182.986 259.087C183.652 255.737 185.08 252.604 186.835 249.694C189.502 244.966 193.435 241.133 197.406 237.506Z" fill="#0174BD"/>
<path d="M287.237 130.047C288.264 126.869 289.381 123.664 291.331 120.92C290.303 123.403 289.386 125.93 288.481 128.458C287.842 130.341 287.614 132.324 287.542 134.302C288.342 133.891 289.142 133.48 289.947 133.074C293.747 135.457 297.93 137.163 301.685 139.629C300.985 143.195 300.174 146.75 299.996 150.389C299.852 153.333 298.769 156.11 298.341 159.01C297.824 162.437 297.558 165.915 296.641 169.27C296.247 170.559 295.73 171.803 295.108 172.992C295.23 172.036 295.308 171.075 295.397 170.12C290.37 171.542 285.065 171.32 279.993 170.242C279.604 169.431 279.226 168.62 278.843 167.815C278.26 168.559 277.671 169.303 277.121 170.081C277.915 165.693 279.01 161.365 280.154 157.055C280.182 158.66 280.226 160.36 281.021 161.799C281.598 162.876 282.876 163.226 283.981 163.498C286.181 163.954 288.481 164.148 290.708 163.726C292.386 163.398 293.536 161.999 294.497 160.688C295.602 159.11 296.613 157.432 297.269 155.61C298.33 152.75 297.113 149.383 294.764 147.534C292.808 145.995 290.608 144.689 288.209 144.001C286.542 143.467 285.226 144.973 284.043 145.895C284.231 143.834 284.62 141.801 285.231 139.829C286.226 136.635 286.198 133.23 287.237 130.047Z" fill="#01AED8"/>
<path d="M250.719 177.547C252.035 175.542 253.33 173.32 255.452 172.076C257.046 171.437 257.979 173.342 259.018 174.192C258.168 177.225 257.385 180.28 256.401 183.269C255.452 186.197 254.13 189.018 253.702 192.09C253.446 193.601 253.546 195.134 253.496 196.662C253.069 199.017 252.569 201.361 252.035 203.7C252.363 204.156 252.691 204.617 253.019 205.078C251.935 206.078 250.935 207.166 249.841 208.15C250.202 206.828 250.369 205.461 250.563 204.106C250.83 201.884 251.558 199.723 251.624 197.479C251.43 195.557 250.18 193.979 249.486 192.229C248.536 190.213 248.636 187.924 248.741 185.758C248.908 182.947 249.136 179.975 250.719 177.547Z" fill="#01AED8"/>
<path d="M259.184 180.812C259.817 178.49 260.439 176.168 261.089 173.852C261.944 175.379 262.728 177.135 264.355 178.001C266.422 179.24 268.91 178.74 271.166 178.501C270.416 180.467 269.877 182.512 269.371 184.556C267.383 184.473 265.366 184.478 263.422 183.995C261.617 183.578 260.433 182.045 259.184 180.812Z" fill="#01AED8"/>
<path d="M273.856 189.818C275.744 188.413 277.8 187.052 280.25 187.035C280 188.541 279.472 190.051 279.638 191.596C280.005 192.201 280.522 192.696 281.033 193.19C282.594 194.507 284.116 195.862 285.538 197.334C286.621 198.373 287.71 199.545 289.193 200C291.648 199.895 293.304 197.728 294.87 196.079C297.159 193.657 298.397 190.535 299.636 187.496C299.358 189.49 299.108 191.535 298.225 193.368C296.831 196.401 294.492 198.834 292.309 201.306C288.315 205.966 283.755 210.105 279.488 214.51C279.25 210.949 279.333 207.344 280.222 203.867C278.422 205 276.6 206.089 274.728 207.088C275.428 205.466 276.128 203.783 277.372 202.483C278.844 200.928 280.488 199.545 282.016 198.039C280.433 198.178 278.855 198.328 277.283 198.473C276.905 197.267 276.639 196.012 276.017 194.906C275.322 193.807 274.289 192.984 273.373 192.09C272.317 192.829 271.262 193.573 270.212 194.318C269.534 194.09 268.862 193.862 268.195 193.64L268.473 193.334C270.078 191.512 271.9 189.901 273.889 188.518C273.884 188.84 273.861 189.49 273.856 189.818Z" fill="#01AED8"/>
<path d="M284.848 211.998C289.498 206.748 294.758 202.026 298.819 196.271C299.974 198.538 301.346 200.693 302.985 202.637C300.552 207.47 297.258 211.786 294.686 216.536C292.997 218.947 291.642 221.563 290.014 224.007C289.453 224.618 288.864 225.213 288.276 225.801C288.131 224.829 287.992 223.857 287.859 222.885C286.815 222.169 285.77 221.458 284.715 220.758C286.17 220.441 287.692 220.274 289.042 219.608C289.886 218.741 290.286 217.386 289.975 216.208C288.687 214.375 286.609 213.32 284.848 211.998Z" fill="#01AED8"/>
<path d="M215.167 225.804C218.561 223.76 222.044 221.815 225.866 220.693C226.388 221.127 226.916 221.56 227.449 221.999C226.783 223.626 226.022 225.271 225.938 227.054C225.838 229.348 226.21 231.637 226.177 233.931C226.205 236.264 225.933 238.725 226.955 240.908C228.077 243.341 229.882 245.363 231.571 247.418C232.76 248.812 233.865 250.29 235.193 251.568C236.97 253.256 239.47 253.845 241.331 255.423C242.736 256.606 243.892 258.05 245.297 259.245C246.891 260.633 248.763 261.644 250.608 262.666C251.452 261.905 252.308 261.15 253.157 260.4C253.741 260.606 254.324 260.817 254.913 261.033C251.102 265.505 245.719 268.132 241.52 272.171C240.759 272.754 239.998 273.699 238.926 273.471C236.326 273.149 233.754 273.704 231.165 273.793C229.716 272.926 228.682 271.543 227.444 270.421C224.999 268.021 221.817 266.488 219.589 263.855C216.406 260.122 214.656 255.473 212.168 251.301C209.69 247.063 207.807 242.358 207.696 237.386C207.418 234.297 209.435 231.725 210.634 229.048C211.59 227.359 213.623 226.804 215.167 225.804Z" fill="#01AED8"/>
<path d="M288.478 128.459C291.805 129.353 295.022 130.625 298.182 132.003C299.327 132.559 300.626 133.114 301.299 134.269C301.876 135.458 301.893 136.825 301.932 138.125C301.871 138.497 301.743 139.252 301.682 139.63C297.927 137.164 293.744 135.458 289.944 133.075C289.139 133.481 288.339 133.892 287.539 134.303C287.611 132.325 287.839 130.342 288.478 128.459Z" fill="#018FC9"/>
<path d="M269.441 142.814C269.952 140.947 270.735 139.169 271.696 137.486C271.196 140.236 270.885 143.013 270.38 145.758C274.002 145.647 277.646 145.996 281.09 147.191C280.601 150.824 279.351 154.279 278.323 157.778L278.034 157.395C277.007 156.101 276.012 154.534 274.313 154.084C271.852 153.373 269.258 153.462 266.725 153.346C267.363 149.774 268.458 146.302 269.441 142.814Z" fill="#018FC9"/>
<path d="M259.438 159.55C260.565 158.367 262.037 157.628 263.509 156.979C262.904 162.911 261.321 168.699 259.015 174.193C257.977 173.343 257.043 171.438 255.449 172.077C253.327 173.321 252.033 175.543 250.716 177.548C249.133 179.976 248.905 182.948 248.739 185.759C248.633 187.925 248.533 190.214 249.483 192.23C250.178 193.98 251.427 195.558 251.622 197.48C251.555 199.724 250.828 201.885 250.561 204.107C249.167 204.307 247.745 204.412 246.422 204.923C245.2 206.578 245.739 208.634 246.806 210.206C245.928 210.689 245.028 211.139 244.128 211.578C244.284 209.117 244.167 206.523 245.206 204.223C246 202.385 248.189 202.062 249.861 201.424C250.005 200.84 250.15 200.263 250.294 199.685C248.855 199.629 247.345 199.385 245.972 199.94C244.239 200.662 242.773 201.868 241.301 203.001C241.967 201.44 242.762 199.89 242.967 198.185C243.106 196.491 242.773 194.808 242.662 193.124C242.528 191.119 243.289 189.203 243.967 187.353C245.811 182.731 247.967 178.237 250.4 173.893C253.122 168.949 255.277 163.511 259.438 159.55Z" fill="#018FC9"/>
<path d="M277.118 170.083C277.668 169.305 278.257 168.561 278.84 167.816C279.224 168.622 279.601 169.433 279.99 170.244C285.062 171.322 290.367 171.544 295.394 170.122C295.305 171.077 295.228 172.038 295.105 172.994C294.722 173.732 294.289 174.438 293.861 175.149C290.35 175.799 286.812 176.971 283.207 176.465C280.401 176.082 278.285 173.988 276.607 171.871C276.585 171.216 276.757 170.616 277.118 170.083Z" fill="#018FC9"/>
<path d="M297.239 173.327C298.489 173.116 299.733 172.882 300.977 172.627C303.788 174.599 306.477 176.76 309.476 178.449C311.121 179.326 312.265 180.82 313.22 182.381C312.143 185.126 311.332 187.986 309.932 190.597C307.771 194.702 305.099 198.513 302.983 202.64C301.344 200.696 299.972 198.541 298.817 196.274C301.355 192.708 301.666 187.448 299.039 183.853C297.817 182.115 295.8 181.248 294.306 179.809C293.956 179.16 293.978 178.393 293.9 177.687C295.078 176.288 296.289 174.893 297.239 173.327Z" fill="#018FC9"/>
<path d="M257.105 185.881C257.728 184.164 258.411 182.47 259.183 180.814C260.433 182.048 261.616 183.581 263.421 183.997C265.366 184.481 267.382 184.475 269.371 184.558C269.082 185.753 268.837 186.953 268.61 188.158C268.982 187.775 269.349 187.391 269.715 187.003C269.715 187.914 269.765 188.825 269.821 189.736C269.237 190.302 268.676 190.891 268.115 191.469C266.132 189.73 263.438 189.591 260.972 189.147C259.1 188.975 258.172 187.175 257.105 185.881Z" fill="#018FC9"/>
<path d="M273.885 188.519C277.651 185.953 281.251 182.842 285.756 181.67C287.117 181.737 288.478 181.914 289.833 182.087C289.039 182.786 288.25 183.486 287.417 184.136C285.611 185.469 283.706 186.73 282.278 188.491C281.167 189.791 281.217 191.591 281.029 193.191C280.517 192.696 280.001 192.202 279.634 191.597C279.468 190.052 279.995 188.541 280.245 187.036C277.796 187.053 275.74 188.414 273.852 189.819C273.857 189.491 273.879 188.841 273.885 188.519Z" fill="#018FC9"/>
<path d="M202.044 234.419C204.527 232.113 207.326 229.997 210.632 229.047C209.432 231.724 207.415 234.296 207.693 237.385C207.804 242.356 209.687 247.062 212.165 251.3C214.653 255.472 216.403 260.121 219.586 263.854C221.814 266.487 224.997 268.02 227.441 270.42C228.68 271.542 229.713 272.925 231.163 273.792C233.751 273.703 236.323 273.147 238.923 273.47C235.384 277.503 230.879 280.524 226.302 283.246C224.286 281.385 222.202 279.597 220.275 277.647C218.225 275.581 216.609 273.142 214.687 270.964C213.309 269.387 211.781 267.943 210.47 266.309C209.215 264.776 208.16 263.088 206.776 261.66C205.504 260.31 203.982 259.138 203.105 257.466C201.633 254.666 201.055 251.533 200.433 248.461C199.994 245.956 197.805 244.323 196.889 242.04C197.561 238.618 200.866 236.724 202.955 234.196C202.727 234.252 202.271 234.363 202.044 234.419Z" fill="#018FC9"/>
<path d="M284.039 145.894C285.222 144.972 286.539 143.467 288.205 144C290.605 144.689 292.805 145.994 294.76 147.533C297.11 149.383 298.326 152.749 297.265 155.61C296.61 157.432 295.599 159.109 294.493 160.687C293.532 161.998 292.382 163.398 290.705 163.726C288.477 164.148 286.177 163.953 283.978 163.498C282.872 163.226 281.595 162.876 281.017 161.798C280.223 160.359 280.178 158.66 280.15 157.054C281.172 153.266 282.111 149.344 284.039 145.894ZM286.555 150.405C284.605 151.155 283.683 153.388 283.439 155.332C284.467 156.782 286.372 157.193 288.05 157.31C289.455 157.393 291.266 157.21 291.91 155.727C292.41 154.243 291.866 152.577 291.055 151.31C290.105 149.822 288.033 149.999 286.555 150.405Z" fill="#01AED8"/>
<path d="M266.254 153.332L266.726 153.343C269.259 153.46 271.853 153.371 274.314 154.082C276.014 154.532 277.008 156.098 278.036 157.393C277.169 161.109 276.431 164.847 275.725 168.591C275.231 171.263 273.809 173.608 272.437 175.902C271.97 176.746 271.537 177.613 271.165 178.501C268.909 178.74 266.421 179.24 264.354 178.001C262.727 177.135 261.943 175.38 261.088 173.852C262.499 169.73 263.91 165.581 264.582 161.264C265.037 158.598 265.71 155.976 266.254 153.332ZM265.982 164.853C264.41 166.547 264.232 169.164 264.715 171.33C265.476 172.374 266.909 172.252 268.054 172.347C269.476 172.324 271.159 172.319 272.192 171.169C273.403 169.819 274.053 167.875 273.636 166.081C271.465 164.536 268.526 164.325 265.982 164.853Z" fill="#01AED8"/>
<path d="M270.208 194.317C271.258 193.573 272.314 192.829 273.369 192.09C274.286 192.984 275.319 193.806 276.013 194.906C276.635 196.012 276.902 197.267 277.28 198.472C278.852 198.328 280.429 198.178 282.013 198.039C280.485 199.545 278.841 200.928 277.369 202.483C276.124 203.783 275.424 205.466 274.724 207.088C276.596 206.088 278.418 205 280.218 203.866C279.329 207.344 279.246 210.949 279.485 214.51C276.724 217.37 273.741 220.026 270.242 221.959C270.086 221.253 269.908 220.553 269.731 219.859C269.07 219.937 268.414 220.014 267.759 220.098C268.486 216.337 268.953 212.515 269.025 208.682C269.014 207.249 269.042 205.722 268.314 204.444C267.697 203.327 266.859 202.361 266.075 201.372C267.003 207.027 267.703 213.071 265.464 218.531C264.27 215.354 264.076 211.96 263.798 208.621C262.715 211.154 262.276 213.887 262.17 216.632C261.548 214.793 260.904 212.965 260.209 211.16C258.687 213.621 257.515 216.276 256.554 219.009C255.482 219.037 254.41 219.07 253.338 219.103C252.805 218.359 252.266 217.62 251.738 216.882C251.372 217.398 251.01 217.92 250.655 218.448C249.988 217.881 249.322 217.315 248.661 216.754C247.533 218.648 246.333 220.52 244.806 222.125C243.583 223.536 242.028 224.87 241.65 226.786C241.267 228.897 241.478 231.069 241.811 233.174C242.078 234.574 242.395 236.124 243.534 237.101C245.283 238.574 247.422 239.473 249.427 240.534C249.277 241.69 249.133 242.845 248.988 244.006C249.15 244.178 249.461 244.528 249.622 244.706C251.355 243.906 253.194 242.64 255.193 243.306C259.076 244.44 263.348 243.851 266.914 242.006C269.575 240.623 270.908 237.846 272.719 235.602C273.48 234.602 274.324 233.552 274.43 232.246C274.791 229.125 274.93 225.98 275.197 222.853C274.002 222.914 272.808 222.959 271.625 223.092C276.202 219.615 280.99 216.309 284.846 211.999C286.606 213.321 288.684 214.376 289.973 216.209C290.284 217.387 289.884 218.742 289.039 219.609C287.69 220.276 286.168 220.442 284.712 220.759C285.768 221.459 286.812 222.17 287.856 222.886C287.99 223.858 288.128 224.831 288.273 225.803C288.862 225.214 289.451 224.62 290.012 224.008C288.973 228.158 286.762 231.863 285.068 235.757C283.623 239.068 281.874 242.345 279.124 244.762C274.474 248.745 269.164 251.844 264.226 255.433C258.232 260.21 251.96 264.626 245.939 269.376C244.561 270.448 243.05 271.342 241.517 272.17C245.717 268.131 251.099 265.504 254.91 261.032C254.321 260.815 253.738 260.604 253.155 260.399C252.305 261.149 251.449 261.904 250.605 262.665C248.761 261.643 246.889 260.632 245.294 259.243C243.889 258.049 242.734 256.605 241.328 255.422C239.467 253.844 236.968 253.255 235.19 251.567C233.862 250.289 232.757 248.811 231.568 247.417C229.879 245.362 228.074 243.34 226.952 240.907C225.93 238.724 226.202 236.263 226.174 233.93C226.208 231.635 225.836 229.347 225.935 227.053C226.019 225.269 226.78 223.625 227.446 221.998C226.913 221.559 226.385 221.125 225.863 220.692C229.035 219.753 232.074 218.398 234.84 216.57C237.523 214.782 240.356 213.232 243.322 211.96C243.6 212.171 244.156 212.604 244.433 212.821C247.3 211.149 250.144 209.405 252.627 207.183C255.693 204.411 259.543 202.683 262.554 199.839C264.603 197.934 266.331 195.723 268.192 193.64C268.858 193.862 269.531 194.09 270.208 194.317Z" fill="#01AED8"/>
<path d="M286.556 150.404C288.033 149.999 290.105 149.821 291.055 151.31C291.866 152.576 292.411 154.243 291.911 155.726C291.266 157.209 289.455 157.392 288.05 157.309C286.372 157.193 284.467 156.781 283.439 155.332C283.684 153.387 284.606 151.154 286.556 150.404Z" fill="#01AED8"/>
<path d="M265.98 164.852C268.524 164.324 271.463 164.535 273.635 166.08C274.051 167.874 273.402 169.818 272.191 171.168C271.157 172.318 269.474 172.323 268.052 172.346C266.908 172.251 265.475 172.373 264.714 171.329C264.23 169.163 264.408 166.546 265.98 164.852Z" fill="#01AED8"/>
<path d="M266.076 201.371C266.859 202.36 267.698 203.326 268.314 204.443C269.042 205.721 269.014 207.248 269.025 208.681C268.953 212.514 268.487 216.336 267.759 220.097C268.414 220.013 269.07 219.936 269.731 219.858C269.909 220.552 270.086 221.252 270.242 221.958C269.331 222.902 268.442 223.874 267.57 224.863C268.925 224.285 270.275 223.696 271.625 223.091C272.808 222.958 274.003 222.913 275.197 222.852C274.93 225.979 274.791 229.124 274.43 232.245C274.325 233.551 273.48 234.601 272.719 235.601C270.908 237.845 269.575 240.622 266.915 242.005C263.348 243.85 259.077 244.438 255.194 243.305C253.194 242.639 251.355 243.905 249.622 244.705C249.461 244.527 249.15 244.177 248.989 244.005C249.133 242.844 249.278 241.689 249.428 240.533C247.422 239.472 245.284 238.572 243.534 237.1C242.395 236.123 242.078 234.573 241.812 233.173C241.478 231.068 241.267 228.896 241.651 226.785C242.028 224.868 243.584 223.535 244.806 222.124C246.333 220.519 247.533 218.647 248.661 216.753C249.322 217.314 249.989 217.88 250.655 218.447C251.011 217.919 251.372 217.397 251.738 216.88C252.266 217.619 252.805 218.358 253.338 219.102C254.41 219.069 255.482 219.036 256.555 219.008C257.516 216.275 258.688 213.62 260.21 211.159C260.904 212.964 261.548 214.792 262.171 216.63C262.276 213.886 262.715 211.153 263.798 208.62C264.076 211.959 264.27 215.353 265.465 218.53C267.703 213.07 267.003 207.026 266.076 201.371Z" fill="#01AED8"/>
</svg>
