<svg width="1213" height="274" viewBox="0 0 1213 274" fill="none" xmlns="http://www.w3.org/2000/svg">
<g clip-path="url(#clip0_5467_34933)">
<path d="M79.1434 0C86.2885 0.0838488 93.4337 0.150929 100.579 0.335396C100.975 11.5544 100.635 22.7733 101.012 33.9923C110.345 27.9049 119.281 21.3647 128.349 14.9419C133.571 11.3028 138.322 7.0433 144.147 4.12536C146.296 4.30983 147.993 5.63464 149.728 6.65759C189.639 35.468 229.625 64.2114 269.63 92.9212C275.513 97.2478 282.073 100.971 287.107 106.153C285.24 111.116 281.564 115.477 277.247 118.981C271.893 117.086 267.858 113.297 263.466 110.144C224.29 81.5178 184.624 53.4117 145.373 24.8696C129.668 34.1432 115.755 45.5802 100.899 55.8768C86.364 65.8549 72.1114 76.1683 57.7456 86.3475C43.9267 95.8392 30.1831 105.448 16.8731 115.51C14.5542 116.701 12.2165 119.937 9.29435 118.227C5.373 114.772 2.8279 110.345 0 106.203C21.8125 90.6741 43.8512 75.4136 65.5318 59.7507C70.5277 55.7259 78.9926 52.7074 78.4836 45.6473C79.1057 30.4371 77.5032 15.1766 79.1434 0Z" fill="white"/>
<path d="M143.356 123.895C146.957 142.09 144.675 160.704 147.937 178.95C148.804 193.674 149.596 208.414 150.218 223.155C160.719 216.799 171.446 210.544 183.361 206.469C174.689 214.954 165.281 222.886 157.476 232.06C154.686 235.296 152.386 239.103 152.405 243.312C152.16 253.29 153.216 263.251 153.102 273.246C146.693 273.229 140.283 273.246 133.873 273.28C133.288 263.855 134.533 254.447 134.533 245.023C134.797 239.203 130.479 234.474 126.822 230.047C119.96 221.813 111.721 214.636 103.859 207.173C115.699 211.231 126.351 217.419 137.097 223.306C138.002 208.414 139.133 193.523 139.962 178.631C142.017 160.436 141.433 142.106 143.356 123.895Z" fill="white"/>
<path d="M132.196 52.0028C135.608 47.8271 139.152 43.6011 143.79 40.4316C150.256 44.8589 154.725 51.0637 159.381 56.9163C170.749 71.4222 179.063 88.2422 180.854 105.968C181.91 118.998 181.458 132.481 175.99 144.773C170.108 158.038 160.211 169.81 147.938 178.95C144.676 160.704 146.957 142.09 143.356 123.895C141.433 142.107 142.018 160.436 139.963 178.631C123.259 166.322 109.629 149.1 107.612 129.446C106.462 116.784 106.669 103.821 110.289 91.462C114.38 77.1071 122.524 63.9428 132.196 52.0028Z" fill="url(#paint0_linear_5467_34933)"/>
<path d="M36.498 210.428C50.7695 210.495 65.55 209.287 79.237 213.681C95.865 219.064 111.588 228.975 119.242 243.565C123.805 251.295 125.143 260.049 125.614 268.669C114.246 271.453 102.237 272.912 90.5486 270.849C70.1312 268.015 52.4474 254.968 44.0768 238.349C39.3825 229.612 37.6292 219.97 36.498 210.428Z" fill="url(#paint1_linear_5467_34933)"/>
<path d="M219.954 210.914C229.72 209.891 239.561 210.276 249.364 210.478C247.837 221.177 245.594 232.06 239.749 241.636C230.983 255.957 215.618 267.478 197.463 270.882C185.887 273.264 173.973 271.62 162.472 269.775C160.436 254.934 167.148 239.892 179.119 229.578C190.129 219.885 204.382 212.54 219.954 210.914Z" fill="url(#paint2_linear_5467_34933)"/>
<path d="M36.989 117.791C51.0531 120.088 65.7393 122.151 77.9746 129.194C92.774 137.294 104.029 150.425 108.742 165.3C112.569 177.609 110.005 190.438 107.498 202.713C98.2224 202.847 88.6452 202.914 79.8787 199.862C61.422 194.278 47.1506 180.141 40.9858 163.891C34.9718 149.134 36.6873 133.152 36.989 117.791Z" fill="#4CAF50"/>
<path d="M209.716 129.412C222.159 122.536 236.713 118.83 251.381 118.83C251.626 132.732 251.494 146.852 247.968 160.453C242.237 176.669 229.53 191.527 211.658 198.369C201.892 202.964 190.618 202.981 179.872 202.679C177.931 194.059 176.234 185.255 177.309 176.451C179.194 157.417 191.75 139.708 209.716 129.412Z" fill="#4CAF50"/>
<path d="M356.067 51.3406C361.037 51.3406 365.307 52.2156 368.877 53.9656C372.517 55.7156 375.352 58.2006 377.382 61.4206C379.412 64.6406 380.427 68.5256 380.427 73.0756C380.427 77.5556 379.412 81.4406 377.382 84.7306C375.352 87.9506 372.517 90.4356 368.877 92.1856C365.307 93.9356 361.037 94.8106 356.067 94.8106H340.632V120.641H329.397V51.3406H356.067ZM354.282 85.1506C359.252 85.1506 362.892 84.1356 365.202 82.1056C367.582 80.0056 368.772 76.9956 368.772 73.0756C368.772 69.0856 367.582 66.0756 365.202 64.0456C362.892 61.9456 359.252 60.8956 354.282 60.8956H340.632V85.1506H354.282ZM443.978 120.641H432.113L425.498 102.476H396.413L389.798 120.641H378.248L404.393 51.3406H417.833L443.978 120.641ZM399.563 93.3406H422.348L411.008 61.0006L399.563 93.3406ZM476.024 50.2906C482.254 50.2906 487.644 51.4806 492.194 53.8606C496.744 56.1706 500.594 59.6006 503.744 64.1506L496.184 71.3956C493.524 67.3356 490.514 64.4306 487.154 62.6806C483.864 60.8606 479.944 59.9506 475.394 59.9506C472.034 59.9506 469.269 60.4056 467.099 61.3156C464.929 62.2256 463.319 63.4506 462.269 64.9906C461.289 66.4606 460.799 68.1406 460.799 70.0306C460.799 72.2006 461.534 74.0906 463.004 75.7006C464.544 77.3106 467.379 78.5706 471.509 79.4806L485.579 82.6306C492.299 84.1006 497.059 86.3406 499.859 89.3506C502.659 92.3606 504.059 96.1756 504.059 100.796C504.059 105.066 502.904 108.776 500.594 111.926C498.284 115.076 495.064 117.491 490.934 119.171C486.874 120.851 482.079 121.691 476.549 121.691C471.649 121.691 467.239 121.061 463.319 119.801C459.399 118.541 455.969 116.826 453.029 114.656C450.089 112.486 447.674 110.001 445.784 107.201L453.554 99.4306C455.024 101.881 456.879 104.086 459.119 106.046C461.359 107.936 463.949 109.406 466.889 110.456C469.899 111.506 473.224 112.031 476.864 112.031C480.084 112.031 482.849 111.646 485.159 110.876C487.539 110.106 489.324 108.986 490.514 107.516C491.774 105.976 492.404 104.156 492.404 102.056C492.404 100.026 491.704 98.2406 490.304 96.7006C488.974 95.1606 486.454 93.9706 482.744 93.1306L467.519 89.6656C463.319 88.7556 459.854 87.4606 457.124 85.7806C454.394 84.1006 452.364 82.0706 451.034 79.6906C449.704 77.2406 449.039 74.5106 449.039 71.5006C449.039 67.5806 450.089 64.0456 452.189 60.8956C454.359 57.6756 457.474 55.1206 461.534 53.2306C465.594 51.2706 470.424 50.2906 476.024 50.2906ZM540.242 50.2906C546.472 50.2906 551.862 51.4806 556.412 53.8606C560.962 56.1706 564.812 59.6006 567.962 64.1506L560.402 71.3956C557.742 67.3356 554.732 64.4306 551.372 62.6806C548.082 60.8606 544.162 59.9506 539.612 59.9506C536.252 59.9506 533.487 60.4056 531.317 61.3156C529.147 62.2256 527.537 63.4506 526.487 64.9906C525.507 66.4606 525.017 68.1406 525.017 70.0306C525.017 72.2006 525.752 74.0906 527.222 75.7006C528.762 77.3106 531.597 78.5706 535.727 79.4806L549.797 82.6306C556.517 84.1006 561.277 86.3406 564.077 89.3506C566.877 92.3606 568.277 96.1756 568.277 100.796C568.277 105.066 567.122 108.776 564.812 111.926C562.502 115.076 559.282 117.491 555.152 119.171C551.092 120.851 546.297 121.691 540.767 121.691C535.867 121.691 531.457 121.061 527.537 119.801C523.617 118.541 520.187 116.826 517.247 114.656C514.307 112.486 511.892 110.001 510.002 107.201L517.772 99.4306C519.242 101.881 521.097 104.086 523.337 106.046C525.577 107.936 528.167 109.406 531.107 110.456C534.117 111.506 537.442 112.031 541.082 112.031C544.302 112.031 547.067 111.646 549.377 110.876C551.757 110.106 553.542 108.986 554.732 107.516C555.992 105.976 556.622 104.156 556.622 102.056C556.622 100.026 555.922 98.2406 554.522 96.7006C553.192 95.1606 550.672 93.9706 546.962 93.1306L531.737 89.6656C527.537 88.7556 524.072 87.4606 521.342 85.7806C518.612 84.1006 516.582 82.0706 515.252 79.6906C513.922 77.2406 513.257 74.5106 513.257 71.5006C513.257 67.5806 514.307 64.0456 516.407 60.8956C518.577 57.6756 521.692 55.1206 525.752 53.2306C529.812 51.2706 534.642 50.2906 540.242 50.2906ZM592.071 51.3406V120.641H580.836V51.3406H592.071ZM638.243 50.2906C644.963 50.2906 650.773 51.7256 655.673 54.5956C660.573 57.4656 664.353 61.5606 667.013 66.8806C669.673 72.2006 671.003 78.5706 671.003 85.9906C671.003 93.4106 669.673 99.7806 667.013 105.101C664.353 110.421 660.573 114.516 655.673 117.386C650.773 120.256 644.963 121.691 638.243 121.691C631.593 121.691 625.818 120.256 620.918 117.386C616.018 114.516 612.238 110.421 609.578 105.101C606.918 99.7806 605.588 93.4106 605.588 85.9906C605.588 78.5706 606.918 72.2006 609.578 66.8806C612.238 61.5606 616.018 57.4656 620.918 54.5956C625.818 51.7256 631.593 50.2906 638.243 50.2906ZM638.243 60.0556C633.903 60.0556 630.158 61.0706 627.008 63.1006C623.928 65.1306 621.548 68.0706 619.868 71.9206C618.188 75.7706 617.348 80.4606 617.348 85.9906C617.348 91.4506 618.188 96.1406 619.868 100.061C621.548 103.911 623.928 106.851 627.008 108.881C630.158 110.911 633.903 111.926 638.243 111.926C642.653 111.926 646.398 110.911 649.478 108.881C652.628 106.851 655.043 103.911 656.723 100.061C658.403 96.1406 659.243 91.4506 659.243 85.9906C659.243 80.4606 658.403 75.7706 656.723 71.9206C655.043 68.0706 652.628 65.1306 649.478 63.1006C646.398 61.0706 642.653 60.0556 638.243 60.0556ZM741.365 51.3406V120.641H728.03L701.255 76.9606L694.535 64.6756H694.43L694.85 75.9106V120.641H684.56V51.3406H697.79L724.46 94.9156L731.285 107.411H731.39L730.97 96.0706V51.3406H741.365ZM816.264 120.641H804.399L797.784 102.476H768.699L762.084 120.641H750.534L776.679 51.3406H790.119L816.264 120.641ZM771.849 93.3406H794.634L783.294 61.0006L771.849 93.3406ZM867.73 51.3406V61.0006H844V120.641H832.765V61.0006H809.035V51.3406H867.73ZM878.035 120.641V51.3406H928.225V61.0006H889.27V80.9506H919.72V90.4006H889.27V110.981H929.695V120.641H878.035ZM386.832 207.266C385.432 211.466 383.332 215.036 380.532 217.976C377.732 220.846 374.442 223.016 370.662 224.486C366.882 225.956 362.717 226.691 358.167 226.691C351.517 226.691 345.742 225.256 340.842 222.386C335.942 219.516 332.162 215.421 329.502 210.101C326.842 204.781 325.512 198.411 325.512 190.991C325.512 183.571 326.842 177.201 329.502 171.881C332.162 166.561 335.942 162.466 340.842 159.596C345.742 156.726 351.482 155.291 358.062 155.291C362.612 155.291 366.707 155.921 370.347 157.181C374.057 158.441 377.207 160.331 379.797 162.851C382.387 165.371 384.382 168.521 385.782 172.301L375.177 177.026C373.777 172.896 371.747 169.886 369.087 167.996C366.427 166.036 362.962 165.056 358.692 165.056C354.422 165.056 350.677 166.071 347.457 168.101C344.237 170.131 341.717 173.071 339.897 176.921C338.147 180.771 337.272 185.461 337.272 190.991C337.272 196.451 338.112 201.141 339.792 205.061C341.472 208.911 343.887 211.851 347.037 213.881C350.187 215.911 353.967 216.926 358.377 216.926C362.647 216.926 366.322 215.841 369.402 213.671C372.552 211.431 374.792 208.106 376.122 203.696L386.832 207.266ZM398.025 225.641V156.341H448.215V166.001H409.26V185.951H439.71V195.401H409.26V215.981H449.685V225.641H398.025ZM518.433 156.341V225.641H505.098L478.323 181.961L471.603 169.676H471.498L471.918 180.911V225.641H461.628V156.341H474.858L501.528 199.916L508.353 212.411H508.458L508.038 201.071V156.341H518.433ZM587.347 156.341V166.001H563.617V225.641H552.382V166.001H528.652V156.341H587.347ZM597.652 225.641V156.341H647.842V166.001H608.887V185.951H639.337V195.401H608.887V215.981H649.312V225.641H597.652ZM689.5 156.341C696.92 156.341 702.8 158.196 707.14 161.906C711.55 165.616 713.755 170.621 713.755 176.921C713.755 183.431 711.55 188.471 707.14 192.041C702.8 195.541 696.92 197.291 689.5 197.291L688.45 197.921H672.385V225.641H661.255V156.341H689.5ZM688.66 188.576C693.21 188.576 696.57 187.666 698.74 185.846C700.98 183.956 702.1 181.086 702.1 177.236C702.1 173.456 700.98 170.621 698.74 168.731C696.57 166.841 693.21 165.896 688.66 165.896H672.385V188.576H688.66ZM695.275 190.886L717.85 225.641H704.935L685.615 195.296L695.275 190.886ZM776.447 226.691C771.757 226.691 767.697 225.921 764.267 224.381C760.907 222.771 758.282 220.566 756.392 217.766C754.572 214.966 753.662 211.676 753.662 207.896C753.662 205.726 753.942 203.661 754.502 201.701C755.132 199.671 756.112 197.746 757.442 195.926C758.842 194.036 760.732 192.321 763.112 190.781C765.492 189.171 768.467 187.771 772.037 186.581L776.132 184.796C778.932 183.186 781.172 181.716 782.852 180.386C784.602 179.056 785.862 177.656 786.632 176.186C787.472 174.716 787.892 173.001 787.892 171.041C787.892 168.731 787.192 166.946 785.792 165.686C784.392 164.426 782.537 163.796 780.227 163.796C777.497 163.796 775.432 164.566 774.032 166.106C772.702 167.576 772.037 169.361 772.037 171.461C772.037 172.721 772.212 173.946 772.562 175.136C772.982 176.326 773.752 177.796 774.872 179.546C776.062 181.296 777.777 183.606 780.017 186.476C782.257 189.276 785.302 192.986 789.152 197.606C792.932 202.156 796.082 205.866 798.602 208.736C801.192 211.536 803.397 213.671 805.217 215.141C807.037 216.541 808.717 217.486 810.257 217.976C811.867 218.396 813.652 218.571 815.612 218.501L813.722 226.691C811.482 226.691 809.382 226.446 807.422 225.956C805.532 225.536 803.467 224.556 801.227 223.016C799.057 221.476 796.467 219.166 793.457 216.086C790.517 213.006 786.877 208.911 782.537 203.801C778.477 199.041 775.082 195.051 772.352 191.831C769.692 188.541 767.592 185.776 766.052 183.536C764.582 181.226 763.532 179.161 762.902 177.341C762.272 175.451 761.957 173.456 761.957 171.356C761.957 168.766 762.622 166.246 763.952 163.796C765.282 161.276 767.277 159.246 769.937 157.706C772.667 156.096 776.202 155.291 780.542 155.291C784.042 155.291 787.017 155.921 789.467 157.181C791.917 158.441 793.807 160.191 795.137 162.431C796.467 164.601 797.132 167.121 797.132 169.991C797.132 172.651 796.642 175.136 795.662 177.446C794.682 179.756 792.932 181.961 790.412 184.061C787.962 186.161 784.462 188.226 779.912 190.256L776.447 191.726C773.227 193.336 770.707 194.876 768.887 196.346C767.067 197.816 765.772 199.391 765.002 201.071C764.232 202.681 763.847 204.641 763.847 206.951C763.847 209.331 764.442 211.396 765.632 213.146C766.892 214.826 768.572 216.121 770.672 217.031C772.772 217.941 775.117 218.396 777.707 218.396C781.417 218.396 784.567 217.766 787.157 216.506C789.747 215.176 792.162 213.356 794.402 211.046L795.872 209.471C797.552 206.811 798.847 203.801 799.757 200.441C800.737 197.081 801.052 193.266 800.702 188.996L809.417 189.521C809.557 194.001 808.962 198.341 807.632 202.541C806.372 206.741 804.412 210.521 801.752 213.881L799.652 216.191C797.132 219.411 793.947 221.966 790.097 223.856C786.247 225.746 781.697 226.691 776.447 226.691ZM910.435 156.341V225.641H899.095V156.341H910.435ZM864.865 156.341V225.641H853.63V156.341H864.865ZM904.765 185.741V195.401H859.3V185.741H904.765ZM956.565 155.291C963.285 155.291 969.095 156.726 973.995 159.596C978.895 162.466 982.675 166.561 985.335 171.881C987.995 177.201 989.325 183.571 989.325 190.991C989.325 198.411 987.995 204.781 985.335 210.101C982.675 215.421 978.895 219.516 973.995 222.386C969.095 225.256 963.285 226.691 956.565 226.691C949.915 226.691 944.14 225.256 939.24 222.386C934.34 219.516 930.56 215.421 927.9 210.101C925.24 204.781 923.91 198.411 923.91 190.991C923.91 183.571 925.24 177.201 927.9 171.881C930.56 166.561 934.34 162.466 939.24 159.596C944.14 156.726 949.915 155.291 956.565 155.291ZM956.565 165.056C952.225 165.056 948.48 166.071 945.33 168.101C942.25 170.131 939.87 173.071 938.19 176.921C936.51 180.771 935.67 185.461 935.67 190.991C935.67 196.451 936.51 201.141 938.19 205.061C939.87 208.911 942.25 211.851 945.33 213.881C948.48 215.911 952.225 216.926 956.565 216.926C960.975 216.926 964.72 215.911 967.8 213.881C970.95 211.851 973.365 208.911 975.045 205.061C976.725 201.141 977.565 196.451 977.565 190.991C977.565 185.461 976.725 180.771 975.045 176.921C973.365 173.071 970.95 170.131 967.8 168.101C964.72 166.071 960.975 165.056 956.565 165.056ZM1073.76 156.341V225.641H1063.36V185.531L1064.2 166.421H1064.1L1042.99 225.641H1033.65L1012.54 166.421H1012.44L1013.28 185.531V225.641H1002.88V156.341H1019.58L1033.54 196.451L1038.37 212.936H1038.58L1043.52 196.451L1057.38 156.341H1073.76ZM1091.2 225.641V156.341H1141.39V166.001H1102.43V185.951H1132.88V195.401H1102.43V215.981H1142.86V225.641H1091.2ZM1178.42 155.291C1184.65 155.291 1190.04 156.481 1194.59 158.861C1199.14 161.171 1202.99 164.601 1206.14 169.151L1198.58 176.396C1195.92 172.336 1192.91 169.431 1189.55 167.681C1186.26 165.861 1182.34 164.951 1177.79 164.951C1174.43 164.951 1171.67 165.406 1169.5 166.316C1167.33 167.226 1165.72 168.451 1164.67 169.991C1163.69 171.461 1163.2 173.141 1163.2 175.031C1163.2 177.201 1163.93 179.091 1165.4 180.701C1166.94 182.311 1169.78 183.571 1173.91 184.481L1187.98 187.631C1194.7 189.101 1199.46 191.341 1202.26 194.351C1205.06 197.361 1206.46 201.176 1206.46 205.796C1206.46 210.066 1205.3 213.776 1202.99 216.926C1200.68 220.076 1197.46 222.491 1193.33 224.171C1189.27 225.851 1184.48 226.691 1178.95 226.691C1174.05 226.691 1169.64 226.061 1165.72 224.801C1161.8 223.541 1158.37 221.826 1155.43 219.656C1152.49 217.486 1150.07 215.001 1148.18 212.201L1155.95 204.431C1157.42 206.881 1159.28 209.086 1161.52 211.046C1163.76 212.936 1166.35 214.406 1169.29 215.456C1172.3 216.506 1175.62 217.031 1179.26 217.031C1182.48 217.031 1185.25 216.646 1187.56 215.876C1189.94 215.106 1191.72 213.986 1192.91 212.516C1194.17 210.976 1194.8 209.156 1194.8 207.056C1194.8 205.026 1194.1 203.241 1192.7 201.701C1191.37 200.161 1188.85 198.971 1185.14 198.131L1169.92 194.666C1165.72 193.756 1162.25 192.461 1159.52 190.781C1156.79 189.101 1154.76 187.071 1153.43 184.691C1152.1 182.241 1151.44 179.511 1151.44 176.501C1151.44 172.581 1152.49 169.046 1154.59 165.896C1156.76 162.676 1159.87 160.121 1163.93 158.231C1167.99 156.271 1172.82 155.291 1178.42 155.291Z" fill="white"/>
</g>
<defs>
<linearGradient id="paint0_linear_5467_34933" x1="143.923" y1="28.3951" x2="67.372" y2="101.568" gradientUnits="userSpaceOnUse">
<stop stop-color="#9C27B0"/>
<stop offset="1" stop-color="#2196F3"/>
</linearGradient>
<linearGradient id="paint1_linear_5467_34933" x1="28.3947" y1="205.381" x2="126.767" y2="266.741" gradientUnits="userSpaceOnUse">
<stop stop-color="#9C27B0"/>
<stop offset="1" stop-color="#2196F3"/>
</linearGradient>
<linearGradient id="paint2_linear_5467_34933" x1="259.837" y1="203.436" x2="162.593" y2="269.562" gradientUnits="userSpaceOnUse">
<stop stop-color="#9C27B0"/>
<stop offset="1" stop-color="#2196F3"/>
</linearGradient>
<clipPath id="clip0_5467_34933">
<rect width="1212.11" height="273.28" fill="white"/>
</clipPath>
</defs>
</svg>
